{"glyphs":{"0":{"ha":579,"x_min":22,"x_max":557,"o":"m 289 115 q 317 130 306 115 q 337 185 329 144 q 348 299 344 226 q 351 489 351 372 q 336 744 351 667 q 288 821 321 821 q 258 805 271 821 q 238 751 246 789 q 226 647 229 713 q 222 483 222 582 q 226 307 222 378 q 239 194 231 236 q 260 133 247 151 q 289 115 272 115 m 290 -35 q 88 90 153 -35 q 22 478 22 215 q 87 852 22 732 q 289 972 151 972 q 494 853 431 972 q 557 486 557 735 q 497 97 557 228 q 290 -35 436 -35 z "},"1":{"ha":440,"x_min":0,"x_max":364,"o":"m 167 -4 q 169 463 169 285 q 167 711 168 642 q 117 684 138 696 q 83 664 97 672 q 58 647 68 654 q 34 722 44 689 q 17 779 24 756 q 0 826 8 806 q 99 880 53 854 q 179 925 144 906 q 253 967 219 947 q 299 960 279 963 q 331 954 318 957 l 356 950 q 356 594 356 765 q 360 290 357 424 q 364 -3 361 133 q 281 -6 317 -6 q 219 -6 244 -6 q 167 -4 190 -6 z "},"2":{"ha":519,"x_min":3,"x_max":504,"o":"m 486 -1 q 303 2 386 1 q 157 4 219 3 q 28 6 85 6 q 24 90 25 51 q 22 157 24 129 q 21 218 21 190 q 135 324 82 269 q 228 440 189 379 q 291 566 268 500 q 314 706 314 632 q 263 822 314 822 q 210 764 224 822 q 207 561 196 706 q 164 560 189 560 q 107 558 142 558 q 25 556 72 558 q 62 875 3 768 q 268 982 121 982 q 447 907 390 982 q 504 700 504 832 q 432 415 504 550 q 236 183 360 281 q 349 183 303 182 q 426 183 396 183 q 485 185 463 183 l 485 38 q 486 -1 485 13 z "},"3":{"ha":539,"x_min":4,"x_max":531,"o":"m 271 -31 q 138 -4 190 -31 q 55 71 85 22 q 17 190 25 119 q 19 347 10 260 l 65 343 q 207 335 111 339 q 212 175 196 224 q 265 126 228 126 q 312 153 293 126 q 331 254 331 181 q 319 338 331 306 q 289 385 308 369 q 242 405 271 400 q 165 407 214 410 q 164 443 164 421 q 163 490 163 463 q 160 554 163 517 q 288 576 256 550 q 316 622 306 590 q 326 697 326 653 q 269 833 326 833 q 216 781 229 833 q 211 624 203 728 q 76 615 129 618 q 24 613 47 614 q 72 901 4 813 q 286 989 140 989 q 388 967 344 989 q 460 907 432 944 q 503 820 489 869 q 518 717 518 771 q 488 577 518 633 q 401 493 458 521 q 495 407 460 469 q 531 253 531 344 q 510 128 531 182 q 455 40 490 75 q 372 -13 419 4 q 271 -31 325 -31 z "},"4":{"ha":560,"x_min":7,"x_max":551,"o":"m 307 769 q 226 509 258 619 q 181 353 194 399 l 217 353 q 256 352 233 353 q 304 353 278 351 q 306 614 306 514 q 307 769 307 714 m 303 182 l 13 178 q 11 214 13 190 q 9 268 10 233 q 7 357 8 303 q 103 626 63 511 q 172 818 144 740 q 225 974 204 908 q 358 969 307 971 q 438 967 408 968 q 488 964 472 965 q 485 620 486 771 q 486 353 485 469 l 506 353 q 526 353 514 353 q 551 354 538 353 q 550 317 550 340 q 549 264 550 297 q 550 183 549 231 l 535 183 l 488 183 q 488 103 488 138 q 489 46 489 69 q 490 0 489 19 q 398 -3 433 -3 q 340 -3 363 -3 q 301 -1 315 -3 l 303 182 z "},"5":{"ha":544,"x_min":18,"x_max":532,"o":"m 275 -24 q 146 1 197 -24 q 65 72 94 25 q 27 185 36 118 q 25 336 18 251 q 99 331 65 333 q 160 328 133 329 q 215 326 190 326 q 217 230 214 269 q 226 167 219 190 q 246 133 233 143 q 275 122 258 122 q 300 131 289 122 q 319 163 311 140 q 331 224 326 185 q 335 321 335 263 q 279 519 335 519 q 238 483 251 519 q 218 382 225 447 q 161 386 192 383 q 100 392 135 389 q 29 400 65 396 q 33 565 31 476 q 38 742 36 642 q 42 960 39 843 q 168 961 97 960 q 313 964 229 963 q 501 969 397 965 q 500 933 500 957 q 499 880 499 914 q 499 793 499 846 l 426 793 q 339 792 390 793 q 219 790 288 792 q 217 706 218 756 q 215 586 215 656 q 273 644 239 625 q 360 664 307 664 q 442 639 410 664 q 495 569 475 614 q 524 465 515 525 q 532 333 532 404 q 467 61 532 146 q 275 -24 403 -24 z "},"6":{"ha":554,"x_min":22,"x_max":540,"o":"m 283 440 q 251 430 265 440 q 224 403 238 419 q 230 269 225 321 q 243 186 235 217 q 263 144 251 156 q 292 132 275 132 q 333 169 318 132 q 349 297 349 207 q 335 403 350 367 q 283 440 319 440 m 290 -26 q 83 96 143 -26 q 22 472 22 218 q 33 679 22 585 q 75 842 44 774 q 158 947 106 910 q 294 985 211 985 q 408 961 363 985 q 481 893 454 938 q 518 785 508 849 q 524 643 528 722 q 443 647 478 646 q 385 649 408 649 l 338 649 q 331 784 340 736 q 293 832 321 832 q 263 817 276 832 q 242 767 250 803 q 228 673 233 732 q 224 526 224 614 q 351 596 278 596 q 442 573 406 596 q 499 512 478 550 q 531 423 521 474 q 540 314 540 372 q 521 157 540 222 q 468 51 501 92 q 389 -8 435 11 q 290 -26 343 -26 z "},"7":{"ha":464,"x_min":7,"x_max":457,"o":"m 106 -21 q 107 234 99 114 q 138 456 115 354 q 196 640 161 558 q 275 779 231 721 q 165 778 214 778 q 81 776 117 778 q 7 775 39 775 q 10 850 8 815 q 11 910 11 885 l 11 963 q 239 965 153 964 q 374 968 325 967 q 454 971 429 969 q 453 872 453 911 q 456 807 454 832 q 457 760 457 778 q 374 602 407 686 q 323 421 342 518 q 299 213 304 324 q 301 -26 294 101 q 212 -24 249 -24 q 151 -22 175 -24 q 106 -21 124 -22 z "},"8":{"ha":561,"x_min":8,"x_max":553,"o":"m 286 557 q 327 622 310 581 q 344 715 344 663 q 328 805 344 774 q 281 836 313 836 q 231 805 247 836 q 215 721 215 774 q 286 557 215 615 m 279 121 q 330 149 311 121 q 349 229 349 176 q 329 331 349 288 q 274 400 310 374 q 224 332 242 375 q 207 242 207 289 q 225 153 207 185 q 279 121 243 121 m 288 -26 q 78 41 149 -26 q 8 238 8 108 q 40 374 8 313 q 143 476 72 435 q 58 582 90 518 q 25 725 25 646 q 92 915 25 844 q 285 986 160 986 q 478 915 414 986 q 543 728 543 843 q 508 580 543 636 q 411 483 472 524 q 517 383 482 442 q 553 242 553 325 q 534 122 553 172 q 480 38 515 71 q 395 -10 444 6 q 288 -26 346 -26 z "},"9":{"ha":554,"x_min":10,"x_max":532,"o":"m 281 500 q 332 525 308 500 q 327 681 331 619 q 316 777 324 742 q 297 826 308 813 q 271 839 286 839 q 207 663 207 839 q 225 540 207 579 q 281 500 243 500 m 263 -25 q 66 72 122 -25 q 25 339 10 168 q 110 330 75 332 q 169 325 146 328 q 213 322 196 322 q 220 176 204 219 q 269 132 236 132 q 299 144 288 132 q 318 187 311 156 q 328 272 325 218 q 332 413 332 326 q 236 369 296 369 q 137 390 179 369 q 67 450 94 411 q 27 544 40 489 q 14 665 14 599 q 78 899 14 814 q 268 985 143 985 q 384 958 335 985 q 467 873 433 932 q 516 717 500 814 q 532 479 532 621 q 515 238 532 335 q 465 83 499 142 q 380 0 431 25 q 263 -25 329 -25 z "}," ":{"ha":243,"x_min":0,"x_max":0,"o":""}," ":{"ha":243,"x_min":0,"x_max":0,"o":""},"!":{"ha":283,"x_min":18,"x_max":265,"o":"m 64 290 q 57 503 61 390 q 49 719 54 599 q 36 969 43 840 q 93 968 61 968 q 158 968 121 968 q 243 969 196 968 q 236 769 240 878 q 230 553 233 676 q 224 290 226 429 q 179 292 204 292 q 129 292 158 292 q 64 290 100 292 m 144 -14 q 52 19 86 -14 q 18 113 18 53 q 51 201 18 167 q 143 236 83 236 q 198 226 175 236 q 236 197 221 215 q 258 157 251 179 q 265 110 265 135 q 231 19 265 51 q 144 -14 197 -14 z "},"\"":{"ha":375,"x_min":15,"x_max":360,"o":"m 217 642 q 217 717 218 669 q 213 823 215 757 q 208 988 211 889 q 246 985 224 986 q 294 983 265 983 q 360 982 322 982 q 351 890 356 943 q 344 782 349 846 q 338 638 340 718 q 304 639 322 638 q 267 641 289 640 q 217 642 244 642 m 36 647 q 31 738 33 688 q 24 839 28 781 q 15 968 21 897 l 53 968 q 163 972 92 968 q 160 892 161 938 q 157 792 158 851 q 156 653 156 732 q 126 651 143 651 q 89 650 111 650 q 36 647 67 650 z "},"#":{"ha":521,"x_min":7,"x_max":514,"o":"m 218 701 q 218 629 218 663 q 219 551 218 596 q 251 551 238 550 q 276 551 265 551 l 297 551 q 297 624 297 589 q 296 703 297 658 q 259 703 278 703 q 218 701 240 703 m 296 274 l 296 317 q 296 365 296 338 q 297 426 296 393 l 243 426 l 221 426 l 225 290 q 193 293 211 292 q 152 294 176 294 q 92 294 128 294 l 92 331 q 92 372 92 347 q 93 424 92 396 l 8 422 q 10 453 10 435 q 10 493 10 468 q 7 553 10 518 q 31 551 17 551 l 93 551 q 93 621 93 588 q 92 699 93 654 l 14 697 l 14 726 q 14 767 14 742 q 13 828 14 792 q 39 826 25 826 l 90 826 l 88 956 l 122 956 q 163 956 139 956 q 219 957 188 956 q 218 917 218 939 l 218 826 l 294 828 q 294 899 294 864 q 292 971 293 935 q 325 969 306 969 q 367 969 342 969 q 425 972 392 969 q 424 929 424 953 l 424 831 l 510 833 q 508 804 510 822 q 506 765 507 789 q 507 706 506 740 l 424 706 l 425 553 l 514 556 q 513 526 513 544 q 512 487 513 511 q 513 426 511 463 l 486 426 q 459 427 475 426 q 426 428 443 428 l 431 274 q 399 275 418 275 q 357 275 382 275 q 296 274 332 275 z "},"$":{"ha":506,"x_min":3,"x_max":501,"o":"m 344 -47 q 264 -45 297 -46 q 210 -44 231 -44 l 169 -44 q 174 27 172 -4 q 175 78 175 58 q 40 176 78 99 q 10 383 3 253 q 58 379 31 382 q 203 371 107 375 q 208 250 192 289 q 258 211 224 211 q 313 289 313 211 q 289 357 313 325 q 197 422 265 389 q 107 478 143 450 q 49 537 71 506 q 19 603 28 568 q 10 683 10 639 q 53 822 10 768 q 178 890 96 875 q 174 990 175 957 q 171 1022 172 1010 q 251 1022 218 1022 q 306 1024 285 1022 q 344 1025 331 1024 l 336 886 q 457 792 419 863 q 486 586 494 721 q 438 589 465 588 q 379 592 414 590 q 300 594 344 593 q 296 710 310 667 q 250 754 282 754 q 199 675 199 754 q 222 607 199 636 q 299 554 246 578 q 404 496 364 525 q 466 436 444 467 q 494 372 488 406 q 501 301 501 339 q 458 149 501 201 q 342 79 415 97 q 342 28 342 51 q 343 -12 342 4 q 344 -47 343 -32 z "},"%":{"ha":772,"x_min":7,"x_max":765,"o":"m 581 72 q 615 105 604 72 q 626 232 626 138 q 616 360 626 324 q 581 396 606 396 q 546 361 557 396 q 535 242 535 326 q 546 107 535 142 q 581 72 557 72 m 579 -18 q 492 0 528 -18 q 435 53 457 18 q 405 136 414 88 q 396 247 396 185 q 407 344 396 300 q 441 422 418 389 q 499 472 464 454 q 582 490 535 490 q 667 472 632 490 q 723 421 701 454 q 755 340 744 388 q 765 236 765 293 q 752 117 765 165 q 715 38 739 68 q 656 -5 690 8 q 579 -18 621 -18 m 189 -10 q 152 -5 169 -7 q 122 -1 135 -3 q 96 0 107 0 q 303 417 215 238 q 451 719 392 597 q 569 967 521 863 q 609 963 592 964 q 639 961 626 961 l 665 961 q 522 675 585 801 q 410 451 458 549 q 326 281 361 353 q 267 157 292 208 q 189 -10 210 38 m 190 575 q 210 582 201 575 q 225 607 219 589 q 233 657 231 625 q 236 739 236 689 q 226 862 236 826 q 190 897 215 897 q 154 860 165 897 q 143 743 143 822 q 146 662 143 694 q 154 610 149 629 q 169 583 160 590 q 190 575 178 575 m 189 483 q 47 556 86 483 q 7 756 7 629 q 53 929 7 865 q 192 993 99 993 q 330 926 286 993 q 374 735 374 860 q 360 615 374 664 q 323 538 347 567 q 265 496 299 508 q 189 483 231 483 z "},"&":{"ha":667,"x_min":11,"x_max":669,"o":"m 236 721 q 265 585 236 653 q 316 655 296 617 q 336 746 336 693 q 288 829 336 829 q 250 799 264 829 q 236 721 236 769 m 296 125 q 379 169 343 125 q 302 257 339 214 q 233 343 265 300 q 214 299 221 322 q 207 247 207 275 q 229 159 207 193 q 296 125 251 125 m 268 -33 q 160 -14 207 -33 q 79 40 113 6 q 28 124 46 75 q 11 229 11 172 q 22 312 11 275 q 50 378 32 349 q 92 433 68 408 q 143 481 117 458 q 90 603 108 543 q 72 724 72 664 q 129 915 72 843 q 297 986 186 986 q 388 968 349 986 q 452 919 426 950 q 491 846 478 888 q 504 757 504 804 q 490 653 504 699 q 451 573 475 608 q 398 509 428 538 q 338 454 368 481 q 387 390 361 422 q 444 322 413 357 q 469 490 461 393 q 538 478 507 483 q 590 471 568 474 q 636 465 615 467 q 578 185 622 292 l 669 99 q 643 69 658 86 q 564 -18 615 40 l 494 50 q 392 -14 449 6 q 268 -33 335 -33 z "},"'":{"ha":182,"x_min":15,"x_max":167,"o":"m 28 643 q 26 714 28 668 q 23 817 25 753 q 15 979 21 882 q 53 978 31 978 q 167 978 90 975 q 160 890 164 940 q 154 785 157 847 q 149 643 151 724 q 115 644 133 644 q 78 644 100 644 q 28 643 56 644 z "},"(":{"ha":347,"x_min":29,"x_max":343,"o":"m 174 -181 q 109 -39 136 -114 q 65 113 82 36 q 38 268 47 190 q 29 421 29 346 q 39 586 29 501 q 68 752 49 671 q 117 906 88 833 q 188 1038 147 979 q 256 1015 226 1024 q 304 1000 285 1007 q 343 989 328 993 q 252 720 281 867 q 224 422 224 574 q 251 158 224 300 q 340 -135 278 15 q 270 -152 300 -144 q 218 -167 240 -160 q 174 -181 193 -174 z "},")":{"ha":347,"x_min":4,"x_max":318,"o":"m 174 -194 q 129 -181 154 -187 q 76 -165 107 -174 q 7 -147 46 -157 q 94 145 64 -6 q 124 429 124 296 q 95 730 124 582 q 4 1003 67 878 q 46 1014 21 1007 q 95 1030 65 1021 q 164 1051 125 1039 q 233 917 204 992 q 281 762 263 843 q 309 597 300 681 q 318 435 318 514 q 310 278 318 358 q 283 116 301 197 q 238 -44 265 35 q 174 -194 211 -122 z "},"*":{"ha":371,"x_min":4,"x_max":367,"o":"m 142 543 q 57 588 88 572 q 26 601 40 596 q 72 686 56 654 q 96 733 89 718 q 53 740 71 738 q 25 743 36 742 q 4 746 11 744 q 14 797 10 774 q 21 836 18 819 q 25 871 24 856 q 85 852 61 860 q 125 840 110 844 q 121 901 122 875 q 117 943 119 926 l 113 976 q 167 976 142 975 q 211 978 192 976 q 251 981 233 979 q 245 922 247 947 q 240 878 243 896 q 238 840 238 857 q 317 865 289 854 q 344 875 332 871 q 352 822 347 846 q 360 781 357 797 q 367 744 364 760 q 314 739 336 742 q 276 733 292 736 q 306 675 293 700 q 328 635 318 650 q 347 603 339 615 q 298 583 319 592 q 261 567 276 574 q 232 553 244 560 q 207 630 218 597 q 188 682 196 663 q 167 624 176 650 q 153 581 158 599 q 142 543 146 560 z "},"+":{"ha":408,"x_min":13,"x_max":397,"o":"m 131 193 q 133 288 132 242 q 133 378 133 335 q 81 377 103 378 q 44 376 60 376 l 14 376 q 15 444 15 417 q 14 490 14 472 q 13 522 13 510 q 76 520 46 521 q 135 519 107 519 q 134 597 135 561 q 133 657 133 632 l 133 710 q 210 707 182 707 q 253 707 238 707 l 276 707 q 274 606 275 653 q 274 518 274 560 l 364 518 q 397 519 382 518 q 394 444 394 472 q 393 401 393 417 q 394 376 393 383 q 333 378 364 378 q 274 378 301 378 q 274 297 274 331 q 275 240 274 264 q 276 194 275 214 q 207 194 235 194 q 163 193 179 193 l 131 193 z "},",":{"ha":250,"x_min":14,"x_max":232,"o":"m 92 -151 q 58 -126 72 -137 q 33 -108 43 -115 q 14 -93 22 -100 q 63 -36 46 -61 q 86 4 79 -11 q 40 42 56 15 q 25 101 25 69 q 54 180 25 150 q 129 210 83 210 q 203 175 175 210 q 232 85 232 140 q 92 -151 232 -31 z "},"-":{"ha":315,"x_min":14,"x_max":301,"o":"m 15 374 q 15 446 15 417 q 14 494 14 475 l 14 529 q 140 528 86 528 q 231 528 194 528 l 301 528 q 299 448 299 478 q 299 401 299 418 l 299 374 q 184 375 236 375 q 94 375 132 375 q 15 374 50 375 z "},".":{"ha":239,"x_min":17,"x_max":222,"o":"m 118 -6 q 41 30 65 -6 q 17 113 17 65 q 45 197 17 165 q 119 228 74 228 q 196 194 169 228 q 222 113 222 161 q 192 22 222 50 q 118 -6 163 -6 z "},"/":{"ha":439,"x_min":-3,"x_max":442,"o":"m -3 -181 q 52 50 25 -64 q 104 270 79 164 q 152 474 129 376 q 194 656 175 572 q 279 1024 240 853 q 355 1022 324 1022 q 406 1022 386 1022 q 442 1024 428 1022 q 310 474 364 701 q 224 100 257 246 q 161 -181 185 -71 q 89 -179 119 -179 q 38 -179 58 -179 q -3 -181 13 -179 z "},":":{"ha":254,"x_min":22,"x_max":232,"o":"m 125 351 q 49 387 75 351 q 22 469 22 422 q 53 555 22 524 q 126 586 83 586 q 202 553 175 586 q 229 469 229 521 q 199 379 229 407 q 125 351 169 351 m 126 -15 q 51 19 78 -15 q 24 103 24 54 q 53 186 24 153 q 129 219 83 219 q 203 188 174 219 q 232 103 232 156 q 203 15 232 44 q 126 -15 174 -15 z "},";":{"ha":261,"x_min":14,"x_max":239,"o":"m 135 346 q 59 379 88 346 q 31 463 31 413 q 60 549 31 515 q 136 582 90 582 q 210 549 181 582 q 239 464 239 517 q 210 376 239 406 q 135 346 181 346 m 92 -158 q 60 -135 74 -146 q 36 -117 47 -124 q 14 -101 24 -108 q 61 -43 44 -69 q 86 0 78 -17 q 46 38 61 11 q 31 99 31 64 q 58 176 31 144 q 138 208 85 208 q 214 172 189 208 q 239 88 239 136 q 196 -43 239 19 q 92 -158 153 -106 z "},"<":{"ha":364,"x_min":13,"x_max":350,"o":"m 346 163 q 250 226 303 192 q 144 295 206 256 q 13 379 83 335 q 14 410 14 390 l 14 526 q 103 581 51 549 q 208 648 146 608 q 350 742 271 688 q 347 703 349 728 q 345 647 346 682 q 346 564 344 613 q 289 533 321 550 q 224 497 261 518 q 138 450 186 476 q 222 400 169 431 q 350 332 275 369 q 347 293 349 318 q 345 240 346 272 q 346 163 344 207 z "},"=":{"ha":392,"x_min":17,"x_max":375,"o":"m 375 488 q 228 490 293 489 q 115 490 163 490 l 17 490 q 19 566 18 538 q 19 610 19 594 l 19 633 q 150 632 86 632 q 264 632 214 632 l 374 632 l 374 518 q 375 488 374 499 m 19 272 l 19 296 q 19 339 19 311 q 17 415 18 367 l 115 415 q 228 415 163 415 q 375 418 293 415 q 374 386 374 406 l 374 272 q 264 274 322 274 q 150 274 214 274 q 19 272 86 274 z "},">":{"ha":363,"x_min":14,"x_max":350,"o":"m 18 160 q 17 284 19 243 q 14 333 15 325 q 140 405 85 374 q 218 451 194 436 q 142 499 178 478 q 78 535 106 519 q 18 567 44 551 q 17 649 18 615 q 17 703 17 682 q 15 742 15 728 q 160 644 99 685 q 264 576 222 604 q 349 524 313 544 q 348 454 347 482 q 349 411 349 426 q 350 382 349 392 q 217 296 278 336 q 113 225 157 256 q 18 160 60 189 z "},"?":{"ha":525,"x_min":-3,"x_max":513,"o":"m 222 -14 q 126 22 157 -14 q 94 114 94 58 q 130 204 94 172 q 218 236 165 236 q 311 202 281 236 q 342 110 342 168 q 309 19 342 53 q 222 -14 276 -14 m 126 286 q 126 378 126 336 q 125 453 125 421 q 124 519 124 489 q 214 531 178 521 q 272 563 250 542 q 301 615 293 583 q 310 689 310 646 q 256 833 310 833 q 207 778 215 833 q 206 624 199 724 l 17 617 q 59 896 -3 807 q 272 985 121 985 q 378 965 333 985 q 453 908 424 944 q 498 822 483 872 q 513 713 513 772 q 499 590 513 642 q 458 502 485 539 q 395 442 432 465 q 313 407 358 419 l 313 326 q 314 289 313 307 q 238 289 272 289 q 178 288 203 289 q 126 286 149 286 z "},"@":{"ha":863,"x_min":22,"x_max":840,"o":"m 483 325 q 394 276 422 310 q 365 196 365 243 q 379 144 365 164 q 418 125 393 125 q 483 261 483 125 l 483 325 m 543 -172 q 313 -176 411 -200 q 151 -85 215 -153 q 54 92 86 -17 q 22 347 22 201 q 51 577 22 476 q 132 747 79 678 q 260 851 185 815 q 432 888 336 888 q 615 851 538 888 q 742 745 692 814 q 816 577 792 676 q 840 354 840 478 q 830 180 840 250 q 799 68 819 110 q 749 9 779 26 q 678 -8 718 -8 q 599 17 628 -8 q 557 92 569 43 q 483 17 531 36 q 389 -3 436 -3 q 306 13 340 -3 q 249 56 271 29 q 217 117 228 83 q 207 189 207 151 q 269 337 207 281 q 475 408 331 393 l 475 426 q 474 443 475 433 q 474 460 474 453 q 461 547 471 522 q 431 571 451 571 q 394 540 403 571 q 389 436 385 508 q 346 435 371 436 q 296 433 325 433 q 231 429 267 432 q 233 539 224 488 q 269 628 243 590 q 337 688 294 667 q 439 710 379 710 q 528 691 490 710 q 592 640 567 672 q 631 564 618 608 q 646 469 643 519 q 648 401 647 439 q 649 327 649 364 q 649 258 650 290 q 649 206 649 225 q 685 103 646 103 q 706 113 697 103 q 722 149 715 122 q 731 225 728 176 q 733 351 733 274 q 663 678 733 567 q 433 790 592 790 q 208 675 286 790 q 129 349 129 560 q 151 140 129 229 q 219 -5 172 50 q 342 -78 267 -60 q 525 -72 418 -96 q 531 -101 528 -86 q 536 -133 533 -115 q 543 -172 539 -151 z "},"A":{"ha":561,"x_min":3,"x_max":558,"o":"m 271 814 q 249 624 264 753 q 218 322 235 496 l 244 322 q 278 322 258 322 q 325 322 297 321 q 302 538 315 418 q 271 814 289 658 m 3 21 q 42 276 19 132 q 85 575 60 400 q 139 969 110 750 q 244 974 196 972 q 329 975 293 975 l 407 975 q 451 668 426 831 q 499 351 472 529 q 558 -21 526 172 q 504 -19 535 -19 q 441 -20 478 -19 q 360 -22 404 -21 q 356 24 358 -4 q 349 83 353 47 q 342 167 346 118 q 283 167 318 167 q 203 168 249 168 l 190 18 q 144 19 171 18 q 86 20 121 19 q 3 21 51 21 z "},"B":{"ha":550,"x_min":35,"x_max":543,"o":"m 225 561 q 349 697 349 557 q 320 805 349 769 q 225 835 292 840 l 225 561 m 231 136 q 322 162 289 133 q 356 272 356 190 q 226 421 356 421 l 231 136 m 46 4 q 44 293 46 138 q 40 599 43 426 q 35 963 38 771 q 228 983 143 983 q 455 916 385 983 q 525 715 525 849 q 489 583 525 636 q 394 507 453 531 q 504 420 465 481 q 543 268 543 360 q 519 141 543 193 q 451 56 496 89 q 340 8 406 24 q 192 -7 275 -7 q 122 -4 158 -7 q 46 4 86 -1 z "},"C":{"ha":563,"x_min":22,"x_max":549,"o":"m 289 -24 q 167 4 218 -24 q 85 92 117 32 q 38 249 53 153 q 22 481 22 344 q 85 865 22 739 q 300 990 149 990 q 418 961 371 990 q 493 878 465 932 q 532 751 521 825 q 542 590 543 678 q 458 591 494 590 q 394 593 421 592 q 340 596 364 594 q 338 706 340 661 q 331 779 336 751 q 315 819 325 807 q 290 832 306 832 q 260 813 272 832 q 240 753 247 794 q 231 644 233 711 q 229 482 228 578 q 232 315 229 382 q 242 208 235 247 q 262 151 250 168 q 292 135 274 135 q 315 145 304 135 q 333 185 326 156 q 343 266 340 214 q 343 401 346 318 q 421 404 383 403 q 486 406 458 406 l 547 406 q 531 198 549 281 q 478 66 513 115 q 396 -3 444 17 q 289 -24 347 -24 z "},"D":{"ha":567,"x_min":35,"x_max":544,"o":"m 35 -6 q 36 354 36 181 q 36 664 36 528 q 35 963 36 822 q 110 973 75 969 q 178 976 146 976 q 348 945 278 976 q 462 851 418 914 q 525 690 506 788 q 544 461 544 593 q 522 237 544 328 q 453 89 499 146 q 340 7 408 32 q 182 -18 272 -18 q 35 -6 114 -18 m 229 136 q 276 142 256 133 q 312 186 297 151 q 334 289 326 221 q 342 474 342 357 q 313 746 342 668 q 221 814 285 824 q 222 567 221 688 q 225 350 224 446 q 229 136 226 238 z "},"E":{"ha":450,"x_min":35,"x_max":433,"o":"m 46 4 q 43 274 44 125 q 40 577 42 401 q 35 964 38 753 q 126 965 71 964 q 248 967 174 967 q 428 969 322 967 l 428 918 q 428 859 428 893 q 429 785 428 825 q 361 783 397 783 q 294 782 331 782 q 222 781 257 782 l 222 721 q 222 650 222 692 q 224 556 222 608 q 277 555 232 556 q 401 557 322 554 l 401 507 q 401 451 401 483 q 403 381 401 419 l 351 381 q 296 381 328 381 q 226 382 264 382 q 228 284 228 335 q 232 179 229 233 q 288 176 257 178 q 351 174 314 175 q 433 171 388 172 q 432 126 432 151 q 431 72 431 104 q 431 -4 431 39 q 317 -1 378 -3 q 194 1 264 0 q 46 4 125 3 z "},"F":{"ha":444,"x_min":35,"x_max":431,"o":"m 46 3 q 44 272 46 122 q 40 576 43 400 q 35 964 38 753 q 151 965 88 964 q 277 967 206 967 q 431 969 349 967 q 429 922 429 949 l 429 783 l 376 783 q 312 783 350 783 q 224 781 274 782 l 224 713 q 224 627 224 678 q 225 510 224 576 q 286 510 240 510 q 410 513 332 510 l 410 461 q 410 403 410 438 q 411 329 410 369 q 365 331 392 331 q 308 331 342 331 q 228 329 274 331 l 233 4 l 99 4 q 46 3 69 4 z "},"G":{"ha":569,"x_min":22,"x_max":553,"o":"m 290 -22 q 176 2 226 -22 q 92 85 126 26 q 40 241 58 143 q 22 486 22 339 q 86 858 22 733 q 292 983 150 983 q 408 955 360 983 q 487 874 457 926 q 528 750 517 822 q 536 592 540 678 q 457 593 493 593 q 393 593 425 593 q 346 594 361 593 q 335 773 349 719 q 289 826 321 826 q 237 746 251 826 q 222 483 222 665 q 227 307 222 376 q 241 197 232 238 q 265 141 250 157 q 299 125 279 125 q 345 175 332 125 q 356 346 358 225 q 322 344 336 344 q 296 343 307 344 q 272 342 282 342 l 272 383 q 272 433 272 403 q 271 499 272 463 l 364 499 q 453 499 404 499 q 546 500 501 499 q 538 239 553 340 q 489 79 522 138 q 405 -1 456 21 q 290 -22 354 -22 z "},"H":{"ha":557,"x_min":35,"x_max":524,"o":"m 333 -26 q 335 71 335 17 q 335 181 335 117 q 333 324 335 244 q 290 324 315 324 q 225 322 265 324 l 229 24 q 175 25 204 25 q 115 24 150 25 q 40 22 81 24 q 39 275 39 133 q 38 565 38 397 q 35 943 38 733 l 75 943 q 132 943 97 943 q 219 944 167 943 q 221 817 219 888 q 222 672 221 756 q 224 485 222 588 q 263 484 236 485 q 332 483 289 483 q 331 719 332 593 q 328 988 329 846 l 378 988 q 437 988 401 988 q 519 989 472 988 l 519 694 q 520 372 519 556 q 524 -28 521 188 q 472 -25 501 -26 q 412 -24 447 -24 q 333 -26 376 -25 z "},"I":{"ha":288,"x_min":46,"x_max":242,"o":"m 51 -1 l 51 279 q 50 585 51 410 q 46 964 49 760 l 94 964 q 153 964 118 964 q 235 965 188 964 q 236 669 235 828 q 238 361 238 535 q 242 -1 239 188 l 193 -1 l 51 -1 z "},"J":{"ha":503,"x_min":11,"x_max":485,"o":"m 242 -15 q 65 60 119 -15 q 11 281 11 135 q 15 368 11 321 q 29 458 19 415 l 71 454 q 123 449 92 451 q 197 443 154 446 q 189 376 192 410 q 186 313 186 342 q 199 194 186 226 q 239 161 213 161 q 264 172 253 161 q 282 215 275 183 q 293 303 289 247 q 297 450 297 360 q 294 578 297 515 q 286 703 292 640 q 272 832 281 767 q 253 971 264 897 q 301 975 274 972 q 359 981 325 978 q 438 988 393 983 q 472 716 460 856 q 485 443 485 576 q 474 247 485 332 q 434 103 463 161 q 359 15 406 44 q 242 -15 313 -15 z "},"K":{"ha":576,"x_min":35,"x_max":575,"o":"m 371 -35 q 322 175 343 89 q 285 317 300 261 q 247 217 261 257 q 225 153 232 176 q 226 94 225 119 q 226 51 226 68 q 228 18 226 32 l 81 18 q 35 17 53 18 q 36 388 36 219 q 36 682 36 557 q 35 944 36 826 q 118 943 82 943 q 178 943 154 943 l 226 943 q 224 663 224 788 q 224 433 224 538 q 292 677 264 574 q 340 851 321 781 q 378 990 363 933 q 460 987 424 988 q 522 985 497 986 q 574 983 551 983 q 478 690 518 814 q 417 496 439 565 q 481 281 451 376 q 531 117 510 185 q 575 -24 556 38 q 497 -27 533 -26 q 432 -31 460 -28 q 371 -35 399 -33 z "},"L":{"ha":433,"x_min":35,"x_max":433,"o":"m 43 6 q 42 268 43 121 q 39 568 40 394 q 35 957 38 742 q 81 956 53 956 q 140 956 104 956 q 224 957 175 956 l 224 786 q 225 546 224 694 q 229 176 226 397 q 381 172 326 172 l 433 172 q 432 100 432 132 q 432 46 432 68 l 432 0 q 313 2 379 1 q 186 4 247 3 q 43 6 115 6 z "},"M":{"ha":808,"x_min":22,"x_max":786,"o":"m 22 18 q 33 282 28 136 q 43 575 38 407 q 53 942 49 743 l 132 942 q 217 943 168 942 q 322 947 267 944 q 343 781 332 869 q 366 606 353 704 q 396 401 379 508 q 435 667 414 513 q 475 988 457 822 q 564 985 518 986 q 653 982 604 983 q 753 979 703 981 q 758 708 754 861 q 768 395 761 578 q 786 -17 775 213 q 724 -19 757 -18 q 661 -22 696 -21 q 590 -25 626 -24 q 592 201 592 76 q 589 454 592 308 q 581 778 586 600 q 561 652 572 722 q 538 503 550 582 q 515 340 526 424 q 494 174 504 257 q 432 175 464 174 q 370 176 404 176 q 303 179 336 176 q 282 328 294 242 q 256 504 271 400 q 221 742 242 608 q 220 595 221 679 q 219 415 219 511 q 219 217 219 319 q 221 14 219 114 q 153 15 188 14 q 88 17 124 17 q 22 18 53 17 z "},"N":{"ha":592,"x_min":35,"x_max":557,"o":"m 39 22 q 40 267 40 129 q 39 553 40 385 q 35 933 38 721 q 85 936 57 935 q 143 939 108 938 q 219 942 178 940 q 268 769 242 864 q 324 581 292 689 q 396 349 356 474 q 386 617 393 453 q 365 989 379 782 q 411 988 386 989 q 465 985 433 986 q 538 986 497 985 q 542 722 539 872 q 548 410 544 593 q 557 -7 551 226 q 514 -12 539 -10 q 458 -18 492 -15 q 381 -24 425 -21 q 332 135 360 44 q 274 320 308 211 q 199 567 240 429 q 204 330 200 472 q 218 19 208 188 q 168 21 196 19 q 111 22 144 21 q 39 22 78 22 z "},"O":{"ha":582,"x_min":22,"x_max":560,"o":"m 293 125 q 320 140 308 125 q 340 194 332 154 q 351 306 347 235 q 354 490 354 376 q 351 656 354 590 q 339 760 347 721 q 319 816 331 800 q 290 832 307 832 q 260 814 272 832 q 241 756 249 796 q 231 650 233 715 q 228 492 228 585 q 231 310 228 381 q 242 198 235 239 q 263 141 250 157 q 293 125 275 125 m 290 -22 q 164 10 215 -22 q 81 105 113 42 q 36 263 50 168 q 22 482 22 357 q 34 678 22 586 q 76 838 46 769 q 158 944 106 906 q 290 983 210 983 q 424 947 372 983 q 507 844 476 910 q 549 686 538 778 q 560 483 560 594 q 542 242 558 339 q 492 86 525 144 q 408 3 458 28 q 290 -22 358 -22 z "},"P":{"ha":538,"x_min":36,"x_max":528,"o":"m 221 797 q 221 708 221 750 q 221 621 221 667 q 221 519 221 575 q 222 385 221 463 q 269 399 249 388 q 305 433 290 410 q 327 495 319 457 q 335 590 335 533 q 307 747 335 694 q 221 797 279 800 m 36 7 q 39 263 38 117 q 40 562 40 386 q 38 958 39 738 q 97 963 68 961 q 151 965 125 965 q 440 872 353 965 q 528 596 528 778 q 448 332 528 425 q 225 233 368 239 l 231 8 q 176 10 207 10 q 115 9 150 10 q 36 7 79 8 z "},"Q":{"ha":582,"x_min":22,"x_max":572,"o":"m 290 117 q 319 129 307 117 q 338 179 331 142 q 350 285 346 217 q 354 465 354 353 q 350 652 354 581 q 338 763 346 724 q 317 817 329 803 q 290 831 306 831 q 261 812 274 831 q 242 750 249 793 q 231 637 235 707 q 228 465 228 567 q 231 294 228 361 q 242 187 235 226 q 262 132 250 147 q 290 117 274 117 m 413 -189 q 365 -89 386 -132 q 332 -21 344 -46 q 285 -25 308 -25 q 87 97 151 -25 q 22 471 22 219 q 83 853 22 726 q 285 979 144 979 q 409 954 357 979 q 494 869 461 929 q 544 708 528 808 q 560 457 560 607 q 535 215 560 313 q 465 60 510 118 q 507 -5 488 24 q 542 -54 526 -33 q 572 -97 558 -79 q 496 -140 526 -124 q 446 -168 465 -157 q 413 -189 424 -181 z "},"R":{"ha":554,"x_min":36,"x_max":564,"o":"m 225 476 q 310 517 276 479 q 344 647 344 556 q 319 775 344 728 q 239 822 294 822 q 233 822 236 822 q 228 821 231 821 l 221 821 q 222 688 221 750 q 224 578 222 625 q 225 476 225 522 m 368 -26 q 340 75 356 18 q 308 193 326 124 q 264 351 289 263 q 244 348 254 349 q 225 346 235 347 q 226 219 225 301 q 231 19 228 138 l 175 19 q 113 19 149 19 q 36 18 78 18 q 39 272 38 128 q 40 570 40 396 q 38 965 39 744 q 136 980 90 975 q 222 985 182 985 q 464 901 386 985 q 542 661 542 817 q 510 507 542 568 q 424 410 479 446 q 467 277 432 382 q 564 -11 501 172 q 513 -15 542 -12 q 451 -21 488 -18 q 368 -26 414 -24 z "},"S":{"ha":535,"x_min":4,"x_max":526,"o":"m 269 -21 q 63 71 121 -21 q 21 346 4 163 q 74 344 44 346 q 135 342 99 343 q 215 342 171 342 q 220 181 206 232 q 271 131 235 131 q 310 153 297 131 q 324 238 324 176 q 318 283 324 261 q 297 326 313 304 q 255 374 282 349 q 185 429 228 399 q 106 497 138 463 q 53 567 74 531 q 25 644 33 604 q 17 732 17 685 q 35 847 17 799 q 88 925 54 894 q 167 970 121 956 q 271 985 214 985 q 468 894 410 985 q 507 625 526 803 q 449 629 479 626 q 388 633 422 632 q 318 636 354 635 q 315 788 331 743 q 268 833 299 833 q 227 804 240 833 q 214 722 214 775 q 220 674 214 697 q 242 630 226 651 q 284 585 258 608 q 350 536 310 563 q 431 472 397 504 q 484 406 464 440 q 513 331 504 371 q 522 242 522 292 q 503 119 522 169 q 451 38 485 69 q 372 -7 418 7 q 269 -21 325 -21 z "},"T":{"ha":489,"x_min":7,"x_max":482,"o":"m 8 785 l 8 826 q 8 883 8 849 q 7 965 8 917 l 121 965 q 268 966 179 965 q 482 969 357 967 q 481 921 482 949 q 478 863 479 897 q 479 785 478 829 l 440 785 q 395 785 421 785 q 338 786 369 786 q 338 663 338 735 q 338 496 338 592 q 340 276 339 400 q 343 -6 340 151 l 296 -6 q 237 -6 272 -6 q 154 -7 201 -6 l 154 208 q 153 458 154 313 q 151 786 153 604 l 8 785 z "},"U":{"ha":557,"x_min":19,"x_max":540,"o":"m 281 -19 q 158 13 207 -19 q 77 113 108 46 q 33 279 46 179 q 19 514 19 379 q 49 951 19 744 q 92 944 67 949 q 148 937 114 942 q 231 926 182 932 q 212 722 218 810 q 206 557 206 633 q 211 367 206 443 q 227 247 217 292 q 251 184 238 203 q 279 165 264 165 q 306 176 294 165 q 326 222 318 188 q 339 319 335 256 q 343 488 343 383 q 333 725 343 600 q 307 975 324 850 q 358 978 329 975 q 497 990 407 979 q 528 741 517 868 q 540 496 540 614 q 526 263 540 360 q 481 103 513 165 q 401 10 450 40 q 281 -19 351 -19 z "},"V":{"ha":529,"x_min":3,"x_max":528,"o":"m 118 -15 q 72 379 93 204 q 35 678 50 554 q 3 932 17 822 q 77 932 43 932 q 138 933 111 932 q 193 935 168 933 q 212 667 203 792 q 229 442 221 543 q 245 264 238 340 q 257 142 253 188 q 290 497 276 343 q 314 757 304 651 q 331 972 324 881 q 413 972 376 971 q 475 972 450 972 q 528 974 504 972 q 465 522 490 708 q 424 214 439 336 q 394 -21 406 72 q 310 -21 356 -22 q 221 -19 271 -21 q 118 -15 171 -18 z "},"W":{"ha":831,"x_min":10,"x_max":821,"o":"m 476 -36 q 442 364 457 196 q 415 642 426 532 q 374 348 390 465 q 347 158 357 231 q 331 25 336 74 q 213 31 260 29 q 138 33 165 32 l 86 33 q 56 428 69 258 q 32 713 43 597 q 10 943 19 847 l 214 949 q 221 633 217 765 q 228 411 225 500 q 235 236 232 307 q 284 580 265 450 q 314 781 303 710 q 332 899 326 864 q 403 899 372 899 q 457 897 435 899 q 503 894 482 896 q 559 432 535 615 q 596 158 583 249 q 608 550 604 393 q 615 801 613 707 q 619 976 618 913 q 697 972 660 974 q 761 971 733 971 q 821 971 793 969 q 784 537 799 722 q 760 225 769 351 q 742 -29 749 78 q 536 -37 596 -37 q 476 -36 500 -37 z "},"X":{"ha":593,"x_min":3,"x_max":590,"o":"m 224 18 q 60 26 114 25 q 3 28 26 28 q 86 294 53 185 q 139 465 119 404 q 101 617 121 538 q 63 769 85 685 q 18 938 40 853 q 65 939 38 938 q 127 941 89 940 q 221 944 165 942 q 238 851 228 907 q 259 735 246 804 q 290 572 272 665 q 319 749 307 672 q 340 879 332 826 q 356 986 350 940 q 441 983 401 983 q 508 983 481 983 l 569 983 q 493 677 524 801 q 446 481 463 553 q 510 256 483 349 q 556 104 538 163 q 590 -8 576 35 q 486 -13 528 -11 q 418 -18 444 -15 q 369 -22 388 -21 l 299 374 q 267 234 281 299 q 243 121 253 169 q 224 18 232 65 z "},"Y":{"ha":565,"x_min":3,"x_max":564,"o":"m 190 -18 q 192 26 192 -3 q 192 94 192 51 q 189 203 192 136 q 150 369 175 267 q 92 597 128 457 q 3 939 56 736 q 42 940 15 939 q 104 942 65 942 q 207 946 143 943 q 228 811 215 886 q 253 660 239 747 q 286 471 267 574 q 311 615 297 536 q 338 774 322 683 q 369 974 353 865 q 414 971 388 972 q 474 969 438 969 q 564 969 511 969 q 513 765 540 882 q 453 524 488 665 q 378 206 419 383 l 378 167 q 378 99 378 143 q 382 -17 379 56 q 343 -15 368 -15 q 284 -16 321 -15 q 190 -18 247 -17 z "},"Z":{"ha":468,"x_min":17,"x_max":451,"o":"m 449 -6 q 129 3 242 0 q 17 4 64 4 q 18 88 18 53 q 18 147 18 124 l 18 190 q 172 566 114 418 q 254 779 231 714 q 158 777 201 778 q 85 775 115 776 q 21 772 49 774 l 21 921 q 19 961 21 946 q 213 965 132 964 q 346 968 293 967 q 447 971 407 969 q 449 894 449 931 q 450 831 450 858 l 450 771 q 300 392 357 540 q 219 179 243 244 q 309 175 267 176 q 383 174 351 174 q 451 174 419 172 q 449 83 449 118 q 449 29 449 49 l 449 -6 z "},"[":{"ha":347,"x_min":50,"x_max":332,"o":"m 326 -172 q 250 -169 292 -171 q 165 -168 214 -168 q 56 -168 115 -168 l 56 117 q 54 485 56 263 q 50 1017 53 707 l 111 1017 q 194 1017 143 1017 q 319 1019 244 1017 l 319 978 q 319 928 319 957 q 322 861 319 899 l 300 861 q 274 860 289 861 q 240 858 260 860 q 238 565 238 714 q 238 431 238 501 q 238 287 238 360 q 238 141 238 214 q 240 0 239 68 q 264 -1 250 -1 q 292 -3 275 -3 q 332 -3 310 -3 q 329 -43 331 -18 q 327 -96 328 -64 q 326 -172 326 -128 z "},"\\":{"ha":439,"x_min":-3,"x_max":442,"o":"m 442 -181 q 401 -179 426 -179 q 349 -179 381 -179 q 278 -181 318 -179 q 215 100 254 -71 q 128 474 182 247 q -3 1024 75 700 q 35 1022 11 1022 q 85 1022 54 1022 q 160 1024 115 1022 q 244 656 199 853 q 286 474 264 572 q 333 270 308 376 q 385 50 358 164 q 442 -181 413 -64 z "},"]":{"ha":347,"x_min":19,"x_max":296,"o":"m 25 -171 q 22 -49 22 -89 q 19 -1 21 -8 q 74 -1 51 -1 q 108 0 96 0 q 109 146 108 64 q 110 316 110 228 q 109 492 110 404 q 108 656 108 581 q 108 790 108 732 q 107 874 107 847 q 57 874 79 875 q 22 874 35 874 q 24 983 24 940 q 24 1033 24 1026 q 215 1031 153 1031 q 296 1031 276 1031 q 292 636 293 815 q 290 310 290 457 q 290 44 289 163 q 292 -167 290 -74 q 219 -167 261 -167 q 138 -168 178 -167 q 65 -170 97 -169 q 25 -171 33 -171 z "},"^":{"ha":467,"x_min":7,"x_max":460,"o":"m 460 428 q 421 431 443 429 q 374 433 401 432 q 308 433 346 433 q 289 526 300 474 q 265 635 279 571 q 232 781 251 699 q 198 633 218 724 q 156 425 178 542 q 118 428 140 426 q 7 432 79 431 q 49 564 25 488 q 97 728 68 631 q 164 957 126 826 q 197 956 176 956 q 240 954 214 954 q 303 954 267 954 q 339 822 317 899 q 388 658 358 756 q 460 428 418 560 z "},"_":{"ha":379,"x_min":7,"x_max":372,"o":"m 8 -136 l 8 -25 q 7 10 8 -4 q 153 8 86 8 q 268 8 219 8 l 372 8 q 369 -58 369 -32 q 369 -103 369 -85 l 369 -136 q 230 -135 296 -135 q 115 -135 164 -135 q 8 -136 57 -135 z "},"`":{"ha":551,"x_min":151,"x_max":399,"o":"m 310 731 q 274 774 296 747 q 225 833 254 797 q 151 918 196 868 q 178 938 163 925 q 213 964 192 949 q 265 1003 235 979 q 299 949 279 979 q 399 794 332 894 q 376 781 390 789 q 310 731 353 765 z "},"a":{"ha":515,"x_min":11,"x_max":488,"o":"m 313 265 q 313 293 313 279 q 311 319 313 307 q 218 272 244 308 q 192 190 192 235 q 204 138 192 158 q 246 118 217 118 q 272 125 260 118 q 292 149 283 132 q 307 194 301 165 q 313 265 313 222 m 189 -14 q 61 33 111 -14 q 11 164 11 79 q 87 340 11 278 q 304 414 163 403 q 303 429 303 422 l 303 458 q 290 544 300 521 q 257 568 281 568 q 207 444 204 568 q 160 443 186 443 q 104 442 136 443 q 33 443 72 442 q 43 546 31 499 q 84 628 56 593 q 157 682 113 663 q 264 701 201 701 q 430 635 378 701 q 485 450 482 568 q 488 271 488 354 q 488 124 488 188 q 486 -15 488 49 q 453 -17 472 -17 q 409 -17 436 -17 q 346 -18 382 -18 q 349 13 347 -4 q 350 45 350 26 q 351 86 350 64 q 286 8 331 31 q 189 -14 242 -14 z "},"b":{"ha":561,"x_min":35,"x_max":539,"o":"m 282 111 q 324 171 310 111 q 339 347 339 231 q 326 514 339 454 q 281 574 313 574 q 236 517 250 574 q 222 349 222 460 q 236 166 222 221 q 282 111 250 111 m 38 -21 l 38 213 q 37 514 38 332 q 35 949 36 696 q 79 947 53 947 l 224 947 q 221 853 222 906 q 218 747 219 808 q 215 611 217 686 q 272 678 238 654 q 357 701 307 701 q 494 610 450 701 q 539 344 539 518 q 524 192 539 257 q 481 84 508 128 q 416 19 454 40 q 333 -3 378 -3 q 239 20 278 -3 q 182 86 200 43 q 183 36 182 63 q 185 -19 183 10 l 146 -19 q 100 -20 126 -19 q 38 -21 74 -21 z "},"c":{"ha":529,"x_min":22,"x_max":517,"o":"m 275 -17 q 81 78 139 -17 q 22 347 22 174 q 86 611 22 514 q 282 708 150 708 q 389 685 343 708 q 464 619 435 661 q 505 522 493 578 q 513 401 517 465 q 428 404 463 403 q 369 406 393 406 l 326 406 q 275 572 331 572 q 231 518 244 572 q 217 342 217 464 q 231 178 217 226 q 275 129 246 129 q 315 165 300 129 q 325 290 329 200 l 365 290 q 423 290 388 290 q 514 293 458 290 q 497 144 515 203 q 446 49 478 85 q 369 -2 414 13 q 275 -17 325 -17 z "},"d":{"ha":564,"x_min":22,"x_max":528,"o":"m 282 117 q 305 126 294 117 q 323 162 315 136 q 335 231 331 188 q 340 343 340 275 q 325 519 340 463 q 278 575 310 575 q 236 517 250 575 q 222 347 222 460 q 238 171 222 225 q 282 117 253 117 m 526 -25 l 486 -25 q 438 -24 467 -25 q 374 -24 410 -24 q 375 10 375 -8 q 375 47 375 25 q 376 97 375 69 q 317 19 356 44 q 231 -7 279 -7 q 144 14 183 -7 q 78 78 106 35 q 37 191 51 122 q 22 354 22 260 q 33 494 22 429 q 68 606 44 558 q 129 680 92 653 q 219 707 167 707 q 294 683 263 707 q 346 624 326 660 q 342 760 344 681 q 335 950 340 840 q 374 949 349 949 q 433 949 396 949 q 528 951 469 949 q 525 667 526 822 q 524 356 524 533 q 526 -25 524 179 z "},"e":{"ha":542,"x_min":22,"x_max":521,"o":"m 272 582 q 229 537 243 582 q 213 401 215 492 q 268 402 240 401 q 325 404 296 403 q 314 535 326 489 q 272 582 301 582 m 276 -15 q 152 13 201 -15 q 74 90 103 40 q 34 206 46 139 q 22 353 22 274 q 36 492 22 428 q 80 603 50 556 q 158 678 110 651 q 274 706 206 706 q 399 674 350 706 q 476 588 449 643 q 512 459 503 533 q 515 297 521 385 q 432 296 478 296 q 337 294 392 294 q 213 293 282 294 q 231 159 215 200 q 278 118 246 118 q 333 243 329 118 q 392 242 361 242 q 451 240 418 240 q 521 239 485 240 q 445 51 510 118 q 276 -15 381 -15 z "},"f":{"ha":386,"x_min":10,"x_max":393,"o":"m 375 501 q 346 503 363 503 q 310 503 331 503 q 263 504 289 503 q 262 325 261 414 q 263 164 263 236 q 264 3 263 79 l 214 3 q 158 3 190 3 q 88 1 125 3 q 85 157 86 75 q 83 317 83 228 q 83 504 83 407 l 63 504 l 10 504 q 11 544 11 519 q 11 598 11 565 q 10 676 11 631 q 31 675 19 676 q 53 673 40 674 q 85 672 67 672 l 85 689 q 134 895 86 826 q 286 964 182 964 q 393 950 336 964 l 389 913 q 385 863 386 893 q 382 789 383 833 q 343 793 358 793 q 282 769 299 793 q 264 689 265 744 l 264 667 l 379 665 q 376 621 378 646 q 375 569 375 600 q 375 501 375 539 z "},"g":{"ha":508,"x_min":10,"x_max":532,"o":"m 357 -160 q 236 -90 357 -103 q 194 -128 207 -107 q 181 -169 181 -149 q 203 -216 181 -200 q 261 -232 225 -232 q 329 -213 301 -232 q 357 -160 357 -194 m 258 251 q 301 290 286 251 q 315 421 315 329 q 301 544 315 500 q 258 589 288 589 q 199 421 199 589 q 214 290 199 329 q 258 251 229 251 m 256 -350 q 76 -310 142 -350 q 10 -192 10 -269 q 42 -104 10 -143 q 131 -46 75 -65 q 81 -1 97 -28 q 65 56 65 25 q 138 163 65 115 q 17 429 17 225 q 31 540 17 488 q 76 631 46 592 q 152 694 107 671 q 260 717 197 717 q 270 716 264 717 q 282 715 276 715 q 294 714 288 714 q 310 799 300 744 q 335 938 321 854 q 375 926 350 932 q 427 913 396 921 q 503 894 458 904 q 474 836 489 869 q 440 767 460 808 q 397 674 421 726 q 472 572 447 636 q 496 429 496 507 q 478 297 496 353 q 431 206 461 242 q 358 152 400 169 q 269 135 317 135 q 246 135 257 135 q 224 138 235 135 q 210 110 210 124 q 227 86 210 94 q 286 71 244 78 q 476 3 419 51 q 532 -126 532 -44 q 509 -225 532 -183 q 447 -294 486 -267 q 359 -336 408 -322 q 256 -350 310 -350 z "},"h":{"ha":531,"x_min":36,"x_max":504,"o":"m 36 22 q 38 290 36 144 q 38 581 38 415 q 36 940 39 747 l 81 940 q 136 940 103 940 q 215 942 169 940 q 213 844 214 899 q 210 737 211 799 q 211 601 210 675 q 272 677 235 649 q 363 704 310 706 q 465 651 432 704 q 500 507 497 599 q 503 330 503 422 q 504 158 504 238 q 503 -22 504 67 l 456 -22 q 397 -22 432 -22 q 318 -21 363 -21 q 319 140 319 57 q 319 297 319 211 q 318 467 319 383 q 308 521 317 506 q 278 536 300 536 q 238 510 254 536 q 222 433 222 483 q 221 285 221 358 q 221 153 221 211 l 221 24 l 175 24 q 117 24 151 24 q 36 22 83 24 z "},"i":{"ha":263,"x_min":18,"x_max":246,"o":"m 133 767 q 47 798 75 767 q 18 886 18 829 q 49 968 18 939 q 135 997 79 997 q 217 965 189 997 q 246 885 246 933 q 218 801 246 835 q 133 767 190 767 m 44 1 l 44 158 q 44 374 44 242 q 40 699 43 506 l 86 699 q 144 699 110 699 q 224 700 178 699 l 224 517 q 225 298 224 426 q 229 3 226 169 l 176 3 q 118 2 151 3 q 44 1 85 1 z "},"j":{"ha":264,"x_min":-101,"x_max":246,"o":"m -101 -304 q -99 -258 -100 -285 q -97 -203 -97 -236 q -96 -131 -97 -171 q -78 -133 -86 -132 q -62 -133 -69 -133 q 19 -104 -4 -133 q 43 -17 42 -75 q 45 87 44 31 q 46 203 46 143 q 45 322 46 263 q 44 438 44 382 q 42 699 43 567 l 175 699 q 221 700 201 699 q 225 489 222 606 q 228 253 226 389 q 226 -43 229 117 q 210 -153 225 -104 q 164 -235 196 -201 q 81 -288 132 -269 q -46 -307 29 -307 q -73 -306 -60 -307 q -101 -304 -86 -306 m 131 767 q 43 802 69 767 q 17 883 17 838 q 44 967 17 935 q 132 999 72 999 q 215 968 185 999 q 246 886 246 938 q 215 800 246 833 q 131 767 185 767 z "},"k":{"ha":544,"x_min":35,"x_max":540,"o":"m 342 -28 q 299 135 318 68 q 269 247 281 203 q 235 182 249 210 q 221 156 228 167 q 222 94 221 119 q 222 51 222 68 q 224 18 222 32 q 142 19 176 19 q 83 19 107 19 l 36 19 q 37 427 38 254 q 36 715 36 600 q 35 944 35 850 q 118 942 83 942 q 176 942 153 942 q 221 943 203 942 q 219 624 219 758 q 221 386 219 490 q 270 522 249 463 q 307 622 292 581 q 336 707 324 669 q 416 702 379 704 q 481 699 453 700 q 539 696 513 697 q 453 519 486 592 q 400 407 419 447 q 457 227 432 307 q 501 92 482 147 q 540 -22 524 26 q 390 -26 442 -24 q 342 -28 361 -28 z "},"l":{"ha":260,"x_min":38,"x_max":224,"o":"m 222 18 q 142 20 176 19 q 85 21 108 21 l 38 21 q 40 424 40 253 q 40 713 40 596 q 39 943 40 849 q 176 939 131 939 l 224 939 q 221 497 221 674 q 221 214 221 319 q 222 18 221 89 z "},"m":{"ha":814,"x_min":35,"x_max":786,"o":"m 39 21 l 39 207 q 38 417 39 296 q 35 685 36 538 q 78 683 53 683 l 188 683 q 186 654 186 669 q 185 622 185 640 q 185 583 185 604 q 252 670 210 638 q 351 703 294 703 q 443 669 411 703 q 486 586 475 635 q 549 664 508 635 q 644 693 590 693 q 708 679 682 693 q 751 640 735 665 q 776 581 768 615 q 783 507 783 547 q 785 326 785 418 q 786 156 786 233 l 786 -21 l 740 -21 l 603 -21 q 601 143 601 60 q 600 298 600 214 q 599 460 600 382 q 589 515 597 496 q 561 533 581 533 q 519 504 532 533 q 506 431 506 475 q 504 292 504 361 q 504 165 504 222 q 506 38 504 99 l 449 38 q 388 37 422 38 q 317 36 354 36 q 318 182 317 108 q 319 318 318 244 q 318 457 319 392 q 310 515 318 494 q 279 536 301 536 q 236 503 251 536 q 221 424 221 471 q 220 291 219 361 q 222 161 221 221 q 225 22 224 90 l 165 22 q 105 22 138 22 q 39 21 72 21 z "},"n":{"ha":529,"x_min":35,"x_max":501,"o":"m 315 -25 l 315 139 q 316 298 315 211 q 317 468 317 385 q 308 519 317 503 q 279 536 300 536 q 237 508 251 536 q 222 439 222 481 q 221 329 221 399 q 221 190 221 260 l 221 19 l 165 19 l 35 19 q 38 201 36 100 q 39 410 39 289 q 38 679 39 531 q 79 678 56 678 q 125 678 99 678 q 183 681 151 678 q 182 647 182 664 q 181 613 182 632 q 182 576 181 594 q 249 667 204 631 q 353 703 294 703 q 460 653 425 703 q 499 513 496 604 q 499 468 499 499 q 501 397 500 438 q 501 310 501 357 q 501 217 501 264 l 501 -24 q 444 -24 476 -24 q 383 -25 411 -25 l 315 -25 z "},"o":{"ha":551,"x_min":22,"x_max":529,"o":"m 276 110 q 303 122 292 110 q 321 163 314 135 q 331 238 328 192 q 335 349 335 283 q 322 525 335 471 q 276 579 308 579 q 230 525 243 579 q 217 356 217 471 q 219 237 217 285 q 230 161 222 189 q 249 122 238 133 q 276 110 260 110 m 274 -14 q 154 13 203 -14 q 76 88 106 39 q 35 204 47 136 q 22 356 22 272 q 38 498 22 433 q 84 609 53 563 q 163 681 115 656 q 276 707 211 707 q 392 681 344 707 q 471 607 440 654 q 515 494 501 560 q 529 350 529 428 q 463 72 529 158 q 274 -14 397 -14 z "},"p":{"ha":563,"x_min":35,"x_max":540,"o":"m 281 117 q 306 128 294 117 q 324 165 317 139 q 335 233 332 190 q 339 342 339 276 q 326 522 340 467 q 283 576 311 576 q 235 518 249 576 q 222 346 222 460 q 225 236 222 281 q 235 165 228 192 q 253 128 242 139 q 281 117 264 117 m 35 -279 q 35 -112 35 -197 q 36 55 36 -28 q 36 216 36 138 q 36 364 36 294 q 35 679 36 526 q 91 678 64 678 q 139 679 118 679 q 185 681 164 679 q 182 621 182 642 q 182 581 182 600 q 241 674 201 639 q 339 708 281 708 q 426 682 389 708 q 490 607 464 656 q 528 490 515 558 q 540 340 540 422 q 526 182 540 249 q 487 73 513 115 q 426 10 461 31 q 350 -10 392 -10 q 268 10 303 -10 q 215 69 233 31 q 219 -94 218 -28 q 224 -200 221 -160 q 228 -278 226 -247 q 140 -275 176 -275 q 81 -276 104 -275 q 35 -279 53 -278 z "},"q":{"ha":564,"x_min":22,"x_max":528,"o":"m 281 117 q 326 174 313 117 q 339 350 339 231 q 326 516 339 454 q 282 578 313 578 q 234 515 247 578 q 221 350 221 451 q 235 177 221 238 q 281 117 249 117 m 336 -296 q 344 -76 342 -165 q 347 69 346 14 q 219 -8 310 -8 q 76 77 129 -8 q 22 351 22 163 q 36 497 22 431 q 77 612 50 564 q 142 686 104 660 q 231 713 181 713 q 323 681 286 713 q 379 601 360 649 q 375 686 376 658 q 374 717 374 703 q 452 716 422 715 q 499 717 482 717 l 528 717 q 524 297 525 483 q 525 -21 524 111 q 528 -294 525 -175 l 385 -294 q 336 -296 357 -294 z "},"r":{"ha":376,"x_min":35,"x_max":372,"o":"m 38 -3 l 38 217 q 37 439 38 315 q 35 689 36 563 q 65 688 44 688 q 113 688 83 688 q 188 690 142 688 q 185 656 186 674 q 183 617 183 639 q 183 568 183 596 q 216 625 196 599 q 261 670 236 651 q 315 699 286 689 q 372 711 343 710 q 369 668 371 694 q 365 522 367 621 q 258 460 293 508 q 221 317 224 411 q 219 212 219 268 q 221 108 219 156 q 224 -1 222 53 l 182 -1 q 124 -2 160 -1 q 38 -3 89 -3 z "},"s":{"ha":485,"x_min":10,"x_max":474,"o":"m 250 -18 q 72 47 133 -18 q 17 250 10 111 q 61 249 36 250 q 116 246 83 247 q 193 242 149 244 q 201 149 189 179 q 250 118 214 118 q 285 133 269 118 q 300 182 300 147 q 297 207 300 194 q 281 232 293 219 q 244 258 268 244 q 182 289 221 272 q 56 376 96 324 q 17 513 17 429 q 31 590 17 554 q 75 653 46 626 q 147 697 104 681 q 244 713 189 713 q 415 637 361 713 q 463 436 469 561 q 414 438 440 436 q 360 440 390 439 q 294 440 331 440 q 289 536 300 500 q 243 572 278 572 q 202 553 215 572 q 189 510 189 535 q 213 448 189 474 q 304 393 238 422 q 388 347 354 371 q 440 298 421 324 q 466 244 458 272 q 474 182 474 215 q 456 90 474 128 q 407 28 438 51 q 336 -7 376 4 q 250 -18 296 -18 z "},"t":{"ha":394,"x_min":7,"x_max":381,"o":"m 8 515 l 8 643 q 7 679 8 665 q 42 678 25 678 q 75 678 58 678 q 76 751 75 718 q 76 807 76 783 q 78 856 76 833 q 160 854 126 854 q 215 854 193 854 l 257 854 q 256 804 257 832 q 253 748 254 781 q 253 675 253 715 q 300 674 279 674 q 336 675 321 675 l 368 675 q 367 595 367 626 q 367 546 367 564 l 367 514 q 308 515 336 515 q 253 515 281 515 q 253 388 253 453 q 256 256 253 322 q 325 182 257 182 q 369 188 347 182 l 381 17 q 264 0 315 0 q 126 47 176 0 q 75 201 76 93 q 73 366 74 288 q 74 515 72 444 l 31 515 l 8 515 z "},"u":{"ha":533,"x_min":29,"x_max":497,"o":"m 204 -11 q 127 8 160 -11 q 73 71 94 26 q 40 188 51 115 q 29 369 29 261 q 33 531 29 450 q 47 693 38 611 q 88 689 63 692 q 221 681 131 685 q 212 551 214 618 q 210 433 210 485 q 213 286 210 342 q 224 200 217 231 q 242 159 232 169 q 267 149 253 149 q 303 180 289 149 q 317 261 317 211 q 316 428 317 347 q 313 571 315 508 q 307 710 310 644 q 350 708 324 710 q 409 706 374 707 q 494 707 444 706 l 494 500 q 494 268 494 401 q 497 -24 494 135 q 461 -22 483 -22 l 347 -22 q 349 14 349 -6 q 349 53 349 31 q 350 103 349 75 q 289 18 329 47 q 204 -11 249 -11 z "},"v":{"ha":499,"x_min":3,"x_max":497,"o":"m 386 11 q 183 7 257 7 l 111 7 q 64 298 83 175 q 31 504 44 421 q 3 668 15 601 q 77 668 43 668 q 138 669 111 668 q 193 672 168 671 q 215 426 206 525 q 232 264 225 326 q 246 147 239 190 q 279 408 265 301 q 300 585 293 515 q 314 715 308 664 q 391 710 357 713 q 449 708 425 708 q 497 708 476 707 q 444 386 465 518 q 410 171 422 254 q 386 11 394 74 z "},"w":{"ha":793,"x_min":4,"x_max":789,"o":"m 453 -10 q 429 201 440 108 q 411 357 418 293 q 394 486 401 432 q 349 131 361 244 q 336 15 340 63 q 226 19 272 18 q 151 21 181 21 l 93 21 q 57 301 74 179 q 29 508 40 424 q 4 679 15 607 q 69 680 36 679 q 131 682 103 681 q 192 683 163 683 q 208 436 201 533 q 219 281 214 339 q 229 176 225 213 q 263 416 249 317 q 285 578 276 515 q 299 699 294 651 l 447 699 q 489 697 472 699 q 524 426 510 531 q 547 263 539 322 q 563 158 557 193 q 581 426 574 319 q 590 599 588 532 q 596 719 594 675 q 740 715 689 715 l 789 715 q 718 169 739 349 q 697 -8 704 64 l 511 -8 q 453 -10 475 -8 z "},"x":{"ha":554,"x_min":7,"x_max":550,"o":"m 7 13 q 88 217 56 135 q 135 340 119 300 q 82 489 104 425 q 44 594 60 553 q 13 678 26 643 q 99 675 64 675 q 158 675 135 675 q 203 676 185 675 q 243 528 226 586 q 271 435 260 471 q 306 556 292 506 q 331 640 321 607 q 347 706 342 679 q 493 701 449 701 l 538 701 q 453 476 485 564 q 410 349 422 389 q 469 187 443 256 q 514 72 496 118 q 550 -19 535 18 q 466 -18 501 -18 q 406 -18 431 -18 q 356 -19 376 -18 q 308 137 329 71 q 274 247 288 203 q 245 149 257 192 q 226 76 233 107 q 213 15 218 40 q 60 15 113 18 q 7 13 29 14 z "},"y":{"ha":535,"x_min":3,"x_max":532,"o":"m 318 -304 q 228 -292 264 -297 q 174 -285 193 -287 q 138 -281 149 -282 q 156 -180 149 -222 q 168 -110 164 -137 q 176 -54 174 -76 q 103 262 135 128 q 49 488 71 396 q 3 668 24 594 q 150 672 97 668 q 204 676 181 674 q 228 476 217 565 q 249 325 239 388 q 269 194 260 251 q 315 586 303 458 q 326 713 322 661 q 396 708 360 710 q 463 706 432 707 q 532 703 499 704 q 423 199 465 396 q 358 -108 381 3 q 318 -304 331 -240 z "},"z":{"ha":443,"x_min":18,"x_max":425,"o":"m 422 1 q 238 8 314 6 q 113 11 161 10 q 18 13 56 13 q 20 72 19 46 q 21 114 21 97 l 21 147 q 112 319 75 249 q 171 435 149 390 q 213 519 196 488 q 127 519 161 519 q 71 517 93 518 q 31 514 46 515 q 29 594 29 561 q 28 647 29 626 q 25 686 26 672 q 199 688 125 688 q 322 692 274 689 q 419 696 379 693 q 419 621 419 650 q 421 575 419 592 q 424 547 422 556 q 332 379 369 450 q 271 260 294 308 q 226 165 243 204 q 321 161 283 163 q 382 160 358 160 l 425 160 q 422 76 422 107 q 422 29 422 46 l 422 1 z "},"{":{"ha":393,"x_min":7,"x_max":376,"o":"m 372 -161 q 313 -173 340 -169 q 260 -176 285 -176 q 134 -129 169 -176 q 99 15 99 -82 l 107 235 q 86 327 107 299 q 7 354 65 356 q 8 397 7 372 q 10 449 10 418 q 10 521 10 481 q 86 542 65 518 q 107 625 107 567 q 100 743 107 678 q 93 863 93 808 q 133 985 93 943 q 267 1026 172 1026 q 318 1023 290 1026 q 374 1013 346 1019 q 373 937 372 967 q 375 889 374 907 q 376 857 376 868 q 297 851 318 864 q 276 790 276 838 l 290 568 q 270 487 290 518 q 203 436 250 456 q 271 379 253 417 q 289 283 289 342 l 281 74 q 300 6 281 22 q 376 -6 319 -10 q 372 -124 372 -87 l 372 -161 z "},"|":{"ha":276,"x_min":53,"x_max":222,"o":"m 57 -178 l 57 204 q 57 387 57 289 q 56 590 57 485 q 55 804 56 694 q 53 1024 54 914 q 97 1022 72 1024 q 151 1020 119 1021 q 222 1021 182 1019 q 221 681 221 868 q 219 302 219 521 q 221 -176 219 83 q 182 -175 206 -175 q 131 -176 163 -175 q 57 -178 100 -176 z "},"}":{"ha":393,"x_min":17,"x_max":386,"o":"m 19 -169 q 22 -127 21 -162 q 17 -17 22 -92 q 94 -8 71 -24 q 118 57 118 7 q 111 172 118 106 q 104 296 104 239 q 126 390 104 354 q 200 443 147 426 q 128 488 153 457 q 103 581 103 519 q 110 692 103 636 q 117 796 117 747 q 95 853 117 840 q 17 864 74 867 q 19 903 17 869 q 21 1024 22 938 q 69 1031 46 1029 q 113 1033 93 1033 q 257 991 215 1033 q 299 869 299 949 q 292 747 299 810 q 285 632 285 685 q 306 548 285 572 q 383 525 328 524 q 384 410 383 450 q 386 363 385 369 q 304 342 325 365 q 283 256 283 318 q 290 123 283 192 q 297 -7 297 54 q 260 -140 297 -93 q 131 -185 222 -186 q 19 -169 85 -185 z "},"~":{"ha":499,"x_min":14,"x_max":488,"o":"m 122 753 q 90 754 107 753 q 56 756 75 756 q 14 760 36 757 q 24 865 14 822 q 52 935 33 908 q 98 975 71 963 q 157 988 125 988 q 216 973 190 988 q 262 940 242 958 q 299 908 282 922 q 333 893 317 893 q 364 913 353 893 q 375 986 375 933 q 403 983 388 985 q 485 979 429 982 q 452 808 488 864 q 349 751 417 751 q 292 765 317 751 q 244 797 267 779 q 203 828 222 814 q 164 842 183 842 q 133 824 144 842 q 122 753 121 806 z "},"Ä":{"ha":561,"x_min":3,"x_max":558,"o":"m 376 1049 q 318 1074 340 1049 q 296 1142 296 1099 q 317 1203 296 1178 q 378 1228 338 1228 q 437 1201 418 1228 q 456 1138 456 1174 q 434 1071 456 1093 q 376 1049 413 1049 m 168 1043 q 106 1071 126 1043 q 85 1135 85 1099 q 108 1201 85 1175 q 168 1226 132 1226 q 231 1199 211 1226 q 250 1135 250 1171 q 226 1065 250 1086 q 168 1043 201 1043 m 271 814 q 249 624 264 753 q 218 322 235 496 l 244 322 q 278 322 258 322 q 325 322 297 321 q 302 538 315 418 q 271 814 289 658 m 3 21 q 42 276 19 132 q 85 575 60 400 q 139 969 110 750 q 244 974 196 972 q 329 975 293 975 l 407 975 q 451 668 426 831 q 499 351 472 529 q 558 -21 526 172 q 504 -19 535 -19 q 441 -20 478 -19 q 360 -22 404 -21 q 356 24 358 -4 q 349 83 353 47 q 342 167 346 118 q 283 167 318 167 q 203 168 249 168 l 190 18 q 144 19 171 18 q 86 20 121 19 q 3 21 51 21 z "},"Å":{"ha":561,"x_min":3,"x_max":558,"o":"m 272 1096 q 308 1113 296 1096 q 319 1160 319 1131 q 308 1203 319 1183 q 272 1222 296 1222 q 238 1203 249 1222 q 226 1158 226 1185 q 239 1113 226 1131 q 272 1096 251 1096 m 269 1025 q 172 1064 204 1025 q 140 1160 140 1103 q 177 1253 140 1219 q 271 1288 214 1288 q 369 1249 336 1288 q 403 1160 403 1211 q 392 1097 403 1122 q 362 1055 381 1071 q 319 1032 343 1039 q 269 1025 294 1025 m 271 814 q 249 624 264 753 q 218 322 235 496 l 244 322 q 278 322 258 322 q 325 322 297 321 q 302 538 315 418 q 271 814 289 658 m 3 21 q 42 276 19 132 q 85 575 60 400 q 139 969 110 750 q 244 974 196 972 q 329 975 293 975 l 407 975 q 451 668 426 831 q 499 351 472 529 q 558 -21 526 172 q 504 -19 535 -19 q 441 -20 478 -19 q 360 -22 404 -21 q 356 24 358 -4 q 349 83 353 47 q 342 167 346 118 q 283 167 318 167 q 203 168 249 168 l 190 18 q 144 19 171 18 q 86 20 121 19 q 3 21 51 21 z "},"Ç":{"ha":563,"x_min":22,"x_max":549,"o":"m 547 406 q 533 211 549 290 q 489 82 518 132 q 418 8 460 32 q 325 -22 376 -17 q 323 -38 324 -29 q 322 -58 322 -47 q 419 -87 385 -61 q 453 -156 453 -114 q 407 -243 453 -211 q 289 -275 361 -275 q 229 -269 260 -275 q 174 -251 199 -262 q 178 -228 175 -242 q 183 -202 181 -217 q 189 -168 186 -187 q 241 -187 213 -181 q 294 -193 269 -193 q 331 -185 315 -193 q 347 -162 347 -178 q 322 -135 347 -144 q 231 -132 296 -126 q 238 -103 233 -119 q 244 -67 240 -87 q 253 -22 249 -47 q 148 16 192 -15 q 76 108 104 47 q 35 261 49 169 q 22 481 22 353 q 85 865 22 739 q 300 990 149 990 q 418 961 371 990 q 493 878 465 932 q 532 751 521 825 q 542 590 543 678 q 458 591 494 590 q 394 593 421 592 q 340 596 364 594 q 338 706 340 661 q 331 779 336 751 q 315 819 325 807 q 290 832 306 832 q 260 813 272 832 q 240 753 247 794 q 231 644 233 711 q 229 482 228 578 q 232 315 229 382 q 242 208 235 247 q 262 151 250 168 q 292 135 274 135 q 315 145 304 135 q 333 185 326 156 q 343 266 340 214 q 343 401 346 318 q 421 404 383 403 q 486 406 458 406 l 547 406 z "},"É":{"ha":450,"x_min":35,"x_max":433,"o":"m 46 4 q 43 274 44 125 q 40 577 42 401 q 35 964 38 753 q 126 965 71 964 q 248 967 174 967 q 428 969 322 967 l 428 918 q 428 859 428 893 q 429 785 428 825 q 361 783 397 783 q 294 782 331 782 q 222 781 257 782 l 222 721 q 222 650 222 692 q 224 556 222 608 q 277 555 232 556 q 401 557 322 554 l 401 507 q 401 451 401 483 q 403 381 401 419 l 351 381 q 296 381 328 381 q 226 382 264 382 q 228 284 228 335 q 232 179 229 233 q 288 176 257 178 q 351 174 314 175 q 433 171 388 172 q 432 126 432 151 q 431 72 431 104 q 431 -4 431 39 q 317 -1 378 -3 q 194 1 264 0 q 46 4 125 3 m 247 1019 q 208 1050 224 1038 q 181 1069 192 1063 q 158 1083 167 1078 q 258 1238 225 1183 q 292 1292 278 1268 q 344 1253 322 1268 q 379 1226 365 1238 q 406 1207 394 1214 q 331 1122 361 1157 q 282 1063 301 1086 q 247 1019 260 1036 z "},"Ñ":{"ha":592,"x_min":35,"x_max":557,"o":"m 204 1047 l 179 1047 q 147 1046 167 1047 q 101 1043 128 1044 q 128 1185 96 1135 q 211 1236 161 1236 q 258 1225 236 1236 q 297 1201 279 1214 q 331 1178 315 1189 q 360 1167 346 1167 q 389 1231 397 1167 q 408 1231 394 1229 q 438 1233 419 1231 q 483 1238 456 1235 q 469 1094 497 1143 q 379 1044 442 1044 q 336 1054 356 1044 q 299 1076 317 1064 q 265 1097 281 1088 q 235 1107 250 1107 q 204 1047 200 1107 m 39 22 q 40 267 40 129 q 39 553 40 385 q 35 933 38 721 q 85 936 57 935 q 143 939 108 938 q 219 942 178 940 q 268 769 242 864 q 324 581 292 689 q 396 349 356 474 q 386 617 393 453 q 365 989 379 782 q 411 988 386 989 q 465 985 433 986 q 538 986 497 985 q 542 722 539 872 q 548 410 544 593 q 557 -7 551 226 q 514 -12 539 -10 q 458 -18 492 -15 q 381 -24 425 -21 q 332 135 360 44 q 274 320 308 211 q 199 567 240 429 q 204 330 200 472 q 218 19 208 188 q 168 21 196 19 q 111 22 144 21 q 39 22 78 22 z "},"Ö":{"ha":582,"x_min":22,"x_max":560,"o":"m 293 125 q 320 140 308 125 q 340 194 332 154 q 351 306 347 235 q 354 490 354 376 q 351 656 354 590 q 339 760 347 721 q 319 816 331 800 q 290 832 307 832 q 260 814 272 832 q 241 756 249 796 q 231 650 233 715 q 228 492 228 585 q 231 310 228 381 q 242 198 235 239 q 263 141 250 157 q 293 125 275 125 m 290 -22 q 164 10 215 -22 q 81 105 113 42 q 36 263 50 168 q 22 482 22 357 q 34 678 22 586 q 76 838 46 769 q 158 944 106 906 q 290 983 210 983 q 424 947 372 983 q 507 844 476 910 q 549 686 538 778 q 560 483 560 594 q 542 242 558 339 q 492 86 525 144 q 408 3 458 28 q 290 -22 358 -22 m 396 1049 q 338 1074 360 1049 q 315 1142 315 1099 q 336 1203 315 1178 q 397 1228 357 1228 q 456 1201 438 1228 q 475 1138 475 1174 q 453 1071 475 1093 q 396 1049 432 1049 m 188 1043 q 125 1071 146 1043 q 104 1135 104 1099 q 128 1201 104 1175 q 188 1226 151 1226 q 250 1199 231 1226 q 269 1135 269 1171 q 245 1065 269 1086 q 188 1043 221 1043 z "},"Ü":{"ha":557,"x_min":19,"x_max":540,"o":"m 281 -19 q 158 13 207 -19 q 77 113 108 46 q 33 279 46 179 q 19 514 19 379 q 49 951 19 744 q 92 944 67 949 q 148 937 114 942 q 231 926 182 932 q 212 722 218 810 q 206 557 206 633 q 211 367 206 443 q 227 247 217 292 q 251 184 238 203 q 279 165 264 165 q 306 176 294 165 q 326 222 318 188 q 339 319 335 256 q 343 488 343 383 q 333 725 343 600 q 307 975 324 850 q 358 978 329 975 q 497 990 407 979 q 528 741 517 868 q 540 496 540 614 q 526 263 540 360 q 481 103 513 165 q 401 10 450 40 q 281 -19 351 -19 m 385 1051 q 326 1076 349 1051 q 304 1144 304 1101 q 325 1206 304 1181 q 386 1231 346 1231 q 445 1203 426 1231 q 464 1140 464 1176 q 442 1074 464 1096 q 385 1051 421 1051 m 176 1046 q 114 1074 135 1046 q 93 1138 93 1101 q 117 1203 93 1178 q 176 1229 140 1229 q 239 1201 219 1229 q 258 1138 258 1174 q 234 1067 258 1089 q 176 1046 210 1046 z "},"á":{"ha":515,"x_min":11,"x_max":488,"o":"m 263 731 q 223 761 239 749 q 196 781 207 774 q 174 794 182 789 q 274 949 240 894 q 307 1003 293 979 q 359 964 338 979 q 394 938 381 949 q 421 918 410 925 q 347 833 376 868 q 297 774 317 797 q 263 731 275 747 m 313 265 q 313 293 313 279 q 311 319 313 307 q 218 272 244 308 q 192 190 192 235 q 204 138 192 158 q 246 118 217 118 q 272 125 260 118 q 292 149 283 132 q 307 194 301 165 q 313 265 313 222 m 189 -14 q 61 33 111 -14 q 11 164 11 79 q 87 340 11 278 q 304 414 163 403 q 303 429 303 422 l 303 458 q 290 544 300 521 q 257 568 281 568 q 207 444 204 568 q 160 443 186 443 q 104 442 136 443 q 33 443 72 442 q 43 546 31 499 q 84 628 56 593 q 157 682 113 663 q 264 701 201 701 q 430 635 378 701 q 485 450 482 568 q 488 271 488 354 q 488 124 488 188 q 486 -15 488 49 q 453 -17 472 -17 q 409 -17 436 -17 q 346 -18 382 -18 q 349 13 347 -4 q 350 45 350 26 q 351 86 350 64 q 286 8 331 31 q 189 -14 242 -14 z "},"à":{"ha":515,"x_min":11,"x_max":488,"o":"m 253 731 q 217 774 239 747 q 168 833 197 797 q 94 918 139 868 q 121 938 106 925 q 156 964 135 949 q 208 1003 178 979 q 242 949 222 979 q 342 794 275 894 q 319 781 333 789 q 253 731 296 765 m 313 265 q 313 293 313 279 q 311 319 313 307 q 218 272 244 308 q 192 190 192 235 q 204 138 192 158 q 246 118 217 118 q 272 125 260 118 q 292 149 283 132 q 307 194 301 165 q 313 265 313 222 m 189 -14 q 61 33 111 -14 q 11 164 11 79 q 87 340 11 278 q 304 414 163 403 q 303 429 303 422 l 303 458 q 290 544 300 521 q 257 568 281 568 q 207 444 204 568 q 160 443 186 443 q 104 442 136 443 q 33 443 72 442 q 43 546 31 499 q 84 628 56 593 q 157 682 113 663 q 264 701 201 701 q 430 635 378 701 q 485 450 482 568 q 488 271 488 354 q 488 124 488 188 q 486 -15 488 49 q 453 -17 472 -17 q 409 -17 436 -17 q 346 -18 382 -18 q 349 13 347 -4 q 350 45 350 26 q 351 86 350 64 q 286 8 331 31 q 189 -14 242 -14 z "},"â":{"ha":515,"x_min":11,"x_max":488,"o":"m 136 724 q 117 742 129 731 q 90 763 106 750 q 53 794 75 776 q 86 833 67 810 q 127 882 103 853 q 185 951 151 911 q 211 953 194 951 q 249 956 226 954 q 306 961 271 957 q 338 924 317 946 q 382 876 354 904 q 450 808 410 847 l 429 788 q 403 761 418 776 q 368 725 388 746 q 339 757 356 739 q 301 795 324 772 q 247 847 279 818 q 219 817 235 835 q 185 778 206 801 q 136 724 164 756 m 313 265 q 313 293 313 279 q 311 319 313 307 q 218 272 244 308 q 192 190 192 235 q 204 138 192 158 q 246 118 217 118 q 272 125 260 118 q 292 149 283 132 q 307 194 301 165 q 313 265 313 222 m 189 -14 q 61 33 111 -14 q 11 164 11 79 q 87 340 11 278 q 304 414 163 403 q 303 429 303 422 l 303 458 q 290 544 300 521 q 257 568 281 568 q 207 444 204 568 q 160 443 186 443 q 104 442 136 443 q 33 443 72 442 q 43 546 31 499 q 84 628 56 593 q 157 682 113 663 q 264 701 201 701 q 430 635 378 701 q 485 450 482 568 q 488 271 488 354 q 488 124 488 188 q 486 -15 488 49 q 453 -17 472 -17 q 409 -17 436 -17 q 346 -18 382 -18 q 349 13 347 -4 q 350 45 350 26 q 351 86 350 64 q 286 8 331 31 q 189 -14 242 -14 z "},"ä":{"ha":515,"x_min":11,"x_max":488,"o":"m 357 760 q 299 785 321 760 q 276 853 276 810 q 297 914 276 889 q 358 939 318 939 q 417 912 399 939 q 436 849 436 885 q 415 782 436 804 q 357 760 393 760 m 149 754 q 86 782 107 754 q 65 846 65 810 q 89 912 65 886 q 149 938 113 938 q 211 910 192 938 q 231 846 231 882 q 206 776 231 797 q 149 754 182 754 m 313 265 q 313 293 313 279 q 311 319 313 307 q 218 272 244 308 q 192 190 192 235 q 204 138 192 158 q 246 118 217 118 q 272 125 260 118 q 292 149 283 132 q 307 194 301 165 q 313 265 313 222 m 189 -14 q 61 33 111 -14 q 11 164 11 79 q 87 340 11 278 q 304 414 163 403 q 303 429 303 422 l 303 458 q 290 544 300 521 q 257 568 281 568 q 207 444 204 568 q 160 443 186 443 q 104 442 136 443 q 33 443 72 442 q 43 546 31 499 q 84 628 56 593 q 157 682 113 663 q 264 701 201 701 q 430 635 378 701 q 485 450 482 568 q 488 271 488 354 q 488 124 488 188 q 486 -15 488 49 q 453 -17 472 -17 q 409 -17 436 -17 q 346 -18 382 -18 q 349 13 347 -4 q 350 45 350 26 q 351 86 350 64 q 286 8 331 31 q 189 -14 242 -14 z "},"ã":{"ha":515,"x_min":11,"x_max":488,"o":"m 161 753 l 136 753 q 104 751 124 753 q 58 749 85 750 q 85 891 53 840 q 168 942 118 942 q 215 931 193 942 q 254 907 236 919 q 288 883 272 894 q 317 872 303 872 q 346 936 354 872 q 365 936 351 935 q 394 938 376 936 q 440 943 413 940 q 426 799 454 849 q 336 750 399 750 q 293 760 313 750 q 256 781 274 769 q 222 803 238 793 q 192 813 207 813 q 161 753 157 813 m 313 265 q 313 293 313 279 q 311 319 313 307 q 218 272 244 308 q 192 190 192 235 q 204 138 192 158 q 246 118 217 118 q 272 125 260 118 q 292 149 283 132 q 307 194 301 165 q 313 265 313 222 m 189 -14 q 61 33 111 -14 q 11 164 11 79 q 87 340 11 278 q 304 414 163 403 q 303 429 303 422 l 303 458 q 290 544 300 521 q 257 568 281 568 q 207 444 204 568 q 160 443 186 443 q 104 442 136 443 q 33 443 72 442 q 43 546 31 499 q 84 628 56 593 q 157 682 113 663 q 264 701 201 701 q 430 635 378 701 q 485 450 482 568 q 488 271 488 354 q 488 124 488 188 q 486 -15 488 49 q 453 -17 472 -17 q 409 -17 436 -17 q 346 -18 382 -18 q 349 13 347 -4 q 350 45 350 26 q 351 86 350 64 q 286 8 331 31 q 189 -14 242 -14 z "},"å":{"ha":515,"x_min":11,"x_max":488,"o":"m 251 813 q 287 830 275 813 q 299 876 299 847 q 287 919 299 900 q 251 939 275 939 q 217 920 228 939 q 206 875 206 901 q 218 830 206 847 q 251 813 231 813 m 249 742 q 151 781 183 742 q 119 876 119 819 q 156 970 119 936 q 250 1004 193 1004 q 349 966 315 1004 q 382 876 382 928 q 371 813 382 839 q 341 772 360 788 q 298 749 322 756 q 249 742 274 742 m 313 265 q 313 293 313 279 q 311 319 313 307 q 218 272 244 308 q 192 190 192 235 q 204 138 192 158 q 246 118 217 118 q 272 125 260 118 q 292 149 283 132 q 307 194 301 165 q 313 265 313 222 m 189 -14 q 61 33 111 -14 q 11 164 11 79 q 87 340 11 278 q 304 414 163 403 q 303 429 303 422 l 303 458 q 290 544 300 521 q 257 568 281 568 q 207 444 204 568 q 160 443 186 443 q 104 442 136 443 q 33 443 72 442 q 43 546 31 499 q 84 628 56 593 q 157 682 113 663 q 264 701 201 701 q 430 635 378 701 q 485 450 482 568 q 488 271 488 354 q 488 124 488 188 q 486 -15 488 49 q 453 -17 472 -17 q 409 -17 436 -17 q 346 -18 382 -18 q 349 13 347 -4 q 350 45 350 26 q 351 86 350 64 q 286 8 331 31 q 189 -14 242 -14 z "},"ç":{"ha":529,"x_min":22,"x_max":517,"o":"m 514 293 q 500 154 515 211 q 456 61 485 97 q 390 7 428 25 q 307 -15 351 -11 q 306 -28 306 -22 q 304 -41 304 -33 q 304 -57 304 -49 q 401 -86 367 -60 q 435 -154 435 -112 q 389 -242 435 -210 q 271 -274 343 -274 q 211 -267 242 -274 q 156 -250 181 -261 q 160 -226 157 -240 q 165 -201 163 -215 q 171 -167 168 -186 q 223 -185 194 -179 q 276 -192 251 -192 q 313 -184 297 -192 q 329 -161 329 -176 q 303 -134 329 -143 q 213 -131 278 -125 q 219 -99 215 -117 q 226 -62 222 -83 q 235 -14 231 -42 q 72 93 121 0 q 22 347 22 186 q 86 611 22 514 q 282 708 150 708 q 389 685 343 708 q 464 619 435 661 q 505 522 493 578 q 513 401 517 465 q 428 404 463 403 q 369 406 393 406 l 326 406 q 275 572 331 572 q 231 518 244 572 q 217 342 217 464 q 231 178 217 226 q 275 129 246 129 q 315 165 300 129 q 325 290 329 200 l 365 290 q 423 290 388 290 q 514 293 458 290 z "},"é":{"ha":542,"x_min":22,"x_max":521,"o":"m 272 582 q 229 537 243 582 q 213 401 215 492 q 268 402 240 401 q 325 404 296 403 q 314 535 326 489 q 272 582 301 582 m 276 -15 q 152 13 201 -15 q 74 90 103 40 q 34 206 46 139 q 22 353 22 274 q 36 492 22 428 q 80 603 50 556 q 158 678 110 651 q 274 706 206 706 q 399 674 350 706 q 476 588 449 643 q 512 459 503 533 q 515 297 521 385 q 432 296 478 296 q 337 294 392 294 q 213 293 282 294 q 231 159 215 200 q 278 118 246 118 q 333 243 329 118 q 392 242 361 242 q 451 240 418 240 q 521 239 485 240 q 445 51 510 118 q 276 -15 381 -15 m 283 744 q 244 775 260 763 q 217 794 228 788 q 194 808 203 803 q 294 963 261 908 q 328 1017 314 993 q 380 978 358 993 q 415 951 401 963 q 442 932 431 939 q 367 847 397 882 q 318 788 338 811 q 283 744 296 761 z "},"è":{"ha":542,"x_min":22,"x_max":521,"o":"m 274 744 q 238 788 260 761 q 189 847 218 811 q 115 932 160 882 q 142 951 126 939 q 177 978 156 963 q 229 1017 199 993 q 263 963 243 993 q 363 808 296 908 q 340 794 354 803 q 274 744 317 779 m 272 582 q 229 537 243 582 q 213 401 215 492 q 268 402 240 401 q 325 404 296 403 q 314 535 326 489 q 272 582 301 582 m 276 -15 q 152 13 201 -15 q 74 90 103 40 q 34 206 46 139 q 22 353 22 274 q 36 492 22 428 q 80 603 50 556 q 158 678 110 651 q 274 706 206 706 q 399 674 350 706 q 476 588 449 643 q 512 459 503 533 q 515 297 521 385 q 432 296 478 296 q 337 294 392 294 q 213 293 282 294 q 231 159 215 200 q 278 118 246 118 q 333 243 329 118 q 392 242 361 242 q 451 240 418 240 q 521 239 485 240 q 445 51 510 118 q 276 -15 381 -15 z "},"ê":{"ha":542,"x_min":22,"x_max":521,"o":"m 272 582 q 229 537 243 582 q 213 401 215 492 q 268 402 240 401 q 325 404 296 403 q 314 535 326 489 q 272 582 301 582 m 276 -15 q 152 13 201 -15 q 74 90 103 40 q 34 206 46 139 q 22 353 22 274 q 36 492 22 428 q 80 603 50 556 q 158 678 110 651 q 274 706 206 706 q 399 674 350 706 q 476 588 449 643 q 512 459 503 533 q 515 297 521 385 q 432 296 478 296 q 337 294 392 294 q 213 293 282 294 q 231 159 215 200 q 278 118 246 118 q 333 243 329 118 q 392 242 361 242 q 451 240 418 240 q 521 239 485 240 q 445 51 510 118 q 276 -15 381 -15 m 157 732 q 138 750 150 739 q 111 772 126 758 q 74 803 96 785 q 107 842 88 818 q 148 890 124 861 q 206 960 172 919 q 232 961 215 960 q 269 964 247 963 q 326 969 292 965 q 358 932 338 954 q 403 884 375 913 q 471 817 431 856 l 450 796 q 424 769 439 785 q 389 733 408 754 q 360 765 376 747 q 322 803 344 781 q 268 856 300 826 q 240 825 256 843 q 206 787 226 810 q 157 732 185 764 z "},"ë":{"ha":542,"x_min":22,"x_max":521,"o":"m 272 582 q 229 537 243 582 q 213 401 215 492 q 268 402 240 401 q 325 404 296 403 q 314 535 326 489 q 272 582 301 582 m 276 -15 q 152 13 201 -15 q 74 90 103 40 q 34 206 46 139 q 22 353 22 274 q 36 492 22 428 q 80 603 50 556 q 158 678 110 651 q 274 706 206 706 q 399 674 350 706 q 476 588 449 643 q 512 459 503 533 q 515 297 521 385 q 432 296 478 296 q 337 294 392 294 q 213 293 282 294 q 231 159 215 200 q 278 118 246 118 q 333 243 329 118 q 392 242 361 242 q 451 240 418 240 q 521 239 485 240 q 445 51 510 118 q 276 -15 381 -15 m 378 765 q 319 790 342 765 q 297 858 297 815 q 318 919 297 894 q 379 944 339 944 q 438 917 419 944 q 457 854 457 890 q 435 788 457 810 q 378 765 414 765 m 169 760 q 107 788 128 760 q 86 851 86 815 q 110 917 86 892 q 169 943 133 943 q 232 915 213 943 q 251 851 251 888 q 227 781 251 803 q 169 760 203 760 z "},"í":{"ha":263,"x_min":40,"x_max":307,"o":"m 44 1 l 44 158 q 44 374 44 242 q 40 699 43 506 l 86 699 q 144 699 110 699 q 224 700 178 699 l 224 517 q 225 298 224 426 q 229 3 226 169 l 176 3 q 118 2 151 3 q 44 1 85 1 m 149 747 q 109 778 125 765 q 82 797 93 790 q 60 811 68 806 q 160 965 126 911 q 193 1019 179 996 q 245 981 224 996 q 281 954 267 965 q 307 935 296 942 q 233 849 263 885 q 183 790 203 814 q 149 747 161 764 z "},"ì":{"ha":263,"x_min":-22,"x_max":229,"o":"m 136 747 q 100 790 122 764 q 51 849 81 814 q -22 935 22 885 q 4 954 -11 942 q 40 981 18 965 q 92 1019 61 996 q 125 965 106 996 q 225 811 158 911 q 203 797 217 806 q 136 747 179 782 m 44 1 l 44 158 q 44 374 44 242 q 40 699 43 506 l 86 699 q 144 699 110 699 q 224 700 178 699 l 224 517 q 225 298 224 426 q 229 3 226 169 l 176 3 q 118 2 151 3 q 44 1 85 1 z "},"î":{"ha":263,"x_min":-64,"x_max":333,"o":"m 44 1 l 44 158 q 44 374 44 242 q 40 699 43 506 l 86 699 q 144 699 110 699 q 224 700 178 699 l 224 517 q 225 298 224 426 q 229 3 226 169 l 176 3 q 118 2 151 3 q 44 1 85 1 m 19 740 q 0 758 13 747 q -26 780 -11 767 q -64 811 -42 793 q -31 850 -50 826 q 10 899 -14 869 q 68 968 35 928 q 94 969 78 968 q 132 972 110 971 q 189 978 154 974 q 221 940 200 963 q 265 892 238 921 q 333 825 293 864 l 313 804 q 286 778 301 793 q 251 742 271 763 q 222 774 239 756 q 185 812 207 789 q 131 864 163 835 q 103 833 118 851 q 68 795 89 818 q 19 740 47 772 z "},"ï":{"ha":263,"x_min":-51,"x_max":319,"o":"m 44 1 l 44 158 q 44 374 44 242 q 40 699 43 506 l 86 699 q 144 699 110 699 q 224 700 178 699 l 224 517 q 225 298 224 426 q 229 3 226 169 l 176 3 q 118 2 151 3 q 44 1 85 1 m 240 782 q 182 807 204 782 q 160 875 160 832 q 181 936 160 911 q 242 961 201 961 q 301 934 282 961 q 319 871 319 907 q 298 804 319 826 q 240 782 276 782 m 32 776 q -31 804 -10 776 q -51 868 -51 832 q -28 934 -51 908 q 32 960 -4 960 q 94 932 75 960 q 114 868 114 904 q 90 798 114 819 q 32 776 65 776 z "},"ñ":{"ha":529,"x_min":35,"x_max":501,"o":"m 186 754 l 161 754 q 129 753 149 754 q 83 750 110 751 q 110 892 78 842 q 193 943 143 943 q 240 932 218 943 q 279 908 261 921 q 313 885 297 896 q 342 874 328 874 q 371 938 379 874 q 390 938 376 936 q 419 940 401 938 q 465 944 438 942 q 451 801 479 850 q 361 751 424 751 q 318 761 338 751 q 281 783 299 771 q 247 804 263 794 q 217 814 232 814 q 186 754 182 814 m 315 -25 l 315 139 q 316 298 315 211 q 317 468 317 385 q 308 519 317 503 q 279 536 300 536 q 237 508 251 536 q 222 439 222 481 q 221 329 221 399 q 221 190 221 260 l 221 19 l 165 19 l 35 19 q 38 201 36 100 q 39 410 39 289 q 38 679 39 531 q 79 678 56 678 q 125 678 99 678 q 183 681 151 678 q 182 647 182 664 q 181 613 182 632 q 182 576 181 594 q 249 667 204 631 q 353 703 294 703 q 460 653 425 703 q 499 513 496 604 q 499 468 499 499 q 501 397 500 438 q 501 310 501 357 q 501 217 501 264 l 501 -24 q 444 -24 476 -24 q 383 -25 411 -25 l 315 -25 z "},"ó":{"ha":551,"x_min":22,"x_max":529,"o":"m 276 110 q 303 122 292 110 q 321 163 314 135 q 331 238 328 192 q 335 349 335 283 q 322 525 335 471 q 276 579 308 579 q 230 525 243 579 q 217 356 217 471 q 219 237 217 285 q 230 161 222 189 q 249 122 238 133 q 276 110 260 110 m 274 -14 q 154 13 203 -14 q 76 88 106 39 q 35 204 47 136 q 22 356 22 272 q 38 498 22 433 q 84 609 53 563 q 163 681 115 656 q 276 707 211 707 q 392 681 344 707 q 471 607 440 654 q 515 494 501 560 q 529 350 529 428 q 463 72 529 158 q 274 -14 397 -14 m 289 738 q 249 768 265 756 q 222 788 233 781 q 200 801 208 796 q 300 956 267 901 q 333 1010 319 986 q 385 971 364 986 q 421 944 407 956 q 447 925 436 932 q 373 840 403 875 q 324 781 343 804 q 289 738 301 754 z "},"ò":{"ha":551,"x_min":22,"x_max":529,"o":"m 278 738 q 242 781 264 754 q 193 840 222 804 q 119 925 164 875 q 146 944 131 932 q 181 971 160 956 q 233 1010 203 986 q 267 956 247 986 q 367 801 300 901 q 344 788 358 796 q 278 738 321 772 m 276 110 q 303 122 292 110 q 321 163 314 135 q 331 238 328 192 q 335 349 335 283 q 322 525 335 471 q 276 579 308 579 q 230 525 243 579 q 217 356 217 471 q 219 237 217 285 q 230 161 222 189 q 249 122 238 133 q 276 110 260 110 m 274 -14 q 154 13 203 -14 q 76 88 106 39 q 35 204 47 136 q 22 356 22 272 q 38 498 22 433 q 84 609 53 563 q 163 681 115 656 q 276 707 211 707 q 392 681 344 707 q 471 607 440 654 q 515 494 501 560 q 529 350 529 428 q 463 72 529 158 q 274 -14 397 -14 z "},"ô":{"ha":551,"x_min":22,"x_max":529,"o":"m 276 110 q 303 122 292 110 q 321 163 314 135 q 331 238 328 192 q 335 349 335 283 q 322 525 335 471 q 276 579 308 579 q 230 525 243 579 q 217 356 217 471 q 219 237 217 285 q 230 161 222 189 q 249 122 238 133 q 276 110 260 110 m 274 -14 q 154 13 203 -14 q 76 88 106 39 q 35 204 47 136 q 22 356 22 272 q 38 498 22 433 q 84 609 53 563 q 163 681 115 656 q 276 707 211 707 q 392 681 344 707 q 471 607 440 654 q 515 494 501 560 q 529 350 529 428 q 463 72 529 158 q 274 -14 397 -14 m 161 732 q 142 750 154 739 q 115 772 131 758 q 78 803 100 785 q 111 842 92 818 q 152 890 128 861 q 210 960 176 919 q 236 961 219 960 q 274 964 251 963 q 331 969 296 965 q 363 932 342 954 q 407 884 379 913 q 475 817 435 856 l 454 796 q 428 769 443 785 q 393 733 413 754 q 364 765 381 747 q 326 803 349 781 q 272 856 304 826 q 244 825 260 843 q 210 787 231 810 q 161 732 189 764 z "},"ö":{"ha":551,"x_min":22,"x_max":529,"o":"m 276 110 q 303 122 292 110 q 321 163 314 135 q 331 238 328 192 q 335 349 335 283 q 322 525 335 471 q 276 579 308 579 q 230 525 243 579 q 217 356 217 471 q 219 237 217 285 q 230 161 222 189 q 249 122 238 133 q 276 110 260 110 m 274 -14 q 154 13 203 -14 q 76 88 106 39 q 35 204 47 136 q 22 356 22 272 q 38 498 22 433 q 84 609 53 563 q 163 681 115 656 q 276 707 211 707 q 392 681 344 707 q 471 607 440 654 q 515 494 501 560 q 529 350 529 428 q 463 72 529 158 q 274 -14 397 -14 m 382 769 q 324 794 346 769 q 301 863 301 819 q 322 924 301 899 q 383 949 343 949 q 442 922 424 949 q 461 858 461 894 q 440 792 461 814 q 382 769 418 769 m 174 764 q 111 792 132 764 q 90 856 90 819 q 114 922 90 896 q 174 947 138 947 q 236 919 217 947 q 256 856 256 892 q 231 785 256 807 q 174 764 207 764 z "},"õ":{"ha":551,"x_min":22,"x_max":529,"o":"m 186 760 l 161 760 q 129 758 149 760 q 83 756 110 757 q 110 898 78 847 q 193 949 143 949 q 240 938 218 949 q 279 914 261 926 q 313 890 297 901 q 342 879 328 879 q 371 943 379 879 q 390 943 376 942 q 419 945 401 943 q 465 950 438 947 q 451 806 479 856 q 361 757 424 757 q 318 767 338 757 q 281 788 299 776 q 247 810 263 800 q 217 819 232 819 q 186 760 182 819 m 276 110 q 303 122 292 110 q 321 163 314 135 q 331 238 328 192 q 335 349 335 283 q 322 525 335 471 q 276 579 308 579 q 230 525 243 579 q 217 356 217 471 q 219 237 217 285 q 230 161 222 189 q 249 122 238 133 q 276 110 260 110 m 274 -14 q 154 13 203 -14 q 76 88 106 39 q 35 204 47 136 q 22 356 22 272 q 38 498 22 433 q 84 609 53 563 q 163 681 115 656 q 276 707 211 707 q 392 681 344 707 q 471 607 440 654 q 515 494 501 560 q 529 350 529 428 q 463 72 529 158 q 274 -14 397 -14 z "},"ú":{"ha":533,"x_min":29,"x_max":497,"o":"m 204 -11 q 127 8 160 -11 q 73 71 94 26 q 40 188 51 115 q 29 369 29 261 q 33 531 29 450 q 47 693 38 611 q 88 689 63 692 q 221 681 131 685 q 212 551 214 618 q 210 433 210 485 q 213 286 210 342 q 224 200 217 231 q 242 159 232 169 q 267 149 253 149 q 303 180 289 149 q 317 261 317 211 q 316 428 317 347 q 313 571 315 508 q 307 710 310 644 q 350 708 324 710 q 409 706 374 707 q 494 707 444 706 l 494 500 q 494 268 494 401 q 497 -24 494 135 q 461 -22 483 -22 l 347 -22 q 349 14 349 -6 q 349 53 349 31 q 350 103 349 75 q 289 18 329 47 q 204 -11 249 -11 m 276 742 q 237 772 253 760 q 210 792 221 785 q 188 806 196 800 q 288 960 254 906 q 321 1014 307 990 q 373 975 351 990 q 408 949 394 960 q 435 929 424 936 q 360 844 390 879 q 311 785 331 808 q 276 742 289 758 z "},"ù":{"ha":533,"x_min":29,"x_max":497,"o":"m 265 742 q 229 785 251 758 q 181 844 210 808 q 107 929 151 879 q 133 949 118 936 q 169 975 147 960 q 221 1014 190 990 q 254 960 235 990 q 354 806 288 906 q 332 792 346 800 q 265 742 308 776 m 204 -11 q 127 8 160 -11 q 73 71 94 26 q 40 188 51 115 q 29 369 29 261 q 33 531 29 450 q 47 693 38 611 q 88 689 63 692 q 221 681 131 685 q 212 551 214 618 q 210 433 210 485 q 213 286 210 342 q 224 200 217 231 q 242 159 232 169 q 267 149 253 149 q 303 180 289 149 q 317 261 317 211 q 316 428 317 347 q 313 571 315 508 q 307 710 310 644 q 350 708 324 710 q 409 706 374 707 q 494 707 444 706 l 494 500 q 494 268 494 401 q 497 -24 494 135 q 461 -22 483 -22 l 347 -22 q 349 14 349 -6 q 349 53 349 31 q 350 103 349 75 q 289 18 329 47 q 204 -11 249 -11 z "},"û":{"ha":533,"x_min":29,"x_max":497,"o":"m 204 -11 q 127 8 160 -11 q 73 71 94 26 q 40 188 51 115 q 29 369 29 261 q 33 531 29 450 q 47 693 38 611 q 88 689 63 692 q 221 681 131 685 q 212 551 214 618 q 210 433 210 485 q 213 286 210 342 q 224 200 217 231 q 242 159 232 169 q 267 149 253 149 q 303 180 289 149 q 317 261 317 211 q 316 428 317 347 q 313 571 315 508 q 307 710 310 644 q 350 708 324 710 q 409 706 374 707 q 494 707 444 706 l 494 500 q 494 268 494 401 q 497 -24 494 135 q 461 -22 483 -22 l 347 -22 q 349 14 349 -6 q 349 53 349 31 q 350 103 349 75 q 289 18 329 47 q 204 -11 249 -11 m 149 735 q 129 753 142 742 q 103 774 118 761 q 65 806 88 788 q 99 844 79 821 q 140 893 115 864 q 197 963 164 922 q 224 964 207 963 q 261 967 239 965 q 318 972 283 968 q 350 935 329 957 q 394 887 367 915 q 463 819 422 858 l 442 799 q 415 772 431 788 q 381 736 400 757 q 351 768 368 750 q 314 806 336 783 q 260 858 292 829 q 232 828 247 846 q 197 790 218 813 q 149 735 176 767 z "},"ü":{"ha":533,"x_min":29,"x_max":497,"o":"m 204 -11 q 127 8 160 -11 q 73 71 94 26 q 40 188 51 115 q 29 369 29 261 q 33 531 29 450 q 47 693 38 611 q 88 689 63 692 q 221 681 131 685 q 212 551 214 618 q 210 433 210 485 q 213 286 210 342 q 224 200 217 231 q 242 159 232 169 q 267 149 253 149 q 303 180 289 149 q 317 261 317 211 q 316 428 317 347 q 313 571 315 508 q 307 710 310 644 q 350 708 324 710 q 409 706 374 707 q 494 707 444 706 l 494 500 q 494 268 494 401 q 497 -24 494 135 q 461 -22 483 -22 l 347 -22 q 349 14 349 -6 q 349 53 349 31 q 350 103 349 75 q 289 18 329 47 q 204 -11 249 -11 m 369 774 q 311 799 333 774 q 289 867 289 824 q 310 928 289 903 q 371 953 331 953 q 430 926 411 953 q 449 863 449 899 q 427 796 449 818 q 369 774 406 774 m 161 768 q 99 796 119 768 q 78 860 78 824 q 101 926 78 900 q 161 951 125 951 q 224 924 204 951 q 243 860 243 896 q 219 790 243 811 q 161 768 194 768 z "},"†":{"ha":349,"x_min":10,"x_max":340,"o":"m 10 719 l 10 749 q 10 788 10 764 q 11 847 11 813 q 38 846 22 846 q 68 845 50 846 q 110 844 86 844 l 110 878 l 110 976 q 140 975 122 975 q 181 975 156 975 q 240 978 206 975 q 239 939 239 960 l 239 843 q 279 842 261 842 q 311 843 297 843 l 339 843 l 339 808 q 339 768 339 792 q 340 715 339 744 q 313 717 328 717 q 281 717 299 717 q 239 718 263 717 q 243 467 240 550 q 244 383 244 418 q 208 385 229 385 l 106 385 q 107 475 106 424 q 108 580 108 519 q 110 719 108 640 l 36 719 l 10 719 z "},"°":{"ha":340,"x_min":10,"x_max":332,"o":"m 171 703 q 218 730 203 703 q 233 803 233 757 q 219 872 233 843 q 171 901 204 901 q 124 872 139 901 q 108 803 108 842 q 125 729 108 756 q 171 703 142 703 m 172 618 q 109 629 139 618 q 57 663 79 640 q 22 722 35 686 q 10 807 10 758 q 19 874 10 842 q 49 931 29 907 q 99 969 69 954 q 169 983 129 983 q 291 935 250 983 q 332 807 332 886 q 291 669 332 719 q 172 618 250 618 z "},"¢":{"ha":521,"x_min":18,"x_max":508,"o":"m 190 85 q 63 208 107 111 q 18 490 18 304 q 57 764 18 663 q 193 890 96 865 q 191 942 192 918 q 189 985 190 967 q 188 1022 188 1006 q 264 1022 232 1021 q 317 1024 296 1022 q 358 1025 342 1025 q 354 945 356 981 q 351 886 353 910 q 428 843 397 872 q 476 771 458 814 q 499 673 493 728 q 501 554 504 618 q 416 557 450 557 q 360 557 382 557 l 318 557 q 310 706 321 657 q 267 754 299 754 q 221 693 232 754 q 210 501 210 632 q 213 357 210 413 q 224 270 217 301 q 244 228 232 239 q 271 217 256 217 q 294 227 283 217 q 312 261 306 238 q 321 325 318 285 q 319 425 324 365 q 365 424 339 424 q 503 428 411 424 q 471 188 508 267 q 354 85 433 108 q 355 30 354 54 q 357 -11 356 6 q 360 -46 358 -31 q 283 -44 315 -44 q 229 -44 251 -44 q 185 -46 204 -44 l 190 85 z "},"£":{"ha":551,"x_min":21,"x_max":544,"o":"m 22 344 l 22 474 q 21 519 22 499 q 44 518 32 518 l 85 518 q 58 615 71 567 q 46 721 46 663 q 60 825 46 776 q 106 910 75 874 q 185 969 138 947 q 300 990 233 990 q 426 960 376 990 q 503 876 476 929 q 538 749 531 822 q 536 592 544 676 l 485 592 q 424 592 460 592 q 346 596 389 593 q 342 780 356 725 q 299 835 329 835 q 242 704 242 835 q 251 606 242 650 q 271 518 260 561 q 358 519 321 518 q 418 521 394 519 q 465 522 446 522 q 465 444 465 476 q 467 389 465 411 q 469 346 468 364 l 290 346 q 271 256 286 297 q 232 181 256 215 q 360 178 281 179 q 532 181 439 178 q 529 140 531 165 q 528 83 528 118 q 528 -4 528 49 q 403 -1 476 -3 q 248 1 340 0 q 29 1 156 1 q 31 46 29 21 q 31 94 31 67 q 32 157 32 122 q 86 245 65 197 q 110 346 107 293 q 73 344 89 344 q 46 344 57 344 l 22 344 z "},"§":{"ha":528,"x_min":3,"x_max":517,"o":"m 190 418 q 216 361 190 382 q 308 321 242 340 q 338 392 338 350 q 313 453 338 429 q 228 493 289 478 q 199 458 208 478 q 190 418 190 439 m 269 -160 q 67 -76 131 -160 q 18 174 3 8 q 97 165 61 167 q 157 160 132 163 q 210 157 186 157 q 214 33 199 81 q 274 -14 229 -14 q 317 10 301 -14 q 333 75 333 35 q 305 149 333 118 q 194 206 276 181 q 54 280 97 236 q 11 401 11 324 q 40 490 11 454 q 110 546 69 526 q 40 631 63 578 q 18 744 18 683 q 83 921 18 857 q 253 985 147 985 q 447 903 389 985 q 494 663 506 822 q 414 669 447 667 q 358 672 381 671 q 317 675 333 674 q 312 798 328 758 q 264 838 296 838 q 221 810 236 838 q 206 742 206 783 q 235 669 206 697 q 324 622 265 642 q 421 582 383 603 q 480 537 458 561 q 509 484 501 513 q 517 422 517 456 q 492 331 517 374 q 428 264 467 288 q 517 89 517 211 q 499 -12 517 33 q 450 -91 482 -58 q 372 -142 418 -124 q 269 -160 326 -160 z "},"•":{"ha":306,"x_min":17,"x_max":289,"o":"m 154 313 q 51 358 86 313 q 17 474 17 404 q 53 588 17 546 q 153 629 89 629 q 213 617 188 629 q 256 583 239 604 q 281 533 272 561 q 289 475 289 506 q 252 353 289 394 q 154 313 215 313 z "},"¶":{"ha":582,"x_min":11,"x_max":549,"o":"m 372 801 q 342 799 357 800 q 314 794 328 797 q 311 657 313 733 q 309 494 310 581 q 308 313 308 407 q 307 121 307 218 q 186 157 240 128 q 93 238 132 186 q 33 367 54 290 q 11 543 11 443 q 119 861 11 758 q 435 964 228 964 q 485 963 460 964 q 539 958 511 961 q 539 689 538 847 q 541 349 539 553 q 549 -133 543 144 q 507 -131 532 -132 q 449 -129 485 -129 q 365 -129 414 -129 q 368 210 367 42 q 369 358 368 281 q 370 514 369 436 q 372 665 371 592 q 372 801 372 739 z "},"ß":{"ha":553,"x_min":33,"x_max":540,"o":"m 40 31 q 33 346 33 190 q 43 649 33 501 q 115 886 54 811 q 304 961 176 961 q 398 944 356 961 q 471 894 440 926 q 519 814 501 861 q 536 706 536 767 q 506 570 536 626 q 417 486 475 514 q 510 399 479 458 q 540 260 540 339 q 517 124 540 178 q 454 40 493 71 q 365 0 415 10 q 260 -6 314 -10 q 261 25 260 6 q 263 69 263 42 q 264 139 264 96 q 328 168 304 140 q 353 267 353 196 q 331 362 353 332 q 267 396 310 392 l 267 432 q 266 483 267 451 q 264 563 265 515 q 329 593 308 567 q 350 692 350 619 q 296 813 350 813 q 247 778 263 813 q 225 668 231 743 q 215 388 214 546 q 228 29 215 229 l 78 29 q 40 31 53 29 z "},"®":{"ha":467,"x_min":14,"x_max":454,"o":"m 215 683 q 260 749 260 683 q 249 801 260 783 q 214 817 239 819 q 213 763 213 788 q 214 721 214 739 q 215 683 214 700 m 263 503 q 256 536 260 517 q 248 575 253 551 q 236 626 243 599 q 229 625 233 625 q 215 624 225 624 q 215 585 215 611 q 217 507 214 560 l 194 507 l 126 507 q 128 607 126 550 q 128 724 128 656 q 129 881 129 793 q 172 888 151 886 q 211 890 192 890 q 317 858 278 890 q 356 754 356 825 q 343 696 356 721 q 310 656 331 671 q 322 608 313 640 q 351 521 332 576 q 328 517 342 519 q 299 510 317 514 q 263 503 282 507 m 238 446 q 358 500 317 446 q 399 679 399 554 q 360 873 399 806 q 228 940 322 940 q 106 879 143 940 q 69 689 69 818 q 77 584 69 629 q 103 508 85 539 q 155 462 122 478 q 238 446 188 446 m 236 392 q 133 413 175 392 q 64 472 90 433 q 26 567 38 511 q 14 693 14 622 q 26 817 14 761 q 63 911 38 872 q 130 972 89 950 q 231 993 171 993 q 337 969 294 993 q 406 905 379 946 q 443 808 432 864 q 454 685 454 751 q 397 460 454 529 q 236 392 340 392 z "},"©":{"ha":697,"x_min":22,"x_max":675,"o":"m 346 33 q 457 51 407 33 q 542 119 507 69 q 595 256 576 168 q 614 481 614 343 q 601 669 614 586 q 559 808 589 751 q 480 894 529 865 q 358 924 431 924 q 149 813 213 924 q 85 479 85 703 q 142 144 85 256 q 346 33 200 33 m 339 -25 q 203 2 263 -25 q 104 90 144 29 q 43 247 64 150 q 22 483 22 343 q 102 855 22 726 q 360 983 182 983 q 512 949 451 983 q 608 849 572 914 q 660 691 644 783 q 675 483 675 599 q 649 224 675 324 q 579 69 624 125 q 473 -6 535 14 q 339 -25 411 -25 m 349 111 q 260 129 297 111 q 200 190 224 147 q 165 302 176 232 q 154 475 154 372 q 202 747 154 657 q 360 836 250 836 q 447 815 411 836 q 502 755 482 793 q 530 663 522 717 q 535 544 538 608 q 472 547 500 546 q 425 549 444 549 l 383 549 q 378 674 385 638 q 351 710 371 710 q 333 699 340 710 q 320 662 325 689 q 313 588 315 635 q 311 469 311 542 q 313 349 311 394 q 319 278 315 303 q 331 244 324 253 q 349 236 338 236 q 364 243 357 236 q 376 270 371 250 q 383 325 382 290 q 383 415 385 360 q 449 415 419 414 q 497 415 478 415 q 538 417 521 415 q 525 264 539 324 q 486 170 511 204 q 426 124 461 136 q 349 111 392 111 z "},"™":{"ha":667,"x_min":7,"x_max":651,"o":"m 7 861 q 8 886 7 871 q 9 917 8 899 q 10 961 10 935 l 75 961 q 150 962 107 961 q 249 964 193 963 q 247 935 247 950 q 247 902 247 921 q 247 861 246 883 l 231 861 q 211 861 222 861 q 186 863 200 861 q 186 810 186 839 q 186 740 186 781 q 187 646 186 700 q 189 519 188 592 l 161 519 l 76 519 l 76 614 l 76 863 l 56 863 q 33 862 46 863 q 7 861 21 861 m 254 544 q 260 649 257 590 q 265 769 263 699 q 269 931 267 840 l 315 931 q 363 931 336 931 q 418 933 390 932 q 426 869 421 904 q 437 799 431 839 q 450 714 443 760 q 463 824 457 760 q 478 965 469 888 q 524 963 499 964 q 572 960 544 961 q 628 960 599 960 q 633 840 629 907 q 640 701 636 782 q 651 518 644 621 q 621 517 638 518 q 543 513 593 515 q 540 611 542 556 q 537 722 539 658 q 532 863 535 786 q 517 751 525 818 q 501 606 508 685 l 469 606 q 438 606 454 606 q 403 607 421 606 l 394 669 q 383 747 390 701 q 364 854 375 792 q 364 724 364 808 q 367 542 364 640 q 336 543 353 543 q 301 543 321 543 q 254 544 281 543 z "},"´":{"ha":551,"x_min":153,"x_max":400,"o":"m 242 731 q 202 761 218 749 q 175 781 186 774 q 153 794 161 789 q 253 949 219 894 q 286 1003 272 979 q 338 964 317 979 q 374 938 360 949 q 400 918 389 925 q 326 833 356 868 q 276 774 296 797 q 242 731 254 747 z "},"¨":{"ha":551,"x_min":90,"x_max":461,"o":"m 382 765 q 324 790 346 765 q 301 858 301 815 q 322 919 301 894 q 383 944 343 944 q 442 917 424 944 q 461 854 461 890 q 440 788 461 810 q 382 765 418 765 m 174 760 q 111 788 132 760 q 90 851 90 815 q 114 917 90 892 q 174 943 138 943 q 236 915 217 943 q 256 851 256 888 q 231 781 256 803 q 174 760 207 760 z "},"Æ":{"ha":742,"x_min":3,"x_max":728,"o":"m 296 824 q 270 644 288 768 q 229 322 253 521 q 276 322 250 322 q 340 321 301 321 q 319 559 331 431 q 296 824 308 688 m 696 385 q 638 386 668 386 l 511 386 q 518 278 514 333 q 528 167 522 224 l 581 167 q 642 167 606 167 q 725 169 679 167 q 724 125 724 150 q 723 71 724 103 q 722 -6 722 39 q 629 -7 682 -6 q 518 -10 583 -8 q 367 -14 453 -11 q 363 35 365 7 q 358 92 360 58 q 353 167 356 125 q 292 168 329 168 q 210 168 256 168 l 193 17 q 146 18 174 17 q 86 20 122 19 q 3 21 50 21 q 44 269 21 128 q 90 565 64 392 q 147 957 115 738 q 369 960 264 957 q 553 965 474 963 q 726 974 646 969 l 726 919 q 726 860 726 894 q 728 785 726 825 q 642 783 685 783 q 563 782 606 782 q 483 781 519 782 q 488 719 485 754 q 492 649 490 690 q 499 560 494 608 q 565 559 514 560 q 694 561 615 558 l 694 511 q 694 455 694 488 q 696 385 694 422 z "},"Ø":{"ha":594,"x_min":22,"x_max":558,"o":"m 286 117 q 317 133 304 117 q 336 192 329 150 q 347 306 343 233 q 350 489 350 378 q 335 747 350 669 q 286 824 321 824 q 256 806 268 824 q 237 747 244 788 q 226 642 229 707 q 222 481 222 576 q 226 305 222 375 q 237 193 229 235 q 256 134 244 151 q 286 117 268 117 m 193 -142 q 151 -122 175 -133 q 103 -100 132 -112 q 39 -72 75 -87 q 56 -40 46 -60 q 76 3 64 -24 q 106 65 88 29 q 22 486 22 190 q 85 854 22 732 q 288 976 149 976 q 358 967 328 976 q 369 999 364 982 q 381 1034 375 1014 q 393 1079 386 1054 q 433 1060 408 1071 q 558 1008 476 1040 q 536 974 549 993 q 511 931 525 956 q 481 874 497 906 q 556 482 556 756 q 494 94 556 221 q 288 -32 433 -32 q 228 -25 260 -32 q 213 -72 221 -44 q 193 -142 204 -100 z "},"¥":{"ha":565,"x_min":3,"x_max":564,"o":"m 46 269 l 46 297 q 42 394 46 325 l 67 394 q 102 394 81 394 q 156 394 124 393 q 101 597 139 460 q 3 939 64 733 q 43 940 17 939 q 106 942 67 942 q 208 946 146 943 q 226 831 215 897 q 251 688 236 772 q 286 493 265 604 q 313 635 299 558 q 339 788 324 701 q 369 974 354 874 q 414 971 386 972 q 474 969 438 969 q 564 969 511 969 q 525 825 547 910 q 478 647 506 753 q 415 401 450 540 q 467 402 443 401 q 522 404 490 403 q 521 375 521 392 q 520 336 521 360 q 521 279 519 313 l 486 279 q 440 278 468 279 q 372 278 413 278 q 372 254 371 264 q 372 238 372 244 l 372 225 l 525 229 l 525 204 q 524 167 525 190 q 525 110 524 144 l 489 110 q 442 109 469 110 q 374 108 414 108 l 378 -19 q 343 -18 367 -18 q 288 -19 324 -18 q 196 -21 253 -19 l 196 15 q 197 55 196 32 q 197 106 197 78 l 40 101 l 40 129 q 41 167 40 144 q 42 222 42 190 l 76 222 q 125 222 96 222 q 196 222 154 221 q 196 247 196 235 q 194 274 196 260 l 46 269 z "},"ª":{"ha":417,"x_min":10,"x_max":399,"o":"m 254 661 q 253 669 254 664 q 253 682 253 675 l 253 697 q 179 668 200 693 q 158 611 158 643 q 170 564 158 579 q 200 549 182 549 q 240 574 225 549 q 254 661 254 600 m 149 451 q 49 489 88 451 q 10 597 10 526 q 72 726 10 681 q 247 771 135 771 l 247 788 q 240 856 247 835 q 211 878 232 878 q 164 789 168 878 q 124 792 146 790 q 79 793 104 793 q 24 794 54 793 q 77 933 24 886 q 214 981 131 981 q 349 925 310 981 q 394 775 389 869 q 398 661 397 717 q 397 561 399 606 q 394 465 396 510 q 364 464 381 464 l 276 464 q 278 485 276 474 q 279 508 279 494 q 281 536 279 521 q 231 474 265 496 q 149 451 197 451 z "},"º":{"ha":435,"x_min":11,"x_max":424,"o":"m 219 546 q 256 581 243 546 q 268 714 268 617 q 219 879 268 879 q 181 842 193 879 q 168 722 168 806 q 180 583 168 621 q 219 546 192 546 m 217 442 q 63 510 114 442 q 11 725 11 578 q 67 917 11 851 q 218 983 122 983 q 375 913 326 983 q 424 717 424 843 q 367 506 424 571 q 217 442 311 442 z "},"æ":{"ha":832,"x_min":11,"x_max":813,"o":"m 564 579 q 525 543 540 579 q 506 413 510 507 q 554 414 528 414 q 617 417 581 414 q 604 536 618 493 q 564 579 590 579 m 246 114 q 295 149 278 114 q 313 276 313 185 l 313 308 q 220 272 249 301 q 192 188 192 242 q 204 135 192 157 q 246 114 217 114 m 574 -21 q 467 3 515 -21 q 392 79 419 26 q 321 7 367 32 q 213 -18 275 -18 q 68 32 125 -18 q 11 176 11 82 q 80 335 11 275 q 304 407 149 396 l 304 431 q 293 537 303 508 q 257 565 283 565 q 219 535 233 565 q 207 438 204 506 q 160 436 186 436 q 105 435 136 436 q 33 436 74 435 q 43 541 31 493 q 83 624 56 589 q 153 678 111 658 q 254 697 196 697 q 347 676 308 697 q 407 617 385 656 q 473 679 432 656 q 572 703 514 703 q 690 675 643 703 q 765 597 738 647 q 803 474 793 546 q 807 314 813 401 q 725 313 771 313 q 629 311 685 311 q 504 308 574 311 q 520 160 506 206 q 568 114 535 114 q 607 142 592 114 q 625 240 622 169 q 683 239 653 239 q 743 238 710 238 q 813 236 776 238 q 738 43 799 107 q 574 -21 676 -21 z "},"ø":{"ha":572,"x_min":29,"x_max":542,"o":"m 283 113 q 311 124 300 113 q 329 161 322 135 q 340 232 336 188 q 343 343 343 276 q 340 462 343 415 q 328 535 336 508 q 310 573 321 563 q 283 583 299 583 q 259 572 269 583 q 241 532 249 560 q 229 460 233 504 q 225 349 225 415 q 228 235 225 281 q 238 162 231 189 q 256 124 244 135 q 283 113 267 113 m 282 -11 q 217 -3 246 -11 l 178 -117 q 135 -94 158 -107 q 88 -72 115 -83 q 29 -44 61 -60 q 49 -14 38 -31 q 72 22 58 1 q 101 71 85 43 q 47 190 64 119 q 31 351 31 261 q 97 626 31 540 q 286 711 164 711 q 350 704 318 711 q 389 821 364 743 q 429 800 406 811 q 542 746 468 779 q 522 714 533 732 q 499 676 513 699 q 471 625 486 653 q 523 503 507 576 q 539 342 539 431 q 524 197 539 263 q 476 85 508 132 q 396 14 444 39 q 282 -11 347 -11 z "},"¿":{"ha":525,"x_min":14,"x_max":529,"o":"m 307 601 q 214 636 244 601 q 183 729 183 671 q 216 819 183 786 q 303 851 249 851 q 399 816 367 851 q 431 724 431 781 q 395 634 431 667 q 307 601 360 601 m 253 -147 q 147 -127 192 -147 q 72 -71 101 -107 q 28 15 43 -35 q 14 125 14 65 q 28 247 14 196 q 67 335 42 299 q 130 394 93 371 q 213 431 167 418 q 212 473 213 451 q 211 511 211 494 l 211 549 q 346 549 296 546 q 399 551 375 550 q 399 458 399 501 q 400 383 399 415 q 403 317 401 347 q 311 305 347 315 q 254 274 275 294 q 225 223 233 254 q 217 149 217 192 q 269 4 217 4 q 318 58 310 4 q 319 213 326 113 q 372 215 343 214 q 432 217 397 217 q 510 221 467 218 q 467 -58 529 32 q 253 -147 406 -147 z "},"¡":{"ha":283,"x_min":18,"x_max":264,"o":"m 140 600 q 48 639 78 600 q 18 728 18 678 q 51 817 18 785 q 138 850 85 850 q 230 817 196 850 q 264 724 264 785 q 232 635 264 669 q 140 600 200 600 m 40 -133 q 46 67 42 -42 q 52 283 49 160 q 60 546 56 406 q 104 544 79 544 q 154 544 125 544 q 219 546 183 544 q 226 333 222 446 q 234 116 229 238 q 246 -133 239 -6 q 190 -132 222 -132 q 125 -132 163 -132 q 40 -133 88 -132 z "},"ƒ":{"ha":579,"x_min":15,"x_max":565,"o":"m 503 451 q 458 453 479 453 q 422 454 438 454 l 388 454 q 361 246 375 351 q 331 49 347 140 q 296 -69 318 -21 q 240 -147 274 -117 q 164 -190 207 -176 q 67 -203 121 -203 q 42 -203 54 -203 q 15 -201 29 -203 q 17 -165 15 -189 q 19 -112 18 -146 q 22 -29 19 -79 q 80 -26 57 -32 q 118 -6 103 -21 q 142 33 133 8 q 157 93 150 57 q 185 274 174 183 q 207 457 196 365 l 185 457 l 124 457 q 126 548 125 515 q 126 597 126 581 l 126 624 l 226 621 l 242 719 q 474 965 279 965 q 565 957 515 965 q 560 882 561 913 q 557 832 558 851 q 556 793 556 808 q 539 795 547 794 q 524 796 531 796 q 458 770 481 796 q 424 686 435 744 l 411 618 l 479 618 q 501 619 493 618 l 501 483 q 503 451 501 461 z "},"«":{"ha":450,"x_min":4,"x_max":439,"o":"m 303 215 q 276 281 292 243 q 242 360 263 313 q 194 471 222 407 q 224 526 207 493 q 259 597 239 554 q 307 699 279 639 q 335 696 317 697 q 376 693 350 694 q 439 692 401 692 q 406 628 424 664 q 369 555 390 597 q 325 461 349 513 q 350 400 335 436 q 385 325 364 369 q 435 219 406 281 l 406 219 q 303 215 375 219 m 114 211 q 85 283 100 243 q 50 367 69 318 q 4 476 31 415 l 38 539 q 77 616 54 571 q 129 721 100 661 q 161 718 142 719 q 203 717 178 717 q 264 717 228 717 q 228 649 247 686 q 188 571 211 617 q 139 471 165 525 q 164 407 149 443 q 197 329 176 375 q 244 222 217 283 q 217 221 233 222 q 176 217 201 219 q 114 211 151 214 z "},"»":{"ha":457,"x_min":11,"x_max":453,"o":"m 340 221 q 311 224 329 222 q 270 226 296 225 q 207 226 244 226 q 235 281 219 247 q 269 353 249 308 q 319 461 290 399 l 294 524 q 262 600 282 556 q 214 706 242 644 l 243 706 q 284 707 258 706 q 347 711 310 708 q 374 643 358 682 q 406 563 388 610 q 453 453 425 515 q 424 396 440 429 q 388 324 408 367 q 340 221 367 281 m 143 213 q 111 214 131 213 q 69 215 94 215 q 11 217 44 215 q 40 272 24 238 q 77 347 56 301 q 129 458 99 392 q 101 528 117 490 q 69 605 88 560 q 28 703 51 650 q 54 704 38 703 q 93 707 69 706 q 156 713 117 708 l 181 646 q 213 564 193 613 q 261 451 233 515 q 226 386 244 422 q 190 310 211 354 q 143 213 168 265 z "},"…":{"ha":711,"x_min":17,"x_max":696,"o":"m 593 -3 q 515 33 540 -3 q 490 114 490 68 q 518 196 490 165 q 594 226 546 226 q 669 194 643 226 q 696 113 696 161 q 667 24 696 50 q 593 -3 638 -3 m 354 -17 q 279 18 304 -17 q 254 101 254 53 q 282 185 254 154 q 356 217 310 217 q 431 184 404 217 q 457 103 457 151 q 428 10 457 38 q 354 -17 399 -17 m 118 7 q 41 41 65 7 q 17 124 17 75 q 44 207 17 176 q 119 238 72 238 q 194 205 168 238 q 221 124 221 172 q 192 34 221 61 q 118 7 163 7 z "},"À":{"ha":561,"x_min":3,"x_max":558,"o":"m 272 1018 q 236 1061 258 1035 q 188 1120 217 1085 q 114 1206 158 1156 q 140 1225 125 1213 q 176 1251 154 1236 q 228 1290 197 1267 q 261 1236 242 1267 q 361 1082 294 1182 q 339 1068 353 1076 q 272 1018 315 1053 m 271 814 q 249 624 264 753 q 218 322 235 496 l 244 322 q 278 322 258 322 q 325 322 297 321 q 302 538 315 418 q 271 814 289 658 m 3 21 q 42 276 19 132 q 85 575 60 400 q 139 969 110 750 q 244 974 196 972 q 329 975 293 975 l 407 975 q 451 668 426 831 q 499 351 472 529 q 558 -21 526 172 q 504 -19 535 -19 q 441 -20 478 -19 q 360 -22 404 -21 q 356 24 358 -4 q 349 83 353 47 q 342 167 346 118 q 283 167 318 167 q 203 168 249 168 l 190 18 q 144 19 171 18 q 86 20 121 19 q 3 21 51 21 z "},"Ã":{"ha":561,"x_min":3,"x_max":558,"o":"m 181 1040 l 156 1040 q 124 1039 143 1040 q 78 1036 104 1038 q 105 1178 72 1128 q 188 1229 138 1229 q 234 1218 213 1229 q 274 1194 256 1207 q 307 1171 292 1182 q 336 1160 322 1160 q 365 1224 374 1160 q 385 1224 371 1222 q 414 1226 396 1224 q 460 1231 432 1228 q 446 1087 474 1136 q 356 1038 418 1038 q 313 1047 332 1038 q 275 1069 293 1057 q 242 1090 257 1081 q 211 1100 226 1100 q 181 1040 176 1100 m 271 814 q 249 624 264 753 q 218 322 235 496 l 244 322 q 278 322 258 322 q 325 322 297 321 q 302 538 315 418 q 271 814 289 658 m 3 21 q 42 276 19 132 q 85 575 60 400 q 139 969 110 750 q 244 974 196 972 q 329 975 293 975 l 407 975 q 451 668 426 831 q 499 351 472 529 q 558 -21 526 172 q 504 -19 535 -19 q 441 -20 478 -19 q 360 -22 404 -21 q 356 24 358 -4 q 349 83 353 47 q 342 167 346 118 q 283 167 318 167 q 203 168 249 168 l 190 18 q 144 19 171 18 q 86 20 121 19 q 3 21 51 21 z "},"Õ":{"ha":582,"x_min":22,"x_max":560,"o":"m 200 1038 l 175 1038 q 143 1036 163 1038 q 97 1033 124 1035 q 124 1176 92 1125 q 207 1226 157 1226 q 253 1215 232 1226 q 293 1192 275 1204 q 326 1168 311 1179 q 356 1157 342 1157 q 385 1221 393 1157 q 404 1221 390 1219 q 433 1223 415 1221 q 479 1228 451 1225 q 465 1084 493 1133 q 375 1035 438 1035 q 332 1044 351 1035 q 294 1066 313 1054 q 261 1088 276 1078 q 231 1097 246 1097 q 200 1038 196 1097 m 293 125 q 320 140 308 125 q 340 194 332 154 q 351 306 347 235 q 354 490 354 376 q 351 656 354 590 q 339 760 347 721 q 319 816 331 800 q 290 832 307 832 q 260 814 272 832 q 241 756 249 796 q 231 650 233 715 q 228 492 228 585 q 231 310 228 381 q 242 198 235 239 q 263 141 250 157 q 293 125 275 125 m 290 -22 q 164 10 215 -22 q 81 105 113 42 q 36 263 50 168 q 22 482 22 357 q 34 678 22 586 q 76 838 46 769 q 158 944 106 906 q 290 983 210 983 q 424 947 372 983 q 507 844 476 910 q 549 686 538 778 q 560 483 560 594 q 542 242 558 339 q 492 86 525 144 q 408 3 458 28 q 290 -22 358 -22 z "},"Œ":{"ha":771,"x_min":22,"x_max":757,"o":"m 292 125 q 319 140 308 125 q 338 194 331 154 q 349 306 346 235 q 353 489 353 376 q 349 653 353 588 q 338 759 346 719 q 318 815 331 799 q 289 831 306 831 q 260 813 272 831 q 241 756 249 796 q 230 650 233 715 q 226 488 226 585 q 230 309 226 379 q 241 198 233 239 q 261 141 249 157 q 292 125 274 125 m 724 385 l 669 385 q 610 385 644 385 q 540 386 576 386 q 541 286 540 338 q 543 181 542 235 q 600 178 567 179 q 667 174 628 176 q 754 171 706 172 q 753 126 753 151 q 751 72 751 104 q 751 -4 751 39 q 669 1 719 -1 q 560 6 626 4 q 401 11 494 8 q 403 25 403 17 q 403 42 403 32 q 404 67 403 53 q 347 0 385 22 q 264 -22 308 -22 q 82 100 142 -22 q 22 482 22 222 q 36 692 22 599 q 80 850 50 785 q 157 950 110 915 q 269 985 204 985 q 349 962 314 985 q 404 901 385 939 q 403 923 404 911 q 403 958 403 935 q 471 960 425 958 q 578 963 510 961 q 754 969 646 965 l 754 918 q 755 859 754 893 q 757 785 756 825 q 688 783 724 783 q 617 782 656 782 q 543 781 579 782 q 542 721 542 756 q 541 651 542 692 q 540 560 540 610 l 590 560 q 647 560 614 560 q 724 561 681 560 l 724 511 q 723 455 724 488 q 724 385 722 422 z "},"œ":{"ha":863,"x_min":22,"x_max":847,"o":"m 593 574 q 551 531 565 574 q 533 388 536 489 l 646 392 q 635 531 647 488 q 593 574 622 574 m 276 110 q 301 119 290 110 q 319 156 311 129 q 331 228 326 182 q 335 349 335 275 q 320 526 335 472 q 276 579 306 579 q 231 528 244 579 q 217 354 217 478 q 220 231 217 279 q 231 156 224 183 q 249 119 238 129 q 276 110 261 110 m 610 -22 q 429 75 485 -22 q 364 9 406 33 q 267 -15 322 -15 q 155 10 201 -15 q 79 84 108 36 q 36 201 50 132 q 22 356 22 269 q 85 617 22 528 q 265 707 147 707 q 365 679 324 707 q 432 608 407 651 q 499 675 457 651 q 600 699 542 699 q 790 598 733 699 q 836 296 847 497 q 764 294 807 296 q 670 292 728 293 q 533 289 613 292 q 551 153 536 194 q 597 111 567 111 q 637 139 622 111 q 653 236 651 167 q 711 235 679 235 q 772 233 738 233 q 842 232 806 233 q 772 42 831 107 q 610 -22 714 -22 z "},"–":{"ha":381,"x_min":14,"x_max":367,"o":"m 367 374 q 230 376 293 375 q 118 376 167 376 l 14 376 q 16 455 15 425 q 17 501 17 485 l 17 529 q 141 528 79 528 q 253 529 203 529 l 365 529 l 365 408 q 367 374 365 386 z "},"—":{"ha":456,"x_min":14,"x_max":442,"o":"m 17 374 l 17 401 q 16 448 17 418 q 14 528 15 478 l 156 528 q 293 528 218 528 q 442 529 368 528 q 440 494 440 517 l 440 374 q 290 375 365 375 q 153 375 226 375 q 17 374 79 375 z "},"“":{"ha":439,"x_min":18,"x_max":424,"o":"m 321 631 q 253 663 279 631 q 228 746 228 694 q 259 853 228 800 q 353 964 290 907 q 385 941 371 950 q 407 925 399 932 q 424 911 417 918 q 380 857 394 882 q 358 818 365 832 q 400 785 386 808 q 414 733 414 761 q 388 658 414 685 q 321 631 361 631 m 111 657 q 42 691 67 657 q 18 772 18 725 q 55 888 18 831 q 153 999 92 946 q 181 976 168 985 q 204 960 194 967 q 224 946 215 953 q 178 890 194 914 q 156 853 163 867 q 194 818 179 842 q 208 763 208 794 q 183 687 208 717 q 111 657 158 657 z "},"”":{"ha":439,"x_min":17,"x_max":421,"o":"m 86 653 q 55 674 68 665 q 33 690 42 683 q 17 704 24 697 q 59 756 44 732 q 79 793 74 781 q 40 828 53 804 q 26 879 26 851 q 53 951 26 924 q 121 978 81 978 q 187 949 161 978 q 213 867 213 919 q 181 759 213 813 q 86 653 149 706 m 289 647 q 260 669 274 660 q 238 686 247 679 q 218 700 226 693 q 262 758 246 732 q 285 799 278 783 q 247 834 261 810 q 232 892 232 858 q 258 966 232 936 q 329 996 283 996 q 397 962 372 996 q 421 882 421 928 q 383 758 421 817 q 289 647 346 700 z "},"‘":{"ha":231,"x_min":18,"x_max":215,"o":"m 111 657 q 44 688 71 657 q 18 769 18 718 q 144 985 18 875 q 176 963 163 972 q 199 946 190 953 q 215 932 208 938 q 171 878 186 903 q 150 840 156 854 q 192 806 178 829 q 206 756 206 783 q 179 684 206 711 q 111 657 153 657 z "},"’":{"ha":240,"x_min":17,"x_max":222,"o":"m 89 656 q 59 678 72 668 q 36 694 46 688 q 17 708 25 701 q 60 765 44 740 q 83 803 76 789 q 47 838 61 814 q 32 893 32 861 q 57 967 32 938 q 129 996 82 996 q 198 963 174 996 q 222 883 222 931 q 183 762 222 819 q 89 656 144 704 z "},"÷":{"ha":404,"x_min":13,"x_max":392,"o":"m 203 321 q 266 297 246 321 q 286 229 286 274 q 261 163 286 186 q 203 140 236 140 q 142 164 165 140 q 119 229 119 188 q 140 296 119 271 q 203 321 161 321 m 201 758 q 264 731 243 758 q 285 667 285 703 q 260 601 285 625 q 200 576 236 576 q 141 600 165 576 q 117 667 117 624 q 139 735 117 711 q 201 758 161 758 m 13 521 q 140 519 78 519 q 253 518 201 518 q 340 519 304 518 q 392 519 376 519 q 389 420 389 457 q 389 376 389 383 q 139 378 233 379 q 13 376 44 378 q 13 480 14 447 q 13 521 13 513 z "},"ÿ":{"ha":535,"x_min":3,"x_max":532,"o":"m 374 772 q 315 797 338 772 q 293 865 293 822 q 314 926 293 901 q 375 951 335 951 q 434 924 415 951 q 453 861 453 897 q 431 794 453 817 q 374 772 410 772 m 165 767 q 103 794 124 767 q 82 858 82 822 q 106 924 82 899 q 165 950 129 950 q 228 922 208 950 q 247 858 247 894 q 223 788 247 810 q 165 767 199 767 m 318 -304 q 228 -292 264 -297 q 174 -285 193 -287 q 138 -281 149 -282 q 156 -180 149 -222 q 168 -110 164 -137 q 176 -54 174 -76 q 103 262 135 128 q 49 488 71 396 q 3 668 24 594 q 150 672 97 668 q 204 676 181 674 q 228 476 217 565 q 249 325 239 388 q 269 194 260 251 q 315 586 303 458 q 326 713 322 661 q 396 708 360 710 q 463 706 432 707 q 532 703 499 704 q 423 199 465 396 q 358 -108 381 3 q 318 -304 331 -240 z "},"Ÿ":{"ha":565,"x_min":3,"x_max":564,"o":"m 388 1036 q 329 1061 351 1036 q 307 1129 307 1086 q 328 1190 307 1165 q 389 1215 349 1215 q 448 1188 429 1215 q 467 1125 467 1161 q 445 1058 467 1081 q 388 1036 424 1036 m 179 1031 q 117 1058 138 1031 q 96 1122 96 1086 q 119 1188 96 1163 q 179 1214 143 1214 q 242 1186 222 1214 q 261 1122 261 1158 q 237 1052 261 1074 q 179 1031 213 1031 m 190 -18 q 192 26 192 -3 q 192 94 192 51 q 189 203 192 136 q 150 369 175 267 q 92 597 128 457 q 3 939 56 736 q 42 940 15 939 q 104 942 65 942 q 207 946 143 943 q 228 811 215 886 q 253 660 239 747 q 286 471 267 574 q 311 615 297 536 q 338 774 322 683 q 369 974 353 865 q 414 971 388 972 q 474 969 438 969 q 564 969 511 969 q 513 765 540 882 q 453 524 488 665 q 378 206 419 383 l 378 167 q 378 99 378 143 q 382 -17 379 56 q 343 -15 368 -15 q 284 -16 321 -15 q 190 -18 247 -17 z "},"⁄":{"ha":514,"x_min":-28,"x_max":542,"o":"m 65 -10 q 28 -5 46 -7 q -1 -1 11 -3 q -28 0 -17 0 q 181 417 92 238 q 329 719 269 597 q 447 967 399 863 q 485 963 468 964 q 515 961 503 961 l 542 961 q 398 675 461 801 q 286 451 335 549 q 203 281 238 353 q 143 157 168 208 q 65 -10 86 38 z "},"‹":{"ha":260,"x_min":4,"x_max":249,"o":"m 108 210 q 83 275 99 238 q 51 355 71 307 q 4 468 32 403 q 33 525 17 490 q 117 700 63 581 q 144 697 126 699 q 185 695 160 696 q 249 694 210 694 q 221 640 236 674 q 185 568 207 613 q 136 461 164 524 q 161 401 146 438 q 194 325 174 371 q 242 217 214 279 q 213 215 231 217 q 172 213 197 214 q 108 210 146 213 z "},"›":{"ha":256,"x_min":11,"x_max":251,"o":"m 143 211 q 114 214 132 213 q 73 215 99 215 q 11 217 47 215 l 40 275 q 74 349 54 304 q 121 451 94 393 q 97 510 113 474 q 65 586 85 540 q 15 699 44 632 l 43 699 q 84 699 58 699 q 147 703 110 700 q 172 639 157 676 q 204 558 185 607 q 251 443 224 510 q 222 385 238 419 q 188 313 208 356 q 143 211 168 269 z "},"ﬁ":{"ha":631,"x_min":10,"x_max":614,"o":"m 511 757 q 431 788 457 757 q 406 876 406 819 q 431 958 406 928 q 513 988 457 988 q 589 956 564 988 q 614 875 614 925 q 585 785 614 813 q 511 757 556 757 m 421 -22 l 421 135 q 420 350 421 218 q 417 675 419 482 l 463 675 q 519 675 486 675 q 599 676 553 675 q 599 493 597 599 q 600 274 599 403 q 604 -21 601 146 l 553 -21 q 495 -22 529 -21 q 421 -22 461 -22 m 368 492 l 342 492 q 310 492 329 492 q 268 493 292 493 q 267 324 267 408 q 268 171 268 240 l 268 17 l 215 17 q 158 16 192 17 q 88 15 125 15 q 85 161 86 83 q 83 314 83 228 q 83 494 83 400 l 10 494 q 11 535 11 510 q 11 588 11 556 q 10 664 11 619 q 31 663 18 664 q 54 660 40 661 q 85 660 68 660 l 85 701 q 131 905 85 836 q 281 974 176 974 q 325 972 301 974 q 375 963 349 969 l 371 925 q 367 876 368 906 q 364 801 365 846 q 290 783 311 806 q 269 693 269 760 l 269 656 q 319 654 294 654 q 372 654 343 654 q 369 611 371 636 q 368 560 368 590 q 368 492 368 529 z "},"ﬂ":{"ha":639,"x_min":10,"x_max":603,"o":"m 603 -7 q 522 -5 557 -6 q 464 -4 488 -4 l 417 -4 q 419 408 419 228 q 419 714 419 588 q 418 971 419 861 q 556 967 510 967 l 603 967 q 599 517 600 701 q 600 215 599 332 q 603 -7 600 78 m 365 492 l 339 492 q 309 492 326 492 q 268 493 292 493 q 267 325 267 408 q 268 174 268 242 l 268 22 l 215 22 q 158 22 192 22 q 88 21 125 21 q 85 164 86 88 q 83 315 83 231 q 83 494 83 400 l 10 494 q 11 535 11 510 q 11 588 11 556 q 10 667 11 621 q 31 665 19 665 q 53 664 40 664 q 85 663 67 664 l 85 672 q 129 876 86 806 q 281 946 172 946 q 378 933 324 946 l 374 896 q 369 847 371 876 q 367 772 368 817 q 321 772 339 775 q 291 756 303 768 q 274 721 279 743 q 269 664 269 699 l 269 657 l 369 656 q 367 611 368 636 q 365 560 365 590 q 365 492 365 529 z "},"‡":{"ha":349,"x_min":10,"x_max":340,"o":"m 11 764 q 10 820 11 799 q 10 853 10 842 l 10 872 l 106 872 l 104 978 q 140 976 119 976 q 184 976 158 976 q 242 976 210 975 q 240 949 240 964 l 240 874 q 283 874 264 874 q 314 875 301 875 q 340 876 329 875 q 339 826 339 847 q 339 793 339 806 l 339 768 l 239 768 l 239 607 l 340 607 q 339 588 339 601 q 338 555 338 576 q 338 499 338 533 q 311 500 326 500 q 281 500 299 500 q 239 501 263 500 l 239 385 q 207 386 225 386 q 167 385 192 386 q 108 383 142 385 l 108 503 l 11 503 l 11 528 q 10 561 11 540 q 10 611 10 582 q 36 610 21 610 q 67 609 49 610 q 108 608 85 608 q 108 683 108 644 q 107 767 108 722 q 65 765 83 765 q 35 765 46 765 q 11 764 19 765 z "},"·":{"ha":253,"x_min":22,"x_max":231,"o":"m 125 351 q 49 386 76 351 q 22 469 22 421 q 52 553 22 519 q 126 586 82 586 q 201 554 171 586 q 231 469 231 522 q 201 381 231 411 q 125 351 172 351 z "},"‚":{"ha":238,"x_min":17,"x_max":219,"o":"m 89 -149 q 59 -127 72 -136 q 36 -111 46 -118 q 17 -97 25 -104 q 59 -41 44 -65 q 81 -3 74 -17 q 44 32 57 8 q 31 86 31 56 q 56 161 31 132 q 126 190 81 190 q 195 157 171 190 q 219 78 219 124 q 183 -42 219 13 q 89 -149 146 -97 z "},"„":{"ha":439,"x_min":17,"x_max":421,"o":"m 86 -143 q 55 -122 68 -131 q 33 -106 42 -112 q 17 -92 24 -99 q 59 -39 44 -62 q 79 -1 74 -15 q 39 32 53 8 q 25 83 25 56 q 51 155 25 128 q 119 182 78 182 q 185 152 160 182 q 211 71 211 122 q 180 -37 211 14 q 86 -143 149 -89 m 289 -144 q 260 -122 274 -132 q 238 -106 247 -112 q 218 -92 226 -99 q 261 -35 246 -60 q 283 4 276 -10 q 247 40 260 15 q 233 97 233 64 q 258 172 233 143 q 329 201 283 201 q 397 168 374 201 q 421 89 421 135 q 383 -36 421 22 q 289 -144 346 -94 z "},"‰":{"ha":1172,"x_min":7,"x_max":1165,"o":"m 983 -7 q 906 6 940 -7 q 848 49 872 19 q 811 126 824 78 q 799 243 799 174 q 843 432 799 361 q 983 503 888 503 q 1067 485 1032 503 q 1123 437 1101 468 q 1155 361 1144 406 q 1165 264 1165 317 q 983 -7 1165 -7 m 983 83 q 1018 119 1007 83 q 1029 251 1029 154 q 1019 369 1029 332 q 983 407 1010 407 q 947 372 958 407 q 936 247 936 338 q 939 165 936 197 q 948 115 942 133 q 963 90 954 97 q 983 83 971 83 m 579 -18 q 492 0 528 -18 q 435 53 457 18 q 405 136 414 88 q 396 247 396 185 q 407 344 396 300 q 441 422 418 389 q 499 472 464 454 q 582 490 535 490 q 667 472 632 490 q 723 421 701 454 q 755 340 744 388 q 765 236 765 293 q 752 117 765 165 q 715 38 739 68 q 656 -5 690 8 q 579 -18 621 -18 m 581 72 q 615 105 604 72 q 626 232 626 138 q 616 360 626 324 q 581 396 606 396 q 546 361 557 396 q 535 242 535 326 q 546 107 535 142 q 581 72 557 72 m 189 -10 q 152 -5 169 -7 q 122 -1 135 -3 q 96 0 107 0 q 303 417 215 238 q 451 719 392 597 q 569 967 521 863 q 609 963 592 964 q 639 961 626 961 l 665 961 q 522 675 585 801 q 410 451 458 549 q 326 281 361 353 q 267 157 292 208 q 189 -10 210 38 m 189 483 q 47 556 86 483 q 7 756 7 629 q 53 929 7 865 q 192 993 99 993 q 330 926 286 993 q 374 735 374 860 q 360 615 374 664 q 323 538 347 567 q 265 496 299 508 q 189 483 231 483 m 190 575 q 210 582 201 575 q 225 607 219 589 q 233 657 231 625 q 236 739 236 689 q 226 862 236 826 q 190 897 215 897 q 154 860 165 897 q 143 743 143 822 q 146 662 143 694 q 154 610 149 629 q 169 583 160 590 q 190 575 178 575 z "},"Â":{"ha":561,"x_min":3,"x_max":558,"o":"m 156 1008 q 136 1026 149 1015 q 110 1048 125 1035 q 72 1079 94 1061 q 106 1118 86 1094 q 147 1167 122 1138 q 204 1236 171 1196 q 231 1238 214 1236 q 268 1240 246 1239 q 325 1246 290 1242 q 357 1208 336 1231 q 401 1160 374 1189 q 469 1093 429 1132 l 449 1072 q 422 1046 438 1061 q 388 1010 407 1031 q 358 1042 375 1024 q 321 1080 343 1057 q 267 1132 299 1103 q 239 1101 254 1119 q 204 1063 225 1086 q 156 1008 183 1040 m 271 814 q 249 624 264 753 q 218 322 235 496 l 244 322 q 278 322 258 322 q 325 322 297 321 q 302 538 315 418 q 271 814 289 658 m 3 21 q 42 276 19 132 q 85 575 60 400 q 139 969 110 750 q 244 974 196 972 q 329 975 293 975 l 407 975 q 451 668 426 831 q 499 351 472 529 q 558 -21 526 172 q 504 -19 535 -19 q 441 -20 478 -19 q 360 -22 404 -21 q 356 24 358 -4 q 349 83 353 47 q 342 167 346 118 q 283 167 318 167 q 203 168 249 168 l 190 18 q 144 19 171 18 q 86 20 121 19 q 3 21 51 21 z "},"Ê":{"ha":450,"x_min":35,"x_max":435,"o":"m 46 4 q 43 274 44 125 q 40 577 42 401 q 35 964 38 753 q 126 965 71 964 q 248 967 174 967 q 428 969 322 967 l 428 918 q 428 859 428 893 q 429 785 428 825 q 361 783 397 783 q 294 782 331 782 q 222 781 257 782 l 222 721 q 222 650 222 692 q 224 556 222 608 q 277 555 232 556 q 401 557 322 554 l 401 507 q 401 451 401 483 q 403 381 401 419 l 351 381 q 296 381 328 381 q 226 382 264 382 q 228 284 228 335 q 232 179 229 233 q 288 176 257 178 q 351 174 314 175 q 433 171 388 172 q 432 126 432 151 q 431 72 431 104 q 431 -4 431 39 q 317 -1 378 -3 q 194 1 264 0 q 46 4 125 3 m 121 1013 q 101 1031 114 1019 q 75 1052 90 1039 q 38 1083 60 1065 q 71 1122 51 1099 q 112 1171 88 1142 q 169 1240 136 1200 q 196 1242 179 1240 q 233 1244 211 1243 q 290 1250 256 1246 q 322 1213 301 1235 q 367 1165 339 1193 q 435 1097 394 1136 l 414 1076 q 388 1050 403 1065 q 353 1014 372 1035 q 324 1046 340 1028 q 286 1084 308 1061 q 232 1136 264 1107 q 204 1106 219 1124 q 169 1067 190 1090 q 121 1013 149 1044 z "},"Á":{"ha":561,"x_min":3,"x_max":558,"o":"m 283 1018 q 244 1049 260 1036 q 217 1068 228 1061 q 194 1082 203 1076 q 294 1236 261 1182 q 328 1290 314 1267 q 380 1251 358 1267 q 415 1225 401 1236 q 442 1206 431 1213 q 367 1120 397 1156 q 318 1061 338 1085 q 283 1018 296 1035 m 271 814 q 249 624 264 753 q 218 322 235 496 l 244 322 q 278 322 258 322 q 325 322 297 321 q 302 538 315 418 q 271 814 289 658 m 3 21 q 42 276 19 132 q 85 575 60 400 q 139 969 110 750 q 244 974 196 972 q 329 975 293 975 l 407 975 q 451 668 426 831 q 499 351 472 529 q 558 -21 526 172 q 504 -19 535 -19 q 441 -20 478 -19 q 360 -22 404 -21 q 356 24 358 -4 q 349 83 353 47 q 342 167 346 118 q 283 167 318 167 q 203 168 249 168 l 190 18 q 144 19 171 18 q 86 20 121 19 q 3 21 51 21 z "},"Ë":{"ha":450,"x_min":35,"x_max":433,"o":"m 46 4 q 43 274 44 125 q 40 577 42 401 q 35 964 38 753 q 126 965 71 964 q 248 967 174 967 q 428 969 322 967 l 428 918 q 428 859 428 893 q 429 785 428 825 q 361 783 397 783 q 294 782 331 782 q 222 781 257 782 l 222 721 q 222 650 222 692 q 224 556 222 608 q 277 555 232 556 q 401 557 322 554 l 401 507 q 401 451 401 483 q 403 381 401 419 l 351 381 q 296 381 328 381 q 226 382 264 382 q 228 284 228 335 q 232 179 229 233 q 288 176 257 178 q 351 174 314 175 q 433 171 388 172 q 432 126 432 151 q 431 72 431 104 q 431 -4 431 39 q 317 -1 378 -3 q 194 1 264 0 q 46 4 125 3 m 342 1051 q 283 1076 306 1051 q 261 1144 261 1101 q 282 1206 261 1181 q 343 1231 303 1231 q 402 1203 383 1231 q 421 1140 421 1176 q 399 1074 421 1096 q 342 1051 378 1051 m 133 1046 q 71 1074 92 1046 q 50 1138 50 1101 q 74 1203 50 1178 q 133 1229 97 1229 q 196 1201 176 1229 q 215 1138 215 1174 q 191 1067 215 1089 q 133 1046 167 1046 z "},"È":{"ha":450,"x_min":35,"x_max":433,"o":"m 238 1019 q 201 1063 224 1036 q 153 1122 182 1086 q 79 1207 124 1157 q 106 1226 90 1214 q 141 1253 119 1238 q 193 1292 163 1268 q 226 1238 207 1268 q 326 1083 260 1183 q 304 1069 318 1078 q 238 1019 281 1054 m 46 4 q 43 274 44 125 q 40 577 42 401 q 35 964 38 753 q 126 965 71 964 q 248 967 174 967 q 428 969 322 967 l 428 918 q 428 859 428 893 q 429 785 428 825 q 361 783 397 783 q 294 782 331 782 q 222 781 257 782 l 222 721 q 222 650 222 692 q 224 556 222 608 q 277 555 232 556 q 401 557 322 554 l 401 507 q 401 451 401 483 q 403 381 401 419 l 351 381 q 296 381 328 381 q 226 382 264 382 q 228 284 228 335 q 232 179 229 233 q 288 176 257 178 q 351 174 314 175 q 433 171 388 172 q 432 126 432 151 q 431 72 431 104 q 431 -4 431 39 q 317 -1 378 -3 q 194 1 264 0 q 46 4 125 3 z "},"Í":{"ha":288,"x_min":46,"x_max":317,"o":"m 158 1019 q 119 1050 135 1038 q 92 1069 103 1063 q 69 1083 78 1078 q 169 1238 136 1183 q 203 1292 189 1268 q 255 1253 233 1268 q 290 1226 276 1238 q 317 1207 306 1214 q 242 1122 272 1157 q 193 1063 213 1086 q 158 1019 171 1036 m 51 -1 l 51 279 q 50 585 51 410 q 46 964 49 760 l 94 964 q 153 964 118 964 q 235 965 188 964 q 236 669 235 828 q 238 361 238 535 q 242 -1 239 188 l 193 -1 l 51 -1 z "},"Î":{"ha":288,"x_min":-54,"x_max":343,"o":"m 29 1013 q 10 1031 22 1019 q -17 1052 -1 1039 q -54 1083 -32 1065 q -21 1122 -40 1099 q 20 1171 -4 1142 q 78 1240 44 1200 q 104 1242 88 1240 q 142 1244 119 1243 q 199 1250 164 1246 q 231 1213 210 1235 q 275 1165 247 1193 q 343 1097 303 1136 l 322 1076 q 296 1050 311 1065 q 261 1014 281 1035 q 232 1046 249 1028 q 194 1084 217 1061 q 140 1136 172 1107 q 113 1106 128 1124 q 78 1067 99 1090 q 29 1013 57 1044 m 51 -1 l 51 279 q 50 585 51 410 q 46 964 49 760 l 94 964 q 153 964 118 964 q 235 965 188 964 q 236 669 235 828 q 238 361 238 535 q 242 -1 239 188 l 193 -1 l 51 -1 z "},"Ï":{"ha":288,"x_min":-42,"x_max":329,"o":"m 250 1054 q 192 1079 214 1054 q 169 1147 169 1104 q 190 1208 169 1183 q 251 1233 211 1233 q 310 1206 292 1233 q 329 1143 329 1179 q 308 1076 329 1099 q 250 1054 286 1054 m 42 1049 q -21 1076 0 1049 q -42 1140 -42 1104 q -18 1206 -42 1181 q 42 1232 6 1232 q 104 1204 85 1232 q 124 1140 124 1176 q 99 1070 124 1092 q 42 1049 75 1049 m 51 -1 l 51 279 q 50 585 51 410 q 46 964 49 760 l 94 964 q 153 964 118 964 q 235 965 188 964 q 236 669 235 828 q 238 361 238 535 q 242 -1 239 188 l 193 -1 l 51 -1 z "},"Ì":{"ha":288,"x_min":-12,"x_max":242,"o":"m 146 1019 q 110 1063 132 1036 q 61 1122 90 1086 q -12 1207 32 1157 q 14 1226 -1 1214 q 49 1253 28 1238 q 101 1292 71 1268 q 135 1238 115 1268 q 235 1083 168 1183 q 213 1069 226 1078 q 146 1019 189 1054 m 51 -1 l 51 279 q 50 585 51 410 q 46 964 49 760 l 94 964 q 153 964 118 964 q 235 965 188 964 q 236 669 235 828 q 238 361 238 535 q 242 -1 239 188 l 193 -1 l 51 -1 z "},"Ó":{"ha":582,"x_min":22,"x_max":560,"o":"m 293 125 q 320 140 308 125 q 340 194 332 154 q 351 306 347 235 q 354 490 354 376 q 351 656 354 590 q 339 760 347 721 q 319 816 331 800 q 290 832 307 832 q 260 814 272 832 q 241 756 249 796 q 231 650 233 715 q 228 492 228 585 q 231 310 228 381 q 242 198 235 239 q 263 141 250 157 q 293 125 275 125 m 290 -22 q 164 10 215 -22 q 81 105 113 42 q 36 263 50 168 q 22 482 22 357 q 34 678 22 586 q 76 838 46 769 q 158 944 106 906 q 290 983 210 983 q 424 947 372 983 q 507 844 476 910 q 549 686 538 778 q 560 483 560 594 q 542 242 558 339 q 492 86 525 144 q 408 3 458 28 q 290 -22 358 -22 m 304 1018 q 265 1049 281 1036 q 238 1068 249 1061 q 215 1082 224 1076 q 315 1236 282 1182 q 349 1290 335 1267 q 401 1251 379 1267 q 436 1225 422 1236 q 463 1206 451 1213 q 388 1120 418 1156 q 339 1061 358 1085 q 304 1018 317 1035 z "},"Ô":{"ha":582,"x_min":22,"x_max":560,"o":"m 293 125 q 320 140 308 125 q 340 194 332 154 q 351 306 347 235 q 354 490 354 376 q 351 656 354 590 q 339 760 347 721 q 319 816 331 800 q 290 832 307 832 q 260 814 272 832 q 241 756 249 796 q 231 650 233 715 q 228 492 228 585 q 231 310 228 381 q 242 198 235 239 q 263 141 250 157 q 293 125 275 125 m 290 -22 q 164 10 215 -22 q 81 105 113 42 q 36 263 50 168 q 22 482 22 357 q 34 678 22 586 q 76 838 46 769 q 158 944 106 906 q 290 983 210 983 q 424 947 372 983 q 507 844 476 910 q 549 686 538 778 q 560 483 560 594 q 542 242 558 339 q 492 86 525 144 q 408 3 458 28 q 290 -22 358 -22 m 175 1007 q 156 1025 168 1014 q 129 1047 144 1033 q 92 1078 114 1060 q 125 1117 106 1093 q 166 1165 142 1136 q 224 1235 190 1194 q 250 1236 233 1235 q 288 1239 265 1238 q 344 1244 310 1240 q 376 1207 356 1229 q 421 1159 393 1188 q 489 1092 449 1131 l 468 1071 q 442 1044 457 1060 q 407 1008 426 1029 q 378 1040 394 1022 q 340 1078 363 1056 q 286 1131 318 1101 q 258 1100 274 1118 q 224 1062 244 1085 q 175 1007 203 1039 z "},"Ò":{"ha":582,"x_min":22,"x_max":560,"o":"m 293 1018 q 257 1061 279 1035 q 208 1120 238 1085 q 135 1206 179 1156 q 161 1225 146 1213 q 197 1251 175 1236 q 249 1290 218 1267 q 282 1236 263 1267 q 382 1082 315 1182 q 360 1068 374 1076 q 293 1018 336 1053 m 293 125 q 320 140 308 125 q 340 194 332 154 q 351 306 347 235 q 354 490 354 376 q 351 656 354 590 q 339 760 347 721 q 319 816 331 800 q 290 832 307 832 q 260 814 272 832 q 241 756 249 796 q 231 650 233 715 q 228 492 228 585 q 231 310 228 381 q 242 198 235 239 q 263 141 250 157 q 293 125 275 125 m 290 -22 q 164 10 215 -22 q 81 105 113 42 q 36 263 50 168 q 22 482 22 357 q 34 678 22 586 q 76 838 46 769 q 158 944 106 906 q 290 983 210 983 q 424 947 372 983 q 507 844 476 910 q 549 686 538 778 q 560 483 560 594 q 542 242 558 339 q 492 86 525 144 q 408 3 458 28 q 290 -22 358 -22 z "},"Ú":{"ha":557,"x_min":19,"x_max":540,"o":"m 281 -19 q 158 13 207 -19 q 77 113 108 46 q 33 279 46 179 q 19 514 19 379 q 49 951 19 744 q 92 944 67 949 q 148 937 114 942 q 231 926 182 932 q 212 722 218 810 q 206 557 206 633 q 211 367 206 443 q 227 247 217 292 q 251 184 238 203 q 279 165 264 165 q 306 176 294 165 q 326 222 318 188 q 339 319 335 256 q 343 488 343 383 q 333 725 343 600 q 307 975 324 850 q 358 978 329 975 q 497 990 407 979 q 528 741 517 868 q 540 496 540 614 q 526 263 540 360 q 481 103 513 165 q 401 10 450 40 q 281 -19 351 -19 m 292 1013 q 252 1043 268 1031 q 225 1063 236 1056 q 203 1076 211 1071 q 303 1231 269 1176 q 336 1285 322 1261 q 388 1246 367 1261 q 424 1219 410 1231 q 450 1200 439 1207 q 376 1115 406 1150 q 326 1056 346 1079 q 292 1013 304 1029 z "},"Û":{"ha":557,"x_min":19,"x_max":540,"o":"m 281 -19 q 158 13 207 -19 q 77 113 108 46 q 33 279 46 179 q 19 514 19 379 q 49 951 19 744 q 92 944 67 949 q 148 937 114 942 q 231 926 182 932 q 212 722 218 810 q 206 557 206 633 q 211 367 206 443 q 227 247 217 292 q 251 184 238 203 q 279 165 264 165 q 306 176 294 165 q 326 222 318 188 q 339 319 335 256 q 343 488 343 383 q 333 725 343 600 q 307 975 324 850 q 358 978 329 975 q 497 990 407 979 q 528 741 517 868 q 540 496 540 614 q 526 263 540 360 q 481 103 513 165 q 401 10 450 40 q 281 -19 351 -19 m 163 1013 q 143 1031 156 1019 q 117 1052 132 1039 q 79 1083 101 1065 q 113 1122 93 1099 q 153 1171 129 1142 q 211 1240 178 1200 q 238 1242 221 1240 q 275 1244 253 1243 q 332 1250 297 1246 q 364 1213 343 1235 q 408 1165 381 1193 q 476 1097 436 1136 l 456 1076 q 429 1050 444 1065 q 394 1014 414 1035 q 365 1046 382 1028 q 328 1084 350 1061 q 274 1136 306 1107 q 246 1106 261 1124 q 211 1067 232 1090 q 163 1013 190 1044 z "},"Ù":{"ha":557,"x_min":19,"x_max":540,"o":"m 281 1013 q 244 1056 267 1029 q 196 1115 225 1079 q 122 1200 167 1150 q 149 1219 133 1207 q 184 1246 163 1231 q 236 1285 206 1261 q 269 1231 250 1261 q 369 1076 303 1176 q 347 1063 361 1071 q 281 1013 324 1047 m 281 -19 q 158 13 207 -19 q 77 113 108 46 q 33 279 46 179 q 19 514 19 379 q 49 951 19 744 q 92 944 67 949 q 148 937 114 942 q 231 926 182 932 q 212 722 218 810 q 206 557 206 633 q 211 367 206 443 q 227 247 217 292 q 251 184 238 203 q 279 165 264 165 q 306 176 294 165 q 326 222 318 188 q 339 319 335 256 q 343 488 343 383 q 333 725 343 600 q 307 975 324 850 q 358 978 329 975 q 497 990 407 979 q 528 741 517 868 q 540 496 540 614 q 526 263 540 360 q 481 103 513 165 q 401 10 450 40 q 281 -19 351 -19 z "},"ı":{"ha":263,"x_min":40,"x_max":229,"o":"m 44 1 l 44 158 q 44 374 44 242 q 40 699 43 506 l 86 699 q 144 699 110 699 q 224 700 178 699 l 224 517 q 225 298 224 426 q 229 3 226 169 l 176 3 q 118 2 151 3 q 44 1 85 1 z "},"ˆ":{"ha":551,"x_min":78,"x_max":475,"o":"m 161 724 q 142 742 154 731 q 115 763 131 750 q 78 794 100 776 q 111 833 92 810 q 152 882 128 853 q 210 951 176 911 q 236 953 219 951 q 274 956 251 954 q 331 961 296 957 q 363 924 342 946 q 407 876 379 904 q 475 808 435 847 l 454 788 q 428 761 443 776 q 393 725 413 746 q 364 757 381 739 q 326 795 349 772 q 272 847 304 818 q 244 817 260 835 q 210 778 231 801 q 161 724 189 756 z "},"˜":{"ha":551,"x_min":78,"x_max":479,"o":"m 186 753 l 161 753 q 129 751 149 753 q 83 749 110 750 q 110 891 78 840 q 193 942 143 942 q 240 931 218 942 q 279 907 261 919 q 313 883 297 894 q 342 872 328 872 q 371 936 379 872 q 390 936 376 935 q 419 938 401 936 q 465 943 438 940 q 451 799 479 849 q 361 750 424 750 q 318 760 338 750 q 281 781 299 769 q 247 803 263 793 q 217 813 232 813 q 186 753 182 813 z "},"¯":{"ha":551,"x_min":117,"x_max":436,"o":"m 118 781 l 118 810 q 118 848 118 825 q 117 903 118 871 l 189 903 q 287 903 226 903 q 436 906 347 903 q 435 879 435 896 l 435 783 l 361 783 q 263 783 322 783 q 118 781 203 782 z "},"˘":{"ha":551,"x_min":101,"x_max":450,"o":"m 272 746 q 189 761 222 746 q 135 801 156 776 q 108 856 115 825 q 104 919 101 888 l 132 919 q 222 924 160 919 q 233 872 219 892 q 276 851 247 851 q 317 870 300 851 q 326 936 333 889 l 354 936 q 392 936 369 936 q 446 938 414 936 q 438 851 450 888 q 401 791 425 814 q 343 757 376 768 q 272 746 310 746 z "},"˙":{"ha":551,"x_min":174,"x_max":379,"o":"m 276 756 q 199 789 224 756 q 174 861 174 822 q 200 932 174 901 q 276 963 226 963 q 354 931 329 963 q 379 861 379 899 q 349 782 379 808 q 276 756 319 756 z "},"˚":{"ha":551,"x_min":144,"x_max":407,"o":"m 276 813 q 312 830 300 813 q 324 876 324 847 q 312 919 324 900 q 276 939 300 939 q 242 920 253 939 q 231 875 231 901 q 243 830 231 847 q 276 813 256 813 m 274 742 q 176 781 208 742 q 144 876 144 819 q 181 970 144 936 q 275 1004 218 1004 q 374 966 340 1004 q 407 876 407 928 q 396 813 407 839 q 366 772 385 788 q 323 749 347 756 q 274 742 299 742 z "},"¸":{"ha":551,"x_min":138,"x_max":417,"o":"m 293 11 q 290 -8 292 3 q 286 -57 289 -26 q 383 -86 349 -60 q 417 -154 417 -112 q 371 -242 417 -210 q 253 -274 325 -274 q 193 -267 224 -274 q 138 -250 163 -261 q 142 -226 139 -240 q 147 -201 144 -215 q 153 -167 150 -186 q 205 -185 176 -179 q 258 -192 233 -192 q 295 -184 279 -192 q 311 -161 311 -176 q 285 -134 311 -143 q 194 -131 260 -125 q 203 -92 197 -114 q 212 -47 207 -72 q 221 10 217 -22 l 293 11 z "},"˝":{"ha":551,"x_min":74,"x_max":478,"o":"m 164 743 q 123 768 140 758 q 94 785 106 778 q 74 794 81 790 q 124 887 103 847 q 160 954 144 926 l 188 1010 q 241 976 219 989 q 275 956 263 963 q 297 943 290 947 q 234 851 260 889 q 193 789 208 813 q 164 743 175 761 m 335 739 q 294 765 311 754 q 265 782 276 775 q 244 793 251 789 q 299 883 275 843 q 338 950 322 922 q 369 1007 356 982 q 456 951 433 964 q 478 939 471 943 q 410 847 438 885 q 367 785 383 808 q 335 739 347 757 z "},"˛":{"ha":551,"x_min":161,"x_max":363,"o":"m 354 -264 q 213 -237 264 -272 q 161 -131 161 -203 q 271 18 161 -39 l 353 13 q 271 -87 271 -36 q 292 -133 271 -117 q 363 -149 314 -150 q 360 -175 361 -160 q 357 -210 358 -189 q 354 -264 356 -232 z "},"ˇ":{"ha":551,"x_min":78,"x_max":475,"o":"m 222 724 l 189 761 q 144 809 171 781 q 78 878 118 838 q 99 897 86 885 q 125 923 110 908 q 160 960 140 938 q 189 928 172 946 q 226 890 204 913 q 281 839 249 867 q 308 868 293 850 q 343 906 322 883 q 392 961 364 929 q 411 943 399 953 q 437 922 422 935 q 475 892 451 908 q 442 853 461 876 q 400 803 425 833 q 343 733 375 774 q 317 732 333 733 q 278 729 301 731 q 222 724 256 728 z "},"š":{"ha":485,"x_min":10,"x_max":474,"o":"m 250 -18 q 72 47 133 -18 q 17 250 10 111 q 61 249 36 250 q 116 246 83 247 q 193 242 149 244 q 201 149 189 179 q 250 118 214 118 q 285 133 269 118 q 300 182 300 147 q 297 207 300 194 q 281 232 293 219 q 244 258 268 244 q 182 289 221 272 q 56 376 96 324 q 17 513 17 429 q 31 590 17 554 q 75 653 46 626 q 147 697 104 681 q 244 713 189 713 q 415 637 361 713 q 463 436 469 561 q 414 438 440 436 q 360 440 390 439 q 294 440 331 440 q 289 536 300 500 q 243 572 278 572 q 202 553 215 572 q 189 510 189 535 q 213 448 189 474 q 304 393 238 422 q 388 347 354 371 q 440 298 421 324 q 466 244 458 272 q 474 182 474 215 q 456 90 474 128 q 407 28 438 51 q 336 -7 376 4 q 250 -18 296 -18 m 189 740 l 156 778 q 111 826 138 797 q 44 894 85 854 q 65 914 53 901 q 92 940 76 925 q 126 976 107 954 q 156 944 139 963 q 193 906 171 929 q 247 856 215 883 q 275 885 260 867 q 310 923 289 900 q 358 978 331 946 q 378 960 365 969 q 403 938 389 951 q 442 908 418 925 q 408 869 428 893 q 367 820 392 850 q 310 750 342 790 q 283 749 300 750 q 245 746 268 747 q 189 740 222 744 z "},"Ý":{"ha":565,"x_min":3,"x_max":564,"o":"m 296 996 q 256 1026 272 1014 q 229 1046 240 1039 q 207 1060 215 1054 q 307 1214 274 1160 q 340 1268 326 1244 q 392 1229 371 1244 q 428 1203 414 1214 q 454 1183 443 1190 q 380 1098 410 1133 q 331 1039 350 1063 q 296 996 308 1013 m 190 -18 q 192 26 192 -3 q 192 94 192 51 q 189 203 192 136 q 150 369 175 267 q 92 597 128 457 q 3 939 56 736 q 42 940 15 939 q 104 942 65 942 q 207 946 143 943 q 228 811 215 886 q 253 660 239 747 q 286 471 267 574 q 311 615 297 536 q 338 774 322 683 q 369 974 353 865 q 414 971 388 972 q 474 969 438 969 q 564 969 511 969 q 513 765 540 882 q 453 524 488 665 q 378 206 419 383 l 378 167 q 378 99 378 143 q 382 -17 379 56 q 343 -15 368 -15 q 284 -16 321 -15 q 190 -18 247 -17 z "},"ý":{"ha":535,"x_min":3,"x_max":532,"o":"m 281 738 q 241 768 257 756 q 214 788 225 781 q 192 801 200 796 q 292 956 258 901 q 325 1010 311 986 q 377 971 356 986 q 413 944 399 956 q 439 925 428 932 q 365 840 394 875 q 315 781 335 804 q 281 738 293 754 m 318 -304 q 228 -292 264 -297 q 174 -285 193 -287 q 138 -281 149 -282 q 156 -180 149 -222 q 168 -110 164 -137 q 176 -54 174 -76 q 103 262 135 128 q 49 488 71 396 q 3 668 24 594 q 150 672 97 668 q 204 676 181 674 q 228 476 217 565 q 249 325 239 388 q 269 194 260 251 q 315 586 303 458 q 326 713 322 661 q 396 708 360 710 q 463 706 432 707 q 532 703 499 704 q 423 199 465 396 q 358 -108 381 3 q 318 -304 331 -240 z "},"Þ":{"ha":536,"x_min":36,"x_max":525,"o":"m 219 718 q 221 509 219 625 q 225 263 222 393 q 309 318 282 269 q 336 479 336 367 q 310 656 336 600 q 219 718 285 713 m 36 8 q 39 274 38 125 q 40 578 40 401 q 38 975 39 756 q 88 972 60 974 q 145 969 111 971 q 221 968 179 968 q 219 938 219 954 l 219 860 q 452 758 379 853 q 525 490 525 663 q 504 336 525 401 q 444 226 483 271 q 351 158 406 182 q 228 131 296 135 q 228 70 228 100 q 231 10 229 40 l 176 10 q 115 10 150 10 q 36 8 79 10 z "},"þ":{"ha":564,"x_min":35,"x_max":542,"o":"m 283 119 q 308 129 297 119 q 325 165 318 139 q 336 233 332 190 q 340 343 340 276 q 327 519 340 465 q 285 574 314 574 q 237 516 249 574 q 225 347 225 458 q 228 235 225 279 q 238 166 231 192 q 256 130 244 140 q 283 119 267 119 m 36 -278 q 39 171 39 -46 q 38 560 39 388 q 35 938 36 758 q 97 936 65 936 q 156 938 129 936 q 214 939 186 938 q 212 864 213 908 q 210 772 211 819 q 210 676 210 724 q 210 594 210 629 q 267 677 231 647 q 357 707 304 707 q 440 681 404 707 q 497 606 475 654 q 531 490 519 557 q 542 340 542 422 q 527 178 542 244 q 487 72 513 113 q 426 12 461 31 q 353 -7 392 -7 q 271 13 306 -7 q 217 71 236 32 q 221 -95 219 -29 q 225 -201 222 -161 q 229 -276 228 -249 q 142 -274 178 -275 q 82 -275 106 -274 q 36 -278 54 -276 z "},"Ž":{"ha":468,"x_min":17,"x_max":451,"o":"m 449 -6 q 129 3 242 0 q 17 4 64 4 q 18 88 18 53 q 18 147 18 124 l 18 190 q 172 566 114 418 q 254 779 231 714 q 158 777 201 778 q 85 775 115 776 q 21 772 49 774 l 21 921 q 19 961 21 946 q 213 965 132 964 q 346 968 293 967 q 447 971 407 969 q 449 894 449 931 q 450 831 450 858 l 450 771 q 300 392 357 540 q 219 179 243 244 q 309 175 267 176 q 383 174 351 174 q 451 174 419 172 q 449 83 449 118 q 449 29 449 49 l 449 -6 m 181 1013 l 147 1050 q 103 1098 129 1069 q 36 1167 76 1126 q 57 1186 44 1174 q 83 1212 68 1197 q 118 1249 99 1226 q 147 1217 131 1235 q 185 1178 163 1201 q 239 1128 207 1156 q 267 1157 251 1139 q 301 1195 281 1172 q 350 1250 322 1218 q 369 1232 357 1242 q 395 1210 381 1224 q 433 1181 410 1197 q 400 1142 419 1165 q 358 1092 383 1122 q 301 1022 333 1063 q 275 1021 292 1022 q 237 1018 260 1019 q 181 1013 214 1017 z "},"ž":{"ha":443,"x_min":18,"x_max":425,"o":"m 422 1 q 238 8 314 6 q 113 11 161 10 q 18 13 56 13 q 20 72 19 46 q 21 114 21 97 l 21 147 q 112 319 75 249 q 171 435 149 390 q 213 519 196 488 q 127 519 161 519 q 71 517 93 518 q 31 514 46 515 q 29 594 29 561 q 28 647 29 626 q 25 686 26 672 q 199 688 125 688 q 322 692 274 689 q 419 696 379 693 q 419 621 419 650 q 421 575 419 592 q 424 547 422 556 q 332 379 369 450 q 271 260 294 308 q 226 165 243 204 q 321 161 283 163 q 382 160 358 160 l 425 160 q 422 76 422 107 q 422 29 422 46 l 422 1 m 168 731 l 135 768 q 90 816 117 788 q 24 885 64 844 q 44 904 32 892 q 71 930 56 915 q 106 967 86 944 q 135 935 118 953 q 172 897 150 919 q 226 846 194 874 q 254 875 239 857 q 289 913 268 890 q 338 968 310 936 q 357 950 344 960 q 383 928 368 942 q 421 899 397 915 q 388 860 407 883 q 346 810 371 840 q 289 740 321 781 q 263 739 279 740 q 224 736 247 738 q 168 731 201 735 z "},"½":{"ha":839,"x_min":0,"x_max":825,"o":"m 814 -1 q 699 1 756 0 q 596 1 642 1 l 493 1 q 490 51 490 28 q 489 93 490 75 q 488 131 488 114 q 563 186 526 156 q 629 252 600 217 q 676 326 658 288 q 694 407 694 365 q 683 460 694 446 q 657 475 672 475 q 623 443 633 475 q 619 328 613 411 l 581 328 q 539 327 563 328 q 488 325 515 326 q 519 513 474 451 q 658 574 565 574 q 781 532 736 574 q 825 413 825 490 q 772 245 825 324 q 633 110 718 167 q 707 110 674 110 q 764 113 740 111 q 815 117 792 114 q 815 63 815 85 q 814 26 814 42 l 814 -1 m 217 -10 q 180 -5 197 -7 q 150 -1 163 -3 q 124 0 135 0 q 332 417 243 238 q 481 719 421 597 q 599 967 550 863 q 637 963 619 964 q 667 961 654 961 l 693 961 q 549 675 613 801 q 438 451 486 549 q 354 281 389 353 q 294 157 319 208 q 217 -10 238 38 m 118 414 q 118 672 118 575 q 117 814 118 768 q 87 797 100 804 q 64 785 74 790 q 43 772 53 779 q 27 818 35 796 q 13 856 19 840 q 0 890 6 874 q 60 923 31 907 q 114 953 90 939 q 165 982 140 968 q 196 978 181 979 q 224 975 211 976 q 253 972 239 974 q 253 764 253 864 q 256 586 254 664 q 258 415 257 494 q 204 415 229 415 q 160 414 179 414 l 118 414 z "},"¼":{"ha":832,"x_min":0,"x_max":817,"o":"m 656 468 q 591 303 617 372 q 554 207 565 235 l 654 207 q 656 384 656 319 q 656 468 656 449 m 651 -1 q 651 53 651 26 q 653 106 651 79 q 553 105 606 106 q 439 103 500 104 l 439 126 q 438 160 439 139 q 436 213 438 181 q 500 364 472 299 q 547 475 528 429 q 585 568 569 528 q 667 564 631 565 q 728 563 703 563 q 779 563 757 561 q 778 360 778 444 q 779 207 778 276 l 792 207 q 803 207 797 207 q 817 208 810 207 q 815 185 815 200 l 815 107 l 779 107 l 779 25 q 781 -1 779 10 q 725 -3 749 -3 q 685 -3 701 -3 q 651 -1 665 -3 m 217 -10 q 180 -5 197 -7 q 150 -1 163 -3 q 124 0 135 0 q 332 417 243 238 q 481 719 421 597 q 599 967 550 863 q 637 963 619 964 q 667 961 654 961 l 693 961 q 549 675 613 801 q 438 451 486 549 q 354 281 389 353 q 294 157 319 208 q 217 -10 238 38 m 118 414 q 118 672 118 575 q 117 814 118 768 q 87 797 100 804 q 64 785 74 790 q 43 772 53 779 q 27 818 35 796 q 13 856 19 840 q 0 890 6 874 q 60 923 31 907 q 114 953 90 939 q 165 982 140 968 q 196 978 181 979 q 224 975 211 976 q 253 972 239 974 q 253 764 253 864 q 256 586 254 664 q 258 415 257 494 q 204 415 229 415 q 160 414 179 414 l 118 414 z "},"¹":{"ha":304,"x_min":0,"x_max":258,"o":"m 118 414 q 118 672 118 575 q 117 814 118 768 q 87 797 100 804 q 64 785 74 790 q 43 772 53 779 q 27 818 35 796 q 13 856 19 840 q 0 890 6 874 q 60 923 31 907 q 114 953 90 939 q 165 982 140 968 q 196 978 181 979 q 224 975 211 976 q 253 972 239 974 q 253 764 253 864 q 256 586 254 664 q 258 415 257 494 q 204 415 229 415 q 160 414 179 414 l 118 414 z "},"¾":{"ha":882,"x_min":6,"x_max":867,"o":"m 706 468 q 641 303 667 372 q 604 207 615 235 l 704 207 q 706 384 706 319 q 706 468 706 449 m 701 -1 q 701 53 701 26 q 703 106 701 79 q 603 105 656 106 q 489 103 550 104 l 489 126 q 488 160 489 139 q 486 213 488 181 q 550 364 522 299 q 597 475 578 429 q 635 568 619 528 q 717 564 681 565 q 778 563 753 563 q 829 563 807 561 q 828 360 828 444 q 829 207 828 276 l 842 207 q 853 207 847 207 q 867 208 860 207 q 865 185 865 200 l 865 107 l 829 107 l 829 25 q 831 -1 829 10 q 775 -3 799 -3 q 735 -3 751 -3 q 701 -1 715 -3 m 267 -10 q 230 -5 247 -7 q 200 -1 213 -3 q 174 0 185 0 q 382 417 293 238 q 531 719 471 597 q 649 967 600 863 q 687 963 669 964 q 717 961 704 961 l 743 961 q 599 675 663 801 q 488 451 536 549 q 404 281 439 353 q 344 157 369 208 q 267 -10 288 38 m 197 397 q 49 453 93 397 q 14 621 6 510 q 51 618 31 619 q 93 615 69 617 q 144 613 117 614 q 193 496 138 496 q 227 511 213 496 q 242 564 242 526 q 213 639 242 619 q 174 651 200 649 q 119 651 147 654 l 115 742 q 171 742 144 739 q 211 756 197 746 q 236 821 236 771 q 223 876 236 858 q 193 893 210 893 q 156 866 169 893 q 149 782 143 839 q 100 778 124 779 q 57 776 76 778 q 17 775 35 775 q 24 876 11 835 q 61 944 36 918 q 123 983 86 971 q 203 996 160 996 q 325 951 279 996 q 371 838 371 907 q 290 706 371 732 q 356 654 333 692 q 378 565 378 617 q 364 494 378 525 q 325 441 350 463 q 267 408 300 419 q 197 397 235 397 z "},"³":{"ha":396,"x_min":6,"x_max":378,"o":"m 197 397 q 49 453 93 397 q 14 621 6 510 q 51 618 31 619 q 93 615 69 617 q 144 613 117 614 q 193 496 138 496 q 227 511 213 496 q 242 564 242 526 q 213 639 242 619 q 174 651 200 649 q 119 651 147 654 l 115 742 q 171 742 144 739 q 211 756 197 746 q 236 821 236 771 q 223 876 236 858 q 193 893 210 893 q 156 866 169 893 q 149 782 143 839 q 100 778 124 779 q 57 776 76 778 q 17 775 35 775 q 24 876 11 835 q 61 944 36 918 q 123 983 86 971 q 203 996 160 996 q 325 951 279 996 q 371 838 371 907 q 290 706 371 732 q 356 654 333 692 q 378 565 378 617 q 364 494 378 525 q 325 441 350 463 q 267 408 300 419 q 197 397 235 397 z "},"²":{"ha":368,"x_min":3,"x_max":354,"o":"m 343 417 q 228 419 285 418 q 125 419 171 419 l 22 419 q 19 469 19 446 q 18 511 19 493 q 17 549 17 532 q 92 604 56 574 q 158 670 129 635 q 206 744 188 706 q 224 825 224 783 q 213 878 224 864 q 186 893 201 893 q 152 861 163 893 q 149 746 142 829 l 110 746 q 68 745 92 746 q 17 743 44 744 q 49 931 3 869 q 188 992 94 992 q 310 950 265 992 q 354 831 354 908 q 301 663 354 742 q 163 528 247 585 q 236 528 203 528 q 293 531 269 529 q 344 535 321 532 q 344 481 344 503 q 343 444 343 460 l 343 417 z "},"−":{"ha":385,"x_min":14,"x_max":371,"o":"m 369 521 q 369 454 368 481 q 369 410 369 428 q 371 376 369 389 q 224 379 289 379 q 111 379 158 379 l 14 379 q 16 439 15 413 q 17 483 17 465 l 17 521 q 176 519 110 518 q 286 519 243 519 q 369 521 336 519 z "},"×":{"ha":471,"x_min":17,"x_max":454,"o":"m 106 207 q 86 229 99 215 q 17 299 65 251 q 53 338 32 315 q 95 384 71 357 q 151 447 119 411 q 106 501 129 474 q 63 550 82 528 q 18 600 39 575 q 72 649 53 632 q 101 676 92 667 l 115 690 q 204 585 168 625 q 239 546 224 563 q 275 588 256 564 q 315 633 292 607 q 364 692 338 660 q 386 671 372 683 q 414 644 397 660 q 454 608 431 629 q 415 565 436 589 q 372 517 396 544 q 318 456 347 489 q 375 391 350 418 q 417 344 400 364 q 451 307 436 322 q 402 259 421 278 q 372 229 383 240 l 353 210 q 290 285 321 249 q 231 356 258 321 q 169 283 200 319 q 106 207 139 247 z "},"Š":{"ha":535,"x_min":4,"x_max":526,"o":"m 269 -21 q 63 71 121 -21 q 21 346 4 163 q 74 344 44 346 q 135 342 99 343 q 215 342 171 342 q 220 181 206 232 q 271 131 235 131 q 310 153 297 131 q 324 238 324 176 q 318 283 324 261 q 297 326 313 304 q 255 374 282 349 q 185 429 228 399 q 106 497 138 463 q 53 567 74 531 q 25 644 33 604 q 17 732 17 685 q 35 847 17 799 q 88 925 54 894 q 167 970 121 956 q 271 985 214 985 q 468 894 410 985 q 507 625 526 803 q 449 629 479 626 q 388 633 422 632 q 318 636 354 635 q 315 788 331 743 q 268 833 299 833 q 227 804 240 833 q 214 722 214 775 q 220 674 214 697 q 242 630 226 651 q 284 585 258 608 q 350 536 310 563 q 431 472 397 504 q 484 406 464 440 q 513 331 504 371 q 522 242 522 292 q 503 119 522 169 q 451 38 485 69 q 372 -7 418 7 q 269 -21 325 -21 m 214 1025 l 181 1063 q 136 1110 163 1082 q 69 1179 110 1139 q 90 1199 78 1186 q 117 1224 101 1210 q 151 1261 132 1239 q 181 1229 164 1247 q 218 1191 196 1214 q 272 1140 240 1168 q 300 1169 285 1151 q 335 1208 314 1185 q 383 1263 356 1231 q 403 1244 390 1254 q 428 1223 414 1236 q 467 1193 443 1210 q 433 1154 453 1178 q 392 1105 417 1135 q 335 1035 367 1075 q 308 1033 325 1035 q 270 1031 293 1032 q 214 1025 247 1029 z "},"€":{"ha":611,"x_min":0,"x_max":599,"o":"m 1 500 l 1 521 l 1 597 l 75 597 q 154 894 89 796 q 350 993 219 993 q 459 967 413 993 q 535 895 506 942 q 580 785 565 849 q 593 646 594 721 l 446 646 q 390 647 414 646 q 378 788 392 747 q 339 828 364 828 q 314 817 325 828 q 295 780 303 806 q 283 710 288 754 q 276 601 278 667 l 519 607 q 518 586 518 600 q 517 556 517 575 q 517 508 517 536 l 467 508 q 393 508 439 508 q 276 506 347 507 l 276 458 l 521 464 q 519 442 519 456 q 519 413 519 431 q 521 367 519 394 l 471 367 q 397 366 443 367 q 278 364 350 365 q 283 254 279 297 q 295 185 288 211 q 313 150 303 160 q 339 140 324 140 q 362 149 351 140 q 379 177 372 157 q 390 232 386 197 q 393 321 393 267 q 476 319 439 319 q 542 318 514 319 q 599 317 574 317 q 526 63 592 149 q 339 -22 461 -24 q 149 69 211 -22 q 74 358 86 161 l 0 357 l 0 378 q 1 408 0 389 q 1 457 1 426 q 18 456 8 456 l 71 456 l 71 501 l 51 501 q 29 501 42 501 q 1 500 17 500 z "},"ȷ":{"ha":264,"x_min":-101,"x_max":229,"o":"m -101 -304 q -99 -258 -100 -285 q -97 -203 -97 -236 q -96 -131 -97 -171 q -78 -133 -86 -132 q -61 -133 -69 -133 q 19 -104 -3 -133 q 43 -17 42 -75 q 45 87 44 31 q 46 203 46 143 q 45 322 46 263 q 44 438 44 382 q 42 699 43 567 l 175 699 q 221 700 201 699 q 225 489 222 606 q 228 253 226 389 q 226 -43 229 117 q 210 -152 225 -104 q 164 -234 196 -200 q 81 -287 132 -268 q -46 -306 29 -306 q -72 -306 -58 -306 q -101 -304 -86 -306 z "},"Đ":{"ha":594,"x_min":7,"x_max":572,"o":"m 256 125 q 303 134 282 122 q 340 183 325 146 q 362 288 354 219 q 369 469 369 357 q 342 746 369 664 q 247 818 314 828 q 247 690 247 753 q 249 565 247 628 q 273 565 261 564 q 294 565 285 565 l 315 565 q 314 526 314 551 q 314 472 314 506 q 317 390 314 439 l 299 390 l 251 390 q 252 283 251 332 q 254 199 253 235 q 256 125 256 157 m 61 -8 q 63 156 63 83 q 63 281 63 229 l 63 388 l 44 388 q 27 387 36 388 q 7 386 18 386 q 8 431 7 404 q 9 488 8 454 q 10 569 10 521 q 24 568 17 568 q 40 567 31 568 q 63 567 49 567 l 63 661 l 63 963 q 138 973 101 969 q 206 976 174 976 q 376 945 306 976 q 490 850 446 914 q 553 689 533 786 q 572 460 572 592 q 550 237 572 328 q 483 89 528 146 q 371 6 438 32 q 217 -19 304 -19 q 142 -17 181 -19 q 61 -8 104 -15 z "},"đ":{"ha":556,"x_min":22,"x_max":615,"o":"m 282 117 q 305 126 294 117 q 323 162 315 136 q 335 231 331 188 q 340 343 340 275 q 325 519 340 463 q 278 575 310 575 q 236 517 250 575 q 222 347 222 460 q 238 171 222 225 q 282 117 253 117 m 525 732 q 524 402 524 597 q 526 -25 524 207 l 486 -25 q 438 -24 467 -25 q 374 -24 410 -24 q 375 10 375 -8 q 375 47 375 25 q 376 97 375 69 q 317 19 356 44 q 231 -7 279 -7 q 144 14 183 -7 q 78 78 106 35 q 37 191 51 122 q 22 354 22 260 q 33 494 22 429 q 68 606 44 558 q 129 680 92 653 q 219 707 167 707 q 294 683 263 707 q 346 624 326 660 q 342 760 344 681 q 335 950 340 840 q 374 949 349 949 q 433 949 396 949 q 528 951 469 949 q 526 929 526 942 l 526 869 q 563 870 546 869 q 590 872 579 871 q 615 874 604 874 q 612 811 613 838 q 610 765 611 785 q 608 728 608 743 l 525 732 z "},"Ă":{"ha":561,"x_min":3,"x_max":558,"o":"m 267 1033 q 183 1049 217 1033 q 130 1088 150 1064 q 103 1144 110 1113 q 99 1207 96 1175 l 126 1207 q 217 1211 154 1207 q 228 1159 214 1179 q 271 1139 242 1139 q 311 1158 294 1139 q 321 1224 328 1176 l 349 1224 q 386 1224 364 1224 q 440 1225 408 1224 q 432 1138 444 1175 q 395 1078 419 1101 q 338 1044 371 1056 q 267 1033 304 1033 m 271 814 q 249 624 264 753 q 218 322 235 496 l 244 322 q 278 322 258 322 q 325 322 297 321 q 302 538 315 418 q 271 814 289 658 m 3 21 q 42 276 19 132 q 85 575 60 400 q 139 969 110 750 q 244 974 196 972 q 329 975 293 975 l 407 975 q 451 668 426 831 q 499 351 472 529 q 558 -21 526 172 q 504 -19 535 -19 q 441 -20 478 -19 q 360 -22 404 -21 q 356 24 358 -4 q 349 83 353 47 q 342 167 346 118 q 283 167 318 167 q 203 168 249 168 l 190 18 q 144 19 171 18 q 86 20 121 19 q 3 21 51 21 z "},"Ā":{"ha":561,"x_min":3,"x_max":558,"o":"m 113 1064 l 113 1093 q 113 1131 113 1108 q 111 1186 113 1154 l 183 1186 q 281 1186 221 1186 q 431 1189 342 1186 q 429 1163 429 1179 l 429 1067 l 356 1067 q 257 1066 317 1067 q 113 1064 197 1065 m 271 814 q 249 624 264 753 q 218 322 235 496 l 244 322 q 278 322 258 322 q 325 322 297 321 q 302 538 315 418 q 271 814 289 658 m 3 21 q 42 276 19 132 q 85 575 60 400 q 139 969 110 750 q 244 974 196 972 q 329 975 293 975 l 407 975 q 451 668 426 831 q 499 351 472 529 q 558 -21 526 172 q 504 -19 535 -19 q 441 -20 478 -19 q 360 -22 404 -21 q 356 24 358 -4 q 349 83 353 47 q 342 167 346 118 q 283 167 318 167 q 203 168 249 168 l 190 18 q 144 19 171 18 q 86 20 121 19 q 3 21 51 21 z "},"Ą":{"ha":561,"x_min":3,"x_max":558,"o":"m 271 814 q 249 624 264 753 q 218 322 235 496 l 244 322 q 278 322 258 322 q 325 322 297 321 q 302 538 315 418 q 271 814 289 658 m 474 -265 q 332 -239 383 -274 q 281 -132 281 -204 q 358 -1 281 -56 l 342 167 q 283 167 318 167 q 203 168 249 168 l 190 18 q 144 19 171 18 q 86 20 121 19 q 3 21 51 21 q 42 276 19 132 q 85 575 60 400 q 139 969 110 750 q 244 974 196 972 q 329 975 293 975 l 407 975 q 451 668 426 831 q 499 351 472 529 q 558 -21 526 172 q 524 -19 543 -19 l 428 -19 q 390 -89 390 -56 q 412 -135 390 -118 q 482 -150 433 -151 q 479 -176 481 -161 q 476 -212 478 -190 q 474 -265 475 -233 z "},"Ć":{"ha":563,"x_min":22,"x_max":549,"o":"m 289 -24 q 167 4 218 -24 q 85 92 117 32 q 38 249 53 153 q 22 481 22 344 q 85 865 22 739 q 300 990 149 990 q 418 961 371 990 q 493 878 465 932 q 532 751 521 825 q 542 590 543 678 q 458 591 494 590 q 394 593 421 592 q 340 596 364 594 q 338 706 340 661 q 331 779 336 751 q 315 819 325 807 q 290 832 306 832 q 260 813 272 832 q 240 753 247 794 q 231 644 233 711 q 229 482 228 578 q 232 315 229 382 q 242 208 235 247 q 262 151 250 168 q 292 135 274 135 q 315 145 304 135 q 333 185 326 156 q 343 266 340 214 q 343 401 346 318 q 421 404 383 403 q 486 406 458 406 l 547 406 q 531 198 549 281 q 478 66 513 115 q 396 -3 444 17 q 289 -24 347 -24 m 297 1032 q 258 1063 274 1050 q 231 1082 242 1075 q 208 1096 217 1090 q 308 1250 275 1196 q 342 1304 328 1281 q 394 1265 372 1281 q 429 1239 415 1250 q 456 1219 444 1226 q 381 1134 411 1169 q 332 1075 351 1099 q 297 1032 310 1049 z "},"Č":{"ha":563,"x_min":22,"x_max":549,"o":"m 289 -24 q 167 4 218 -24 q 85 92 117 32 q 38 249 53 153 q 22 481 22 344 q 85 865 22 739 q 300 990 149 990 q 418 961 371 990 q 493 878 465 932 q 532 751 521 825 q 542 590 543 678 q 458 591 494 590 q 394 593 421 592 q 340 596 364 594 q 338 706 340 661 q 331 779 336 751 q 315 819 325 807 q 290 832 306 832 q 260 813 272 832 q 240 753 247 794 q 231 644 233 711 q 229 482 228 578 q 232 315 229 382 q 242 208 235 247 q 262 151 250 168 q 292 135 274 135 q 315 145 304 135 q 333 185 326 156 q 343 266 340 214 q 343 401 346 318 q 421 404 383 403 q 486 406 458 406 l 547 406 q 531 198 549 281 q 478 66 513 115 q 396 -3 444 17 q 289 -24 347 -24 m 231 1025 l 197 1063 q 153 1110 179 1082 q 86 1179 126 1139 q 107 1199 94 1186 q 133 1224 118 1210 q 168 1261 149 1239 q 197 1229 181 1247 q 235 1191 213 1214 q 289 1140 257 1168 q 317 1169 301 1151 q 351 1208 331 1185 q 400 1263 372 1231 q 419 1244 407 1254 q 445 1223 431 1236 q 483 1193 460 1210 q 450 1154 469 1178 q 408 1105 433 1135 q 351 1035 383 1075 q 325 1033 342 1035 q 287 1031 310 1032 q 231 1025 264 1029 z "},"Ĉ":{"ha":563,"x_min":22,"x_max":549,"o":"m 289 -24 q 167 4 218 -24 q 85 92 117 32 q 38 249 53 153 q 22 481 22 344 q 85 865 22 739 q 300 990 149 990 q 418 961 371 990 q 493 878 465 932 q 532 751 521 825 q 542 590 543 678 q 458 591 494 590 q 394 593 421 592 q 340 596 364 594 q 338 706 340 661 q 331 779 336 751 q 315 819 325 807 q 290 832 306 832 q 260 813 272 832 q 240 753 247 794 q 231 644 233 711 q 229 482 228 578 q 232 315 229 382 q 242 208 235 247 q 262 151 250 168 q 292 135 274 135 q 315 145 304 135 q 333 185 326 156 q 343 266 340 214 q 343 401 346 318 q 421 404 383 403 q 486 406 458 406 l 547 406 q 531 198 549 281 q 478 66 513 115 q 396 -3 444 17 q 289 -24 347 -24 m 169 1019 q 150 1038 163 1026 q 124 1059 139 1046 q 86 1090 108 1072 q 119 1129 100 1106 q 160 1178 136 1149 q 218 1247 185 1207 q 244 1249 228 1247 q 282 1251 260 1250 q 339 1257 304 1253 q 371 1219 350 1242 q 415 1172 388 1200 q 483 1104 443 1143 l 463 1083 q 436 1057 451 1072 q 401 1021 421 1042 q 372 1053 389 1035 q 335 1091 357 1068 q 281 1143 313 1114 q 253 1113 268 1131 q 218 1074 239 1097 q 169 1019 197 1051 z "},"Ď":{"ha":567,"x_min":35,"x_max":544,"o":"m 35 -6 q 36 354 36 181 q 36 664 36 528 q 35 963 36 822 q 110 973 75 969 q 178 976 146 976 q 348 945 278 976 q 462 851 418 914 q 525 690 506 788 q 544 461 544 593 q 522 237 544 328 q 453 89 499 146 q 340 7 408 32 q 182 -18 272 -18 q 35 -6 114 -18 m 229 136 q 276 142 256 133 q 312 186 297 151 q 334 289 326 221 q 342 474 342 357 q 313 746 342 668 q 221 814 285 824 q 222 567 221 688 q 225 350 224 446 q 229 136 226 238 m 182 1025 l 149 1063 q 104 1110 131 1082 q 38 1179 78 1139 q 58 1199 46 1186 q 85 1224 69 1210 q 119 1261 100 1239 q 149 1229 132 1247 q 186 1191 164 1214 q 240 1140 208 1168 q 268 1169 253 1151 q 303 1208 282 1185 q 351 1263 324 1231 q 371 1244 358 1254 q 397 1223 382 1236 q 435 1193 411 1210 q 401 1154 421 1178 q 360 1105 385 1135 q 303 1035 335 1075 q 276 1033 293 1035 q 238 1031 261 1032 q 182 1025 215 1029 z "},"Ě":{"ha":450,"x_min":35,"x_max":435,"o":"m 46 4 q 43 274 44 125 q 40 577 42 401 q 35 964 38 753 q 126 965 71 964 q 248 967 174 967 q 428 969 322 967 l 428 918 q 428 859 428 893 q 429 785 428 825 q 361 783 397 783 q 294 782 331 782 q 222 781 257 782 l 222 721 q 222 650 222 692 q 224 556 222 608 q 277 555 232 556 q 401 557 322 554 l 401 507 q 401 451 401 483 q 403 381 401 419 l 351 381 q 296 381 328 381 q 226 382 264 382 q 228 284 228 335 q 232 179 229 233 q 288 176 257 178 q 351 174 314 175 q 433 171 388 172 q 432 126 432 151 q 431 72 431 104 q 431 -4 431 39 q 317 -1 378 -3 q 194 1 264 0 q 46 4 125 3 m 182 1013 l 149 1050 q 104 1098 131 1069 q 38 1167 78 1126 q 58 1186 46 1174 q 85 1212 69 1197 q 119 1249 100 1226 q 149 1217 132 1235 q 186 1178 164 1201 q 240 1128 208 1156 q 268 1157 253 1139 q 303 1195 282 1172 q 351 1250 324 1218 q 371 1232 358 1242 q 397 1210 382 1224 q 435 1181 411 1197 q 401 1142 421 1165 q 360 1092 385 1122 q 303 1022 335 1063 q 276 1021 293 1022 q 238 1018 261 1019 q 182 1013 215 1017 z "},"Ė":{"ha":450,"x_min":35,"x_max":433,"o":"m 236 1044 q 158 1078 183 1044 q 133 1150 133 1111 q 160 1221 133 1190 q 236 1251 186 1251 q 314 1219 289 1251 q 339 1150 339 1188 q 309 1071 339 1097 q 236 1044 279 1044 m 46 4 q 43 274 44 125 q 40 577 42 401 q 35 964 38 753 q 126 965 71 964 q 248 967 174 967 q 428 969 322 967 l 428 918 q 428 859 428 893 q 429 785 428 825 q 361 783 397 783 q 294 782 331 782 q 222 781 257 782 l 222 721 q 222 650 222 692 q 224 556 222 608 q 277 555 232 556 q 401 557 322 554 l 401 507 q 401 451 401 483 q 403 381 401 419 l 351 381 q 296 381 328 381 q 226 382 264 382 q 228 284 228 335 q 232 179 229 233 q 288 176 257 178 q 351 174 314 175 q 433 171 388 172 q 432 126 432 151 q 431 72 431 104 q 431 -4 431 39 q 317 -1 378 -3 q 194 1 264 0 q 46 4 125 3 z "},"Ē":{"ha":450,"x_min":35,"x_max":433,"o":"m 78 1065 l 78 1094 q 78 1133 78 1110 q 76 1188 78 1156 l 149 1188 q 247 1188 186 1188 q 396 1190 307 1188 q 394 1164 394 1181 l 394 1068 l 321 1068 q 222 1067 282 1068 q 78 1065 163 1067 m 46 4 q 43 274 44 125 q 40 577 42 401 q 35 964 38 753 q 126 965 71 964 q 248 967 174 967 q 428 969 322 967 l 428 918 q 428 859 428 893 q 429 785 428 825 q 361 783 397 783 q 294 782 331 782 q 222 781 257 782 l 222 721 q 222 650 222 692 q 224 556 222 608 q 277 555 232 556 q 401 557 322 554 l 401 507 q 401 451 401 483 q 403 381 401 419 l 351 381 q 296 381 328 381 q 226 382 264 382 q 228 284 228 335 q 232 179 229 233 q 288 176 257 178 q 351 174 314 175 q 433 171 388 172 q 432 126 432 151 q 431 72 431 104 q 431 -4 431 39 q 317 -1 378 -3 q 194 1 264 0 q 46 4 125 3 z "},"Ę":{"ha":450,"x_min":35,"x_max":440,"o":"m 432 -269 q 291 -242 344 -276 q 238 -136 238 -207 q 263 -60 238 -96 q 340 -1 289 -25 l 46 4 q 43 274 44 125 q 40 577 42 401 q 35 964 38 753 q 126 965 71 964 q 248 967 174 967 q 428 969 322 967 l 428 918 q 428 859 428 893 q 429 785 428 825 q 361 783 397 783 q 294 782 331 782 q 222 781 257 782 l 222 721 q 222 650 222 692 q 224 556 222 608 l 272 556 q 328 556 296 556 q 401 557 361 556 l 401 507 q 401 451 401 483 q 403 381 401 419 l 351 381 q 296 381 328 381 q 226 382 264 382 q 228 284 228 335 q 232 179 229 233 q 288 176 257 178 q 351 174 314 175 q 433 171 388 172 q 432 126 432 151 q 431 72 431 104 q 431 -4 431 39 q 365 -47 383 -25 q 347 -93 347 -69 q 369 -139 347 -122 q 440 -154 390 -156 q 438 -181 439 -165 q 435 -216 436 -194 q 432 -269 433 -237 z "},"Ğ":{"ha":569,"x_min":22,"x_max":553,"o":"m 282 1021 q 199 1036 232 1021 q 145 1076 165 1051 q 118 1131 125 1100 q 114 1194 111 1163 l 142 1194 q 232 1199 169 1194 q 243 1147 229 1167 q 286 1126 257 1126 q 326 1145 310 1126 q 336 1211 343 1164 l 364 1211 q 401 1211 379 1211 q 456 1213 424 1211 q 447 1126 460 1163 q 410 1066 435 1089 q 353 1032 386 1043 q 282 1021 319 1021 m 290 -22 q 176 2 226 -22 q 92 85 126 26 q 40 241 58 143 q 22 486 22 339 q 86 858 22 733 q 292 983 150 983 q 408 955 360 983 q 487 874 457 926 q 528 750 517 822 q 536 592 540 678 q 457 593 493 593 q 393 593 425 593 q 346 594 361 593 q 335 773 349 719 q 289 826 321 826 q 237 746 251 826 q 222 483 222 665 q 227 307 222 376 q 241 197 232 238 q 265 141 250 157 q 299 125 279 125 q 345 175 332 125 q 356 346 358 225 q 322 344 336 344 q 296 343 307 344 q 272 342 282 342 l 272 383 q 272 433 272 403 q 271 499 272 463 l 364 499 q 453 499 404 499 q 546 500 501 499 q 538 239 553 340 q 489 79 522 138 q 405 -1 456 21 q 290 -22 354 -22 z "},"Ĝ":{"ha":569,"x_min":22,"x_max":553,"o":"m 290 -22 q 176 2 226 -22 q 92 85 126 26 q 40 241 58 143 q 22 486 22 339 q 86 858 22 733 q 292 983 150 983 q 408 955 360 983 q 487 874 457 926 q 528 750 517 822 q 536 592 540 678 q 457 593 493 593 q 393 593 425 593 q 346 594 361 593 q 335 773 349 719 q 289 826 321 826 q 237 746 251 826 q 222 483 222 665 q 227 307 222 376 q 241 197 232 238 q 265 141 250 157 q 299 125 279 125 q 345 175 332 125 q 356 346 358 225 q 322 344 336 344 q 296 343 307 344 q 272 342 282 342 l 272 383 q 272 433 272 403 q 271 499 272 463 l 364 499 q 453 499 404 499 q 546 500 501 499 q 538 239 553 340 q 489 79 522 138 q 405 -1 456 21 q 290 -22 354 -22 m 169 1011 q 150 1029 163 1018 q 124 1051 139 1038 q 86 1082 108 1064 q 119 1121 100 1097 q 160 1169 136 1140 q 218 1239 185 1199 q 244 1240 228 1239 q 282 1243 260 1242 q 339 1249 304 1244 q 371 1211 350 1233 q 415 1163 388 1192 q 483 1096 443 1135 l 463 1075 q 436 1049 451 1064 q 401 1013 421 1033 q 372 1044 389 1026 q 335 1083 357 1060 q 281 1135 313 1106 q 253 1104 268 1122 q 218 1066 239 1089 q 169 1011 197 1043 z "},"Ģ":{"ha":569,"x_min":22,"x_max":553,"o":"m 290 -22 q 176 2 226 -22 q 92 85 126 26 q 40 241 58 143 q 22 486 22 339 q 86 858 22 733 q 292 983 150 983 q 408 955 360 983 q 487 874 457 926 q 528 750 517 822 q 536 592 540 678 q 457 593 493 593 q 393 593 425 593 q 346 594 361 593 q 335 773 349 719 q 289 826 321 826 q 237 746 251 826 q 222 483 222 665 q 227 307 222 376 q 241 197 232 238 q 265 141 250 157 q 299 125 279 125 q 345 175 332 125 q 356 346 358 225 q 322 344 336 344 q 296 343 307 344 q 272 342 282 342 l 272 383 q 272 433 272 403 q 271 499 272 463 l 364 499 q 453 499 404 499 q 546 500 501 499 q 538 239 553 340 q 489 79 522 138 q 405 -1 456 21 q 290 -22 354 -22 m 375 -140 q 344 -233 375 -189 q 256 -322 313 -278 q 211 -286 228 -300 q 196 -274 203 -279 q 232 -233 219 -251 q 251 -204 244 -215 q 203 -133 203 -189 q 227 -80 203 -101 q 290 -58 251 -58 q 351 -80 328 -58 q 375 -140 375 -101 z "},"Ĥ":{"ha":557,"x_min":35,"x_max":524,"o":"m 333 -26 q 335 71 335 17 q 335 181 335 117 q 333 324 335 244 q 290 324 315 324 q 225 322 265 324 l 229 24 q 175 25 204 25 q 115 24 150 25 q 40 22 81 24 q 39 275 39 133 q 38 565 38 397 q 35 943 38 733 l 75 943 q 132 943 97 943 q 219 944 167 943 q 221 817 219 888 q 222 672 221 756 q 224 485 222 588 q 263 484 236 485 q 332 483 289 483 q 331 719 332 593 q 328 988 329 846 l 378 988 q 437 988 401 988 q 519 989 472 988 l 519 694 q 520 372 519 556 q 524 -28 521 188 q 472 -25 501 -26 q 412 -24 447 -24 q 333 -26 376 -25 m 163 1025 q 143 1043 156 1032 q 117 1065 132 1051 q 79 1096 101 1078 q 113 1135 93 1111 q 153 1183 129 1154 q 211 1253 178 1213 q 238 1254 221 1253 q 275 1257 253 1256 q 332 1263 297 1258 q 364 1225 343 1247 q 408 1177 381 1206 q 476 1110 436 1149 l 456 1089 q 429 1063 444 1078 q 394 1026 414 1047 q 365 1058 382 1040 q 328 1097 350 1074 q 274 1149 306 1119 q 246 1118 261 1136 q 211 1080 232 1103 q 163 1025 190 1057 z "},"İ":{"ha":288,"x_min":42,"x_max":247,"o":"m 144 1044 q 67 1078 92 1044 q 42 1150 42 1111 q 68 1221 42 1190 q 144 1251 94 1251 q 222 1219 197 1251 q 247 1150 247 1188 q 217 1071 247 1097 q 144 1044 188 1044 m 51 -1 l 51 279 q 50 585 51 410 q 46 964 49 760 l 94 964 q 153 964 118 964 q 235 965 188 964 q 236 669 235 828 q 238 361 238 535 q 242 -1 239 188 l 193 -1 l 51 -1 z "},"Ī":{"ha":288,"x_min":-15,"x_max":304,"o":"m -14 1057 l -14 1086 q -14 1124 -14 1101 q -15 1179 -14 1147 l 57 1179 q 155 1179 94 1179 q 304 1182 215 1179 q 303 1156 303 1172 l 303 1060 l 229 1060 q 131 1059 190 1060 q -14 1057 71 1058 m 51 -1 l 51 279 q 50 585 51 410 q 46 964 49 760 l 94 964 q 153 964 118 964 q 235 965 188 964 q 236 669 235 828 q 238 361 238 535 q 242 -1 239 188 l 193 -1 l 51 -1 z "},"Į":{"ha":288,"x_min":17,"x_max":242,"o":"m 211 -269 q 68 -243 119 -278 q 17 -136 17 -208 q 104 0 17 -56 q 86 -1 96 -1 l 51 -1 l 51 279 q 50 585 51 410 q 46 964 49 760 l 94 964 q 153 964 118 964 q 235 965 188 964 q 236 669 235 828 q 238 361 238 535 q 242 -1 239 188 l 228 -1 q 213 -1 221 -1 q 196 0 206 0 q 143 -48 160 -24 q 126 -93 126 -72 q 148 -139 126 -122 q 219 -154 169 -156 q 217 -181 218 -165 q 214 -216 215 -194 q 211 -269 213 -237 z "},"Ĵ":{"ha":503,"x_min":11,"x_max":543,"o":"m 242 -15 q 65 60 119 -15 q 11 281 11 135 q 15 368 11 321 q 29 458 19 415 l 71 454 q 123 449 92 451 q 197 443 154 446 q 189 376 192 410 q 186 313 186 342 q 199 194 186 226 q 239 161 213 161 q 264 172 253 161 q 282 215 275 183 q 293 303 289 247 q 297 450 297 360 q 294 578 297 515 q 286 703 292 640 q 272 832 281 767 q 253 971 264 897 q 301 975 274 972 q 359 981 325 978 q 438 988 393 983 q 472 716 460 856 q 485 443 485 576 q 474 247 485 332 q 434 103 463 161 q 359 15 406 44 q 242 -15 313 -15 m 229 1011 q 210 1029 222 1018 q 183 1051 199 1038 q 146 1082 168 1064 q 179 1121 160 1097 q 220 1169 196 1140 q 278 1239 244 1199 q 304 1240 288 1239 q 342 1243 319 1242 q 399 1249 364 1244 q 431 1211 410 1233 q 475 1163 447 1192 q 543 1096 503 1135 l 522 1075 q 496 1049 511 1064 q 461 1013 481 1033 q 432 1044 449 1026 q 394 1083 417 1060 q 340 1135 372 1106 q 313 1104 328 1122 q 278 1066 299 1089 q 229 1011 257 1043 z "},"Ķ":{"ha":576,"x_min":35,"x_max":575,"o":"m 371 -35 q 322 175 343 89 q 285 317 300 261 q 247 217 261 257 q 225 153 232 176 q 226 94 225 119 q 226 51 226 68 q 228 18 226 32 l 81 18 q 35 17 53 18 q 36 388 36 219 q 36 682 36 557 q 35 944 36 826 q 118 943 82 943 q 178 943 154 943 l 226 943 q 224 663 224 788 q 224 433 224 538 q 292 677 264 574 q 340 851 321 781 q 378 990 363 933 q 460 987 424 988 q 522 985 497 986 q 574 983 551 983 q 478 690 518 814 q 417 496 439 565 q 481 281 451 376 q 531 117 510 185 q 575 -24 556 38 q 497 -27 533 -26 q 432 -31 460 -28 q 371 -35 399 -33 m 388 -142 q 356 -235 388 -190 q 268 -324 325 -279 q 224 -287 240 -301 q 208 -275 215 -281 q 244 -235 232 -253 q 264 -206 257 -217 q 215 -135 215 -190 q 240 -81 215 -103 q 303 -60 264 -60 q 364 -81 340 -60 q 388 -142 388 -103 z "},"Ĺ":{"ha":433,"x_min":35,"x_max":433,"o":"m 43 6 q 42 268 43 121 q 39 568 40 394 q 35 957 38 742 q 81 956 53 956 q 140 956 104 956 q 224 957 175 956 l 224 786 q 225 546 224 694 q 229 176 226 397 q 381 172 326 172 l 433 172 q 432 100 432 132 q 432 46 432 68 l 432 0 q 313 2 379 1 q 186 4 247 3 q 43 6 115 6 m 156 1003 q 116 1033 132 1021 q 89 1053 100 1046 q 67 1067 75 1061 q 167 1221 133 1167 q 200 1275 186 1251 q 252 1236 231 1251 q 288 1210 274 1221 q 314 1190 303 1197 q 240 1105 269 1140 q 190 1046 210 1069 q 156 1003 168 1019 z "},"Ľ":{"ha":433,"x_min":35,"x_max":463,"o":"m 43 6 q 42 268 43 121 q 39 568 40 394 q 35 957 38 742 q 81 956 53 956 q 140 956 104 956 q 224 957 175 956 l 224 786 q 225 546 224 694 q 229 176 226 397 q 381 172 326 172 l 433 172 q 432 100 432 132 q 432 46 432 68 l 432 0 q 313 2 379 1 q 186 4 247 3 q 43 6 115 6 m 463 933 q 431 840 463 885 q 343 751 400 796 q 299 788 315 774 q 283 800 290 794 q 319 840 307 822 q 339 869 332 858 q 290 940 290 885 q 315 994 290 972 q 378 1015 339 1015 q 439 994 415 1015 q 463 933 463 972 z "},"Ļ":{"ha":433,"x_min":35,"x_max":433,"o":"m 43 6 q 42 268 43 121 q 39 568 40 394 q 35 957 38 742 q 81 956 53 956 q 140 956 104 956 q 224 957 175 956 l 224 786 q 225 546 224 694 q 229 176 226 397 q 381 172 326 172 l 433 172 q 432 100 432 132 q 432 46 432 68 l 432 0 q 313 2 379 1 q 186 4 247 3 q 43 6 115 6 m 321 -119 q 290 -212 321 -168 q 201 -301 258 -257 q 157 -265 174 -279 q 142 -253 149 -258 q 178 -212 165 -231 q 197 -183 190 -194 q 149 -112 149 -168 q 173 -59 149 -81 q 236 -37 197 -37 q 297 -59 274 -37 q 321 -119 321 -81 z "},"Ń":{"ha":592,"x_min":35,"x_max":557,"o":"m 39 22 q 40 267 40 129 q 39 553 40 385 q 35 933 38 721 q 85 936 57 935 q 143 939 108 938 q 219 942 178 940 q 268 769 242 864 q 324 581 292 689 q 396 349 356 474 q 386 617 393 453 q 365 989 379 782 q 411 988 386 989 q 465 985 433 986 q 538 986 497 985 q 542 722 539 872 q 548 410 544 593 q 557 -7 551 226 q 514 -12 539 -10 q 458 -18 492 -15 q 381 -24 425 -21 q 332 135 360 44 q 274 320 308 211 q 199 567 240 429 q 204 330 200 472 q 218 19 208 188 q 168 21 196 19 q 111 22 144 21 q 39 22 78 22 m 308 1015 q 269 1046 285 1033 q 242 1065 253 1058 q 219 1079 228 1074 q 319 1233 286 1179 q 353 1288 339 1264 q 405 1249 383 1264 q 440 1222 426 1233 q 467 1203 456 1210 q 392 1117 422 1153 q 343 1058 363 1082 q 308 1015 321 1032 z "},"Ň":{"ha":592,"x_min":35,"x_max":557,"o":"m 39 22 q 40 267 40 129 q 39 553 40 385 q 35 933 38 721 q 85 936 57 935 q 143 939 108 938 q 219 942 178 940 q 268 769 242 864 q 324 581 292 689 q 396 349 356 474 q 386 617 393 453 q 365 989 379 782 q 411 988 386 989 q 465 985 433 986 q 538 986 497 985 q 542 722 539 872 q 548 410 544 593 q 557 -7 551 226 q 514 -12 539 -10 q 458 -18 492 -15 q 381 -24 425 -21 q 332 135 360 44 q 274 320 308 211 q 199 567 240 429 q 204 330 200 472 q 218 19 208 188 q 168 21 196 19 q 111 22 144 21 q 39 22 78 22 m 240 1017 l 207 1054 q 163 1102 189 1074 q 96 1171 136 1131 q 117 1190 104 1178 q 143 1216 128 1201 q 178 1253 158 1231 q 207 1221 190 1239 q 244 1183 222 1206 q 299 1132 267 1160 q 326 1161 311 1143 q 361 1199 340 1176 q 410 1254 382 1222 q 429 1236 417 1246 q 455 1215 440 1228 q 493 1185 469 1201 q 460 1146 479 1169 q 418 1097 443 1126 q 361 1026 393 1067 q 335 1025 351 1026 q 297 1022 319 1024 q 240 1017 274 1021 z "},"Ņ":{"ha":592,"x_min":35,"x_max":557,"o":"m 39 22 q 40 267 40 129 q 39 553 40 385 q 35 933 38 721 q 85 936 57 935 q 143 939 108 938 q 219 942 178 940 q 268 769 242 864 q 324 581 292 689 q 396 349 356 474 q 386 617 393 453 q 365 989 379 782 q 411 988 386 989 q 465 985 433 986 q 538 986 497 985 q 542 722 539 872 q 548 410 544 593 q 557 -7 551 226 q 514 -12 539 -10 q 458 -18 492 -15 q 381 -24 425 -21 q 332 135 360 44 q 274 320 308 211 q 199 567 240 429 q 204 330 200 472 q 218 19 208 188 q 168 21 196 19 q 111 22 144 21 q 39 22 78 22 m 381 -119 q 349 -212 381 -168 q 261 -301 318 -257 q 217 -265 233 -279 q 201 -253 208 -258 q 238 -212 225 -231 q 257 -183 250 -194 q 208 -112 208 -168 q 233 -59 208 -81 q 296 -37 257 -37 q 357 -59 333 -37 q 381 -119 381 -81 z "},"Ő":{"ha":582,"x_min":22,"x_max":560,"o":"m 293 125 q 320 140 308 125 q 340 194 332 154 q 351 306 347 235 q 354 490 354 376 q 351 656 354 590 q 339 760 347 721 q 319 816 331 800 q 290 832 307 832 q 260 814 272 832 q 241 756 249 796 q 231 650 233 715 q 228 492 228 585 q 231 310 228 381 q 242 198 235 239 q 263 141 250 157 q 293 125 275 125 m 290 -22 q 164 10 215 -22 q 81 105 113 42 q 36 263 50 168 q 22 482 22 357 q 34 678 22 586 q 76 838 46 769 q 158 944 106 906 q 290 983 210 983 q 424 947 372 983 q 507 844 476 910 q 549 686 538 778 q 560 483 560 594 q 542 242 558 339 q 492 86 525 144 q 408 3 458 28 q 290 -22 358 -22 m 208 1017 q 167 1042 185 1032 q 139 1058 150 1051 q 118 1068 125 1064 q 168 1160 147 1121 q 204 1228 189 1200 l 232 1283 q 285 1249 264 1263 q 319 1229 307 1236 q 342 1217 335 1221 q 278 1124 304 1163 q 238 1063 253 1086 q 208 1017 219 1035 m 379 1013 q 338 1038 356 1028 q 310 1056 321 1049 q 289 1067 296 1063 q 343 1156 319 1117 q 382 1224 367 1196 q 414 1281 400 1256 q 500 1225 478 1238 q 522 1213 515 1217 q 455 1120 482 1158 q 411 1058 428 1082 q 379 1013 392 1031 z "},"Ō":{"ha":582,"x_min":22,"x_max":560,"o":"m 293 125 q 320 140 308 125 q 340 194 332 154 q 351 306 347 235 q 354 490 354 376 q 351 656 354 590 q 339 760 347 721 q 319 816 331 800 q 290 832 307 832 q 260 814 272 832 q 241 756 249 796 q 231 650 233 715 q 228 492 228 585 q 231 310 228 381 q 242 198 235 239 q 263 141 250 157 q 293 125 275 125 m 290 -22 q 164 10 215 -22 q 81 105 113 42 q 36 263 50 168 q 22 482 22 357 q 34 678 22 586 q 76 838 46 769 q 158 944 106 906 q 290 983 210 983 q 424 947 372 983 q 507 844 476 910 q 549 686 538 778 q 560 483 560 594 q 542 242 558 339 q 492 86 525 144 q 408 3 458 28 q 290 -22 358 -22 m 132 1056 l 132 1085 q 132 1123 132 1100 q 131 1178 132 1146 l 203 1178 q 301 1178 240 1178 q 450 1181 361 1178 q 449 1154 449 1171 l 449 1058 l 375 1058 q 276 1058 336 1058 q 132 1056 217 1057 z "},"Ŕ":{"ha":554,"x_min":36,"x_max":564,"o":"m 225 476 q 310 517 276 479 q 344 647 344 556 q 319 775 344 728 q 239 822 294 822 q 233 822 236 822 q 228 821 231 821 l 221 821 q 222 688 221 750 q 224 578 222 625 q 225 476 225 522 m 368 -26 q 340 75 356 18 q 308 193 326 124 q 264 351 289 263 q 244 348 254 349 q 225 346 235 347 q 226 219 225 301 q 231 19 228 138 l 175 19 q 113 19 149 19 q 36 18 78 18 q 39 272 38 128 q 40 570 40 396 q 38 965 39 744 q 136 980 90 975 q 222 985 182 985 q 464 901 386 985 q 542 661 542 817 q 510 507 542 568 q 424 410 479 446 q 467 277 432 382 q 564 -11 501 172 q 513 -15 542 -12 q 451 -21 488 -18 q 368 -26 414 -24 m 272 1029 q 233 1060 249 1047 q 206 1079 217 1072 q 183 1093 192 1088 q 283 1247 250 1193 q 317 1301 303 1278 q 369 1263 347 1278 q 404 1236 390 1247 q 431 1217 419 1224 q 356 1131 386 1167 q 307 1072 326 1096 q 272 1029 285 1046 z "},"Ř":{"ha":554,"x_min":36,"x_max":564,"o":"m 225 476 q 310 517 276 479 q 344 647 344 556 q 319 775 344 728 q 239 822 294 822 q 233 822 236 822 q 228 821 231 821 l 221 821 q 222 688 221 750 q 224 578 222 625 q 225 476 225 522 m 368 -26 q 340 75 356 18 q 308 193 326 124 q 264 351 289 263 q 244 348 254 349 q 225 346 235 347 q 226 219 225 301 q 231 19 228 138 l 175 19 q 113 19 149 19 q 36 18 78 18 q 39 272 38 128 q 40 570 40 396 q 38 965 39 744 q 136 980 90 975 q 222 985 182 985 q 464 901 386 985 q 542 661 542 817 q 510 507 542 568 q 424 410 479 446 q 467 277 432 382 q 564 -11 501 172 q 513 -15 542 -12 q 451 -21 488 -18 q 368 -26 414 -24 m 206 1024 l 172 1061 q 128 1109 154 1081 q 61 1178 101 1138 q 82 1197 69 1185 q 108 1223 93 1208 q 143 1260 124 1238 q 172 1228 156 1246 q 210 1190 188 1213 q 264 1139 232 1167 q 292 1168 276 1150 q 326 1206 306 1183 q 375 1261 347 1229 q 394 1243 382 1253 q 420 1222 406 1235 q 458 1192 435 1208 q 425 1153 444 1176 q 383 1103 408 1133 q 326 1033 358 1074 q 300 1032 317 1033 q 262 1029 285 1031 q 206 1024 239 1028 z "},"Ŗ":{"ha":554,"x_min":36,"x_max":564,"o":"m 225 476 q 310 517 276 479 q 344 647 344 556 q 319 775 344 728 q 239 822 294 822 q 233 822 236 822 q 228 821 231 821 l 221 821 q 222 688 221 750 q 224 578 222 625 q 225 476 225 522 m 368 -26 q 340 75 356 18 q 308 193 326 124 q 264 351 289 263 q 244 348 254 349 q 225 346 235 347 q 226 219 225 301 q 231 19 228 138 l 175 19 q 113 19 149 19 q 36 18 78 18 q 39 272 38 128 q 40 570 40 396 q 38 965 39 744 q 136 980 90 975 q 222 985 182 985 q 464 901 386 985 q 542 661 542 817 q 510 507 542 568 q 424 410 479 446 q 467 277 432 382 q 564 -11 501 172 q 513 -15 542 -12 q 451 -21 488 -18 q 368 -26 414 -24 m 356 -121 q 324 -214 356 -169 q 236 -303 293 -258 q 192 -267 208 -281 q 176 -254 183 -260 q 213 -214 200 -232 q 232 -185 225 -196 q 183 -114 183 -169 q 208 -60 183 -82 q 271 -39 232 -39 q 332 -60 308 -39 q 356 -121 356 -82 z "},"Ś":{"ha":535,"x_min":4,"x_max":526,"o":"m 269 -21 q 63 71 121 -21 q 21 346 4 163 q 74 344 44 346 q 135 342 99 343 q 215 342 171 342 q 220 181 206 232 q 271 131 235 131 q 310 153 297 131 q 324 238 324 176 q 318 283 324 261 q 297 326 313 304 q 255 374 282 349 q 185 429 228 399 q 106 497 138 463 q 53 567 74 531 q 25 644 33 604 q 17 732 17 685 q 35 847 17 799 q 88 925 54 894 q 167 970 121 956 q 271 985 214 985 q 468 894 410 985 q 507 625 526 803 q 449 629 479 626 q 388 633 422 632 q 318 636 354 635 q 315 788 331 743 q 268 833 299 833 q 227 804 240 833 q 214 722 214 775 q 220 674 214 697 q 242 630 226 651 q 284 585 258 608 q 350 536 310 563 q 431 472 397 504 q 484 406 464 440 q 513 331 504 371 q 522 242 522 292 q 503 119 522 169 q 451 38 485 69 q 372 -7 418 7 q 269 -21 325 -21 m 279 1032 q 240 1063 256 1050 q 213 1082 224 1075 q 190 1096 199 1090 q 290 1250 257 1196 q 324 1304 310 1281 q 376 1265 354 1281 q 411 1239 397 1250 q 438 1219 426 1226 q 363 1134 393 1169 q 314 1075 333 1099 q 279 1032 292 1049 z "},"Ş":{"ha":535,"x_min":6,"x_max":526,"o":"m 324 238 q 318 283 324 261 q 297 326 313 304 q 255 374 282 349 q 185 429 228 399 q 106 497 138 463 q 53 567 74 531 q 25 644 33 604 q 17 732 17 685 q 35 847 17 799 q 88 925 54 894 q 167 970 121 956 q 271 985 214 985 q 468 894 410 985 q 507 625 526 803 q 449 629 479 626 q 388 633 422 632 q 318 636 354 635 q 315 788 331 743 q 268 833 299 833 q 227 804 240 833 q 214 722 214 775 q 220 674 214 697 q 242 630 226 651 q 284 585 258 608 q 350 536 310 563 q 431 472 397 504 q 484 406 464 440 q 513 331 504 371 q 522 242 522 292 q 506 128 522 175 q 463 49 490 81 q 394 2 435 18 q 307 -18 354 -14 q 306 -29 306 -24 q 305 -43 306 -35 q 304 -61 304 -51 q 401 -90 367 -64 q 435 -158 435 -117 q 389 -246 435 -214 q 271 -278 343 -278 q 211 -272 242 -278 q 156 -254 181 -265 q 160 -231 157 -244 q 165 -205 163 -219 q 171 -171 168 -190 q 223 -190 194 -183 q 276 -196 251 -196 q 313 -188 297 -196 q 329 -165 329 -181 q 303 -138 329 -147 q 213 -135 278 -129 q 219 -103 215 -121 q 226 -67 222 -87 q 235 -19 231 -46 q 56 82 106 -8 q 21 346 6 172 q 74 344 44 346 q 135 342 99 343 q 215 342 171 342 q 220 181 206 232 q 271 131 235 131 q 310 153 297 131 q 324 238 324 176 z "},"Ŝ":{"ha":535,"x_min":4,"x_max":526,"o":"m 269 -21 q 63 71 121 -21 q 21 346 4 163 q 74 344 44 346 q 135 342 99 343 q 215 342 171 342 q 220 181 206 232 q 271 131 235 131 q 310 153 297 131 q 324 238 324 176 q 318 283 324 261 q 297 326 313 304 q 255 374 282 349 q 185 429 228 399 q 106 497 138 463 q 53 567 74 531 q 25 644 33 604 q 17 732 17 685 q 35 847 17 799 q 88 925 54 894 q 167 970 121 956 q 271 985 214 985 q 468 894 410 985 q 507 625 526 803 q 449 629 479 626 q 388 633 422 632 q 318 636 354 635 q 315 788 331 743 q 268 833 299 833 q 227 804 240 833 q 214 722 214 775 q 220 674 214 697 q 242 630 226 651 q 284 585 258 608 q 350 536 310 563 q 431 472 397 504 q 484 406 464 440 q 513 331 504 371 q 522 242 522 292 q 503 119 522 169 q 451 38 485 69 q 372 -7 418 7 q 269 -21 325 -21 m 153 1017 q 133 1035 146 1024 q 107 1056 122 1043 q 69 1088 92 1069 q 103 1126 83 1103 q 144 1175 119 1146 q 201 1244 168 1204 q 228 1246 211 1244 q 265 1249 243 1247 q 322 1254 288 1250 q 354 1217 333 1239 q 399 1169 371 1197 q 467 1101 426 1140 l 446 1081 q 419 1054 435 1069 q 385 1018 404 1039 q 356 1050 372 1032 q 318 1088 340 1065 q 264 1140 296 1111 q 236 1110 251 1128 q 201 1072 222 1094 q 153 1017 181 1049 z "},"Ș":{"ha":535,"x_min":4,"x_max":526,"o":"m 269 -21 q 63 71 121 -21 q 21 346 4 163 q 74 344 44 346 q 135 342 99 343 q 215 342 171 342 q 220 181 206 232 q 271 131 235 131 q 310 153 297 131 q 324 238 324 176 q 318 283 324 261 q 297 326 313 304 q 255 374 282 349 q 185 429 228 399 q 106 497 138 463 q 53 567 74 531 q 25 644 33 604 q 17 732 17 685 q 35 847 17 799 q 88 925 54 894 q 167 970 121 956 q 271 985 214 985 q 468 894 410 985 q 507 625 526 803 q 449 629 479 626 q 388 633 422 632 q 318 636 354 635 q 315 788 331 743 q 268 833 299 833 q 227 804 240 833 q 214 722 214 775 q 220 674 214 697 q 242 630 226 651 q 284 585 258 608 q 350 536 310 563 q 431 472 397 504 q 484 406 464 440 q 513 331 504 371 q 522 242 522 292 q 503 119 522 169 q 451 38 485 69 q 372 -7 418 7 q 269 -21 325 -21 m 358 -132 q 327 -225 358 -181 q 239 -314 296 -269 q 194 -278 211 -292 q 179 -265 186 -271 q 215 -225 203 -243 q 235 -196 228 -207 q 186 -125 186 -181 q 210 -72 186 -93 q 274 -50 235 -50 q 335 -72 311 -50 q 358 -132 358 -93 z "},"Ť":{"ha":489,"x_min":7,"x_max":482,"o":"m 8 785 l 8 826 q 8 883 8 849 q 7 965 8 917 l 121 965 q 268 966 179 965 q 482 969 357 967 q 481 921 482 949 q 478 863 479 897 q 479 785 478 829 l 440 785 q 395 785 421 785 q 338 786 369 786 q 338 663 338 735 q 338 496 338 592 q 340 276 339 400 q 343 -6 340 151 l 296 -6 q 237 -6 272 -6 q 154 -7 201 -6 l 154 208 q 153 458 154 313 q 151 786 153 604 l 8 785 m 192 1011 l 158 1049 q 114 1097 140 1068 q 47 1165 88 1125 q 68 1185 56 1172 q 94 1210 79 1196 q 129 1247 110 1225 q 158 1215 142 1233 q 196 1177 174 1200 q 250 1126 218 1154 q 278 1156 263 1138 q 313 1194 292 1171 q 361 1249 333 1217 q 381 1231 368 1240 q 406 1209 392 1222 q 444 1179 421 1196 q 411 1140 431 1164 q 369 1091 394 1121 q 313 1021 344 1061 q 286 1019 303 1021 q 248 1017 271 1018 q 192 1011 225 1015 z "},"Ţ":{"ha":489,"x_min":7,"x_max":482,"o":"m 8 785 l 8 826 q 8 883 8 849 q 7 965 8 917 l 121 965 q 268 966 179 965 q 482 969 357 967 q 481 921 482 949 q 478 863 479 897 q 479 785 478 829 l 440 785 q 395 785 421 785 q 338 786 369 786 q 338 663 338 735 q 338 496 338 592 q 340 276 339 400 q 343 -6 340 151 l 296 -6 q 237 -6 272 -6 q 154 -7 201 -6 l 154 208 q 153 458 154 313 q 151 786 153 604 l 8 785 m 332 -119 q 301 -212 332 -168 q 213 -301 269 -257 q 168 -265 185 -279 q 153 -253 160 -258 q 189 -212 176 -231 q 208 -183 201 -194 q 160 -112 160 -168 q 184 -59 160 -81 q 247 -37 208 -37 q 308 -59 285 -37 q 332 -119 332 -81 z "},"Ŭ":{"ha":557,"x_min":19,"x_max":540,"o":"m 275 1025 q 192 1040 225 1025 q 138 1080 158 1056 q 111 1135 118 1104 q 107 1199 104 1167 l 135 1199 q 225 1203 163 1199 q 236 1151 222 1171 q 279 1131 250 1131 q 319 1149 303 1131 q 329 1215 336 1168 l 357 1215 q 394 1215 372 1215 q 449 1217 417 1215 q 440 1130 453 1167 q 403 1070 428 1093 q 346 1036 379 1047 q 275 1025 313 1025 m 281 -19 q 158 13 207 -19 q 77 113 108 46 q 33 279 46 179 q 19 514 19 379 q 49 951 19 744 q 92 944 67 949 q 148 937 114 942 q 231 926 182 932 q 212 722 218 810 q 206 557 206 633 q 211 367 206 443 q 227 247 217 292 q 251 184 238 203 q 279 165 264 165 q 306 176 294 165 q 326 222 318 188 q 339 319 335 256 q 343 488 343 383 q 333 725 343 600 q 307 975 324 850 q 358 978 329 975 q 497 990 407 979 q 528 741 517 868 q 540 496 540 614 q 526 263 540 360 q 481 103 513 165 q 401 10 450 40 q 281 -19 351 -19 z "},"Ű":{"ha":557,"x_min":19,"x_max":540,"o":"m 196 1022 q 155 1047 172 1038 q 126 1064 138 1057 q 106 1074 113 1069 q 156 1166 135 1126 q 192 1233 176 1206 l 219 1289 q 273 1255 251 1268 q 307 1235 294 1242 q 329 1222 322 1226 q 266 1130 292 1168 q 225 1068 240 1092 q 196 1022 207 1040 m 367 1018 q 326 1044 343 1033 q 297 1061 308 1054 q 276 1072 283 1068 q 331 1162 307 1122 q 369 1229 354 1201 q 401 1286 388 1261 q 488 1231 465 1243 q 510 1218 503 1222 q 442 1126 469 1164 q 399 1064 415 1088 q 367 1018 379 1036 m 281 -19 q 158 13 207 -19 q 77 113 108 46 q 33 279 46 179 q 19 514 19 379 q 49 951 19 744 q 92 944 67 949 q 148 937 114 942 q 231 926 182 932 q 212 722 218 810 q 206 557 206 633 q 211 367 206 443 q 227 247 217 292 q 251 184 238 203 q 279 165 264 165 q 306 176 294 165 q 326 222 318 188 q 339 319 335 256 q 343 488 343 383 q 333 725 343 600 q 307 975 324 850 q 358 978 329 975 q 497 990 407 979 q 528 741 517 868 q 540 496 540 614 q 526 263 540 360 q 481 103 513 165 q 401 10 450 40 q 281 -19 351 -19 z "},"Ū":{"ha":557,"x_min":19,"x_max":540,"o":"m 119 1065 l 119 1094 q 119 1133 119 1110 q 118 1188 119 1156 l 190 1188 q 288 1188 228 1188 q 438 1190 349 1188 q 436 1164 436 1181 l 436 1068 l 363 1068 q 264 1067 324 1068 q 119 1065 204 1067 m 281 -19 q 158 13 207 -19 q 77 113 108 46 q 33 279 46 179 q 19 514 19 379 q 49 951 19 744 q 92 944 67 949 q 148 937 114 942 q 231 926 182 932 q 212 722 218 810 q 206 557 206 633 q 211 367 206 443 q 227 247 217 292 q 251 184 238 203 q 279 165 264 165 q 306 176 294 165 q 326 222 318 188 q 339 319 335 256 q 343 488 343 383 q 333 725 343 600 q 307 975 324 850 q 358 978 329 975 q 497 990 407 979 q 528 741 517 868 q 540 496 540 614 q 526 263 540 360 q 481 103 513 165 q 401 10 450 40 q 281 -19 351 -19 z "},"Ų":{"ha":557,"x_min":19,"x_max":540,"o":"m 371 -264 q 229 -237 281 -272 q 178 -131 178 -203 q 235 -15 178 -65 q 67 135 115 3 q 19 514 19 267 q 49 951 19 744 q 92 944 67 949 q 148 937 114 942 q 231 926 182 932 q 212 722 218 810 q 206 557 206 633 q 211 367 206 443 q 227 247 217 292 q 251 184 238 203 q 279 165 264 165 q 306 176 294 165 q 326 222 318 188 q 339 319 335 256 q 343 488 343 383 q 333 725 343 600 q 307 975 324 850 q 358 978 329 975 q 497 990 407 979 q 528 741 517 868 q 540 496 540 614 q 492 126 540 249 q 329 -15 443 4 q 288 -87 288 -51 q 309 -133 288 -117 q 379 -149 331 -150 q 376 -175 378 -160 q 374 -210 375 -189 q 371 -264 372 -232 z "},"Ů":{"ha":557,"x_min":19,"x_max":540,"o":"m 281 -19 q 158 13 207 -19 q 77 113 108 46 q 33 279 46 179 q 19 514 19 379 q 49 951 19 744 q 92 944 67 949 q 148 937 114 942 q 231 926 182 932 q 212 722 218 810 q 206 557 206 633 q 211 367 206 443 q 227 247 217 292 q 251 184 238 203 q 279 165 264 165 q 306 176 294 165 q 326 222 318 188 q 339 319 335 256 q 343 488 343 383 q 333 725 343 600 q 307 975 324 850 q 358 978 329 975 q 497 990 407 979 q 528 741 517 868 q 540 496 540 614 q 526 263 540 360 q 481 103 513 165 q 401 10 450 40 q 281 -19 351 -19 m 279 1093 q 315 1110 303 1093 q 326 1157 326 1128 q 315 1200 326 1181 q 279 1219 303 1219 q 244 1201 256 1219 q 233 1156 233 1182 q 246 1110 233 1128 q 279 1093 258 1093 m 276 1022 q 179 1061 211 1022 q 147 1157 147 1100 q 184 1251 147 1217 q 278 1285 221 1285 q 376 1247 343 1285 q 410 1157 410 1208 q 399 1094 410 1119 q 369 1052 388 1068 q 326 1029 350 1036 q 276 1022 301 1022 z "},"Ź":{"ha":468,"x_min":17,"x_max":451,"o":"m 449 -6 q 129 3 242 0 q 17 4 64 4 q 18 88 18 53 q 18 147 18 124 l 18 190 q 172 566 114 418 q 254 779 231 714 q 158 777 201 778 q 85 775 115 776 q 21 772 49 774 l 21 921 q 19 961 21 946 q 213 965 132 964 q 346 968 293 967 q 447 971 407 969 q 449 894 449 931 q 450 831 450 858 l 450 771 q 300 392 357 540 q 219 179 243 244 q 309 175 267 176 q 383 174 351 174 q 451 174 419 172 q 449 83 449 118 q 449 29 449 49 l 449 -6 m 247 1008 q 208 1039 224 1026 q 181 1058 192 1051 q 158 1072 167 1067 q 258 1226 225 1172 q 292 1281 278 1257 q 344 1242 322 1257 q 379 1215 365 1226 q 406 1196 394 1203 q 331 1110 361 1146 q 282 1051 301 1075 q 247 1008 260 1025 z "},"Ż":{"ha":468,"x_min":17,"x_max":451,"o":"m 236 1033 q 158 1067 183 1033 q 133 1139 133 1100 q 160 1210 133 1179 q 236 1240 186 1240 q 314 1208 289 1240 q 339 1139 339 1176 q 309 1060 339 1086 q 236 1033 279 1033 m 449 -6 q 129 3 242 0 q 17 4 64 4 q 18 88 18 53 q 18 147 18 124 l 18 190 q 172 566 114 418 q 254 779 231 714 q 158 777 201 778 q 85 775 115 776 q 21 772 49 774 l 21 921 q 19 961 21 946 q 213 965 132 964 q 346 968 293 967 q 447 971 407 969 q 449 894 449 931 q 450 831 450 858 l 450 771 q 300 392 357 540 q 219 179 243 244 q 309 175 267 176 q 383 174 351 174 q 451 174 419 172 q 449 83 449 118 q 449 29 449 49 l 449 -6 z "},"ă":{"ha":515,"x_min":11,"x_max":488,"o":"m 249 744 q 165 760 199 744 q 112 799 132 775 q 85 855 92 824 q 81 918 78 886 l 108 918 q 199 922 136 918 q 210 870 196 890 q 253 850 224 850 q 293 869 276 850 q 303 935 310 888 l 331 935 q 368 935 346 935 q 422 936 390 935 q 414 849 426 886 q 377 790 401 813 q 319 756 353 767 q 249 744 286 744 m 313 265 q 313 293 313 279 q 311 319 313 307 q 218 272 244 308 q 192 190 192 235 q 204 138 192 158 q 246 118 217 118 q 272 125 260 118 q 292 149 283 132 q 307 194 301 165 q 313 265 313 222 m 189 -14 q 61 33 111 -14 q 11 164 11 79 q 87 340 11 278 q 304 414 163 403 q 303 429 303 422 l 303 458 q 290 544 300 521 q 257 568 281 568 q 207 444 204 568 q 160 443 186 443 q 104 442 136 443 q 33 443 72 442 q 43 546 31 499 q 84 628 56 593 q 157 682 113 663 q 264 701 201 701 q 430 635 378 701 q 485 450 482 568 q 488 271 488 354 q 488 124 488 188 q 486 -15 488 49 q 453 -17 472 -17 q 409 -17 436 -17 q 346 -18 382 -18 q 349 13 347 -4 q 350 45 350 26 q 351 86 350 64 q 286 8 331 31 q 189 -14 242 -14 z "},"ā":{"ha":515,"x_min":11,"x_max":488,"o":"m 93 774 l 93 803 q 93 841 93 818 q 92 896 93 864 l 164 896 q 262 896 201 896 q 411 899 322 896 q 410 872 410 889 l 410 776 l 336 776 q 238 776 297 776 q 93 774 178 775 m 313 265 q 313 293 313 279 q 311 319 313 307 q 218 272 244 308 q 192 190 192 235 q 204 138 192 158 q 246 118 217 118 q 272 125 260 118 q 292 149 283 132 q 307 194 301 165 q 313 265 313 222 m 189 -14 q 61 33 111 -14 q 11 164 11 79 q 87 340 11 278 q 304 414 163 403 q 303 429 303 422 l 303 458 q 290 544 300 521 q 257 568 281 568 q 207 444 204 568 q 160 443 186 443 q 104 442 136 443 q 33 443 72 442 q 43 546 31 499 q 84 628 56 593 q 157 682 113 663 q 264 701 201 701 q 430 635 378 701 q 485 450 482 568 q 488 271 488 354 q 488 124 488 188 q 486 -15 488 49 q 453 -17 472 -17 q 409 -17 436 -17 q 346 -18 382 -18 q 349 13 347 -4 q 350 45 350 26 q 351 86 350 64 q 286 8 331 31 q 189 -14 242 -14 z "},"ą":{"ha":515,"x_min":11,"x_max":488,"o":"m 313 265 q 313 293 313 279 q 311 319 313 307 q 218 272 244 308 q 192 190 192 235 q 204 138 192 158 q 246 118 217 118 q 272 125 260 118 q 292 149 283 132 q 307 194 301 165 q 313 265 313 222 m 189 -14 q 61 33 111 -14 q 11 164 11 79 q 87 340 11 278 q 304 414 163 403 q 303 429 303 422 l 303 458 q 290 544 300 521 q 257 568 281 568 q 207 444 204 568 q 160 443 186 443 q 104 442 136 443 q 33 443 72 442 q 43 546 31 499 q 84 628 56 593 q 157 682 113 663 q 264 701 201 701 q 430 635 378 701 q 485 450 482 568 q 488 271 488 354 q 488 124 488 188 q 486 -15 488 49 l 471 -15 q 452 -16 464 -15 q 426 -17 440 -17 q 392 -54 403 -35 q 382 -90 382 -74 q 403 -136 382 -119 q 474 -151 425 -153 q 471 -178 472 -162 q 467 -267 468 -206 q 324 -240 375 -275 q 272 -135 272 -206 q 347 -8 272 -58 q 349 27 349 3 q 351 86 350 51 q 286 8 331 31 q 189 -14 242 -14 z "},"ć":{"ha":529,"x_min":22,"x_max":517,"o":"m 275 -17 q 81 78 139 -17 q 22 347 22 174 q 86 611 22 514 q 282 708 150 708 q 389 685 343 708 q 464 619 435 661 q 505 522 493 578 q 513 401 517 465 q 428 404 463 403 q 369 406 393 406 l 326 406 q 275 572 331 572 q 231 518 244 572 q 217 342 217 464 q 231 178 217 226 q 275 129 246 129 q 315 165 300 129 q 325 290 329 200 l 365 290 q 423 290 388 290 q 514 293 458 290 q 497 144 515 203 q 446 49 478 85 q 369 -2 414 13 q 275 -17 325 -17 m 281 744 q 241 775 257 763 q 214 794 225 788 q 192 808 200 803 q 292 963 258 908 q 325 1017 311 993 q 377 978 356 993 q 413 951 399 963 q 439 932 428 939 q 365 847 394 882 q 315 788 335 811 q 281 744 293 761 z "},"č":{"ha":529,"x_min":22,"x_max":517,"o":"m 275 -17 q 81 78 139 -17 q 22 347 22 174 q 86 611 22 514 q 282 708 150 708 q 389 685 343 708 q 464 619 435 661 q 505 522 493 578 q 513 401 517 465 q 428 404 463 403 q 369 406 393 406 l 326 406 q 275 572 331 572 q 231 518 244 572 q 217 342 217 464 q 231 178 217 226 q 275 129 246 129 q 315 165 300 129 q 325 290 329 200 l 365 290 q 423 290 388 290 q 514 293 458 290 q 497 144 515 203 q 446 49 478 85 q 369 -2 414 13 q 275 -17 325 -17 m 215 740 l 182 778 q 138 826 164 797 q 71 894 111 854 q 92 914 79 901 q 118 940 103 925 q 153 976 133 954 q 182 944 165 963 q 219 906 197 929 q 274 856 242 883 q 301 885 286 867 q 336 923 315 900 q 385 978 357 946 q 404 960 392 969 q 430 938 415 951 q 468 908 444 925 q 435 869 454 893 q 393 820 418 850 q 336 750 368 790 q 310 749 326 750 q 272 746 294 747 q 215 740 249 744 z "},"ĉ":{"ha":529,"x_min":22,"x_max":517,"o":"m 275 -17 q 81 78 139 -17 q 22 347 22 174 q 86 611 22 514 q 282 708 150 708 q 389 685 343 708 q 464 619 435 661 q 505 522 493 578 q 513 401 517 465 q 428 404 463 403 q 369 406 393 406 l 326 406 q 275 572 331 572 q 231 518 244 572 q 217 342 217 464 q 231 178 217 226 q 275 129 246 129 q 315 165 300 129 q 325 290 329 200 l 365 290 q 423 290 388 290 q 514 293 458 290 q 497 144 515 203 q 446 49 478 85 q 369 -2 414 13 q 275 -17 325 -17 m 154 731 q 135 749 147 738 q 108 770 124 757 q 71 801 93 783 q 104 840 85 817 q 145 889 121 860 q 203 958 169 918 q 229 960 213 958 q 267 963 244 961 q 324 968 289 964 q 356 931 335 953 q 400 883 372 911 q 468 815 428 854 l 447 794 q 421 768 436 783 q 386 732 406 753 q 357 764 374 746 q 319 802 342 779 q 265 854 297 825 q 238 824 253 842 q 203 785 224 808 q 154 731 182 763 z "},"ď":{"ha":565,"x_min":22,"x_max":750,"o":"m 282 117 q 305 126 294 117 q 323 162 315 136 q 335 231 331 188 q 340 343 340 275 q 325 519 340 463 q 278 575 310 575 q 236 517 250 575 q 222 347 222 460 q 238 171 222 225 q 282 117 253 117 m 526 -25 l 486 -25 q 438 -24 467 -25 q 374 -24 410 -24 q 375 10 375 -8 q 375 47 375 25 q 376 97 375 69 q 317 19 356 44 q 231 -7 279 -7 q 144 14 183 -7 q 78 78 106 35 q 37 191 51 122 q 22 354 22 260 q 33 494 22 429 q 68 606 44 558 q 129 680 92 653 q 219 707 167 707 q 294 683 263 707 q 346 624 326 660 q 342 760 344 681 q 335 950 340 840 q 374 949 349 949 q 433 949 396 949 q 528 951 469 949 q 525 667 526 822 q 524 356 524 533 q 526 -25 524 179 m 750 868 q 719 775 750 819 q 631 686 688 731 q 586 722 603 708 q 571 735 578 729 q 607 775 594 757 q 626 804 619 793 q 578 875 578 819 q 602 928 578 907 q 665 950 626 950 q 726 928 703 950 q 750 868 750 907 z "},"ě":{"ha":542,"x_min":22,"x_max":521,"o":"m 272 582 q 229 537 243 582 q 213 401 215 492 q 268 402 240 401 q 325 404 296 403 q 314 535 326 489 q 272 582 301 582 m 276 -15 q 152 13 201 -15 q 74 90 103 40 q 34 206 46 139 q 22 353 22 274 q 36 492 22 428 q 80 603 50 556 q 158 678 110 651 q 274 706 206 706 q 399 674 350 706 q 476 588 449 643 q 512 459 503 533 q 515 297 521 385 q 432 296 478 296 q 337 294 392 294 q 213 293 282 294 q 231 159 215 200 q 278 118 246 118 q 333 243 329 118 q 392 242 361 242 q 451 240 418 240 q 521 239 485 240 q 445 51 510 118 q 276 -15 381 -15 m 218 740 l 185 778 q 140 826 167 797 q 74 894 114 854 q 94 914 82 901 q 121 940 106 925 q 156 976 136 954 q 185 944 168 963 q 222 906 200 929 q 276 856 244 883 q 304 885 289 867 q 339 923 318 900 q 388 978 360 946 q 407 960 394 969 q 433 938 418 951 q 471 908 447 925 q 438 869 457 893 q 396 820 421 850 q 339 750 371 790 q 313 749 329 750 q 274 746 297 747 q 218 740 251 744 z "},"ė":{"ha":542,"x_min":22,"x_max":521,"o":"m 272 763 q 194 796 219 763 q 169 868 169 829 q 196 939 169 908 q 272 969 222 969 q 350 938 325 969 q 375 868 375 906 q 345 789 375 815 q 272 763 315 763 m 272 582 q 229 537 243 582 q 213 401 215 492 q 268 402 240 401 q 325 404 296 403 q 314 535 326 489 q 272 582 301 582 m 276 -15 q 152 13 201 -15 q 74 90 103 40 q 34 206 46 139 q 22 353 22 274 q 36 492 22 428 q 80 603 50 556 q 158 678 110 651 q 274 706 206 706 q 399 674 350 706 q 476 588 449 643 q 512 459 503 533 q 515 297 521 385 q 432 296 478 296 q 337 294 392 294 q 213 293 282 294 q 231 159 215 200 q 278 118 246 118 q 333 243 329 118 q 392 242 361 242 q 451 240 418 240 q 521 239 485 240 q 445 51 510 118 q 276 -15 381 -15 z "},"ē":{"ha":542,"x_min":22,"x_max":521,"o":"m 114 785 l 114 814 q 114 852 114 829 q 113 907 114 875 l 185 907 q 283 907 222 907 q 432 910 343 907 q 431 883 431 900 l 431 788 l 357 788 q 258 787 318 788 q 114 785 199 786 m 272 582 q 229 537 243 582 q 213 401 215 492 q 268 402 240 401 q 325 404 296 403 q 314 535 326 489 q 272 582 301 582 m 276 -15 q 152 13 201 -15 q 74 90 103 40 q 34 206 46 139 q 22 353 22 274 q 36 492 22 428 q 80 603 50 556 q 158 678 110 651 q 274 706 206 706 q 399 674 350 706 q 476 588 449 643 q 512 459 503 533 q 515 297 521 385 q 432 296 478 296 q 337 294 392 294 q 213 293 282 294 q 231 159 215 200 q 278 118 246 118 q 333 243 329 118 q 392 242 361 242 q 451 240 418 240 q 521 239 485 240 q 445 51 510 118 q 276 -15 381 -15 z "},"ę":{"ha":542,"x_min":22,"x_max":521,"o":"m 272 582 q 229 537 243 582 q 213 401 215 492 q 268 402 240 401 q 325 404 296 403 q 314 535 326 489 q 272 582 301 582 m 363 -264 q 221 -237 272 -272 q 169 -131 169 -203 q 232 -11 169 -61 q 130 28 171 -3 q 65 106 89 58 q 32 217 42 154 q 22 353 22 279 q 36 492 22 428 q 80 603 50 556 q 158 678 110 651 q 274 706 206 706 q 399 674 350 706 q 476 588 449 643 q 512 459 503 533 q 515 297 521 385 q 432 296 478 296 q 337 294 392 294 q 213 293 282 294 q 231 159 215 200 q 278 118 246 118 q 333 243 329 118 q 392 242 361 242 q 451 240 418 240 q 521 239 485 240 q 460 69 510 133 q 326 -11 410 4 q 279 -87 279 -49 q 301 -133 279 -117 q 371 -149 322 -150 q 368 -175 369 -160 q 365 -210 367 -189 q 363 -264 364 -232 z "},"ğ":{"ha":508,"x_min":10,"x_max":532,"o":"m 261 761 q 178 776 211 761 q 124 816 144 792 q 97 872 104 840 q 93 935 90 903 l 121 935 q 211 939 149 935 q 222 887 208 907 q 265 867 236 867 q 306 885 289 867 q 315 951 322 904 l 343 951 q 381 951 358 951 q 435 953 403 951 q 426 866 439 903 q 390 806 414 829 q 332 772 365 783 q 261 761 299 761 m 532 -126 q 509 -225 532 -183 q 447 -294 486 -267 q 359 -336 408 -322 q 256 -350 310 -350 q 76 -310 142 -350 q 10 -192 10 -269 q 42 -104 10 -143 q 131 -46 75 -65 q 81 -1 97 -28 q 65 56 65 25 q 138 163 65 115 q 17 429 17 225 q 31 540 17 488 q 76 631 46 592 q 152 694 107 671 q 260 717 197 717 q 365 694 321 717 q 439 632 410 671 q 482 541 468 593 q 496 429 496 489 q 478 297 496 353 q 431 206 461 242 q 358 152 400 169 q 269 135 317 135 q 246 135 257 135 q 224 138 235 135 q 210 110 210 124 q 227 86 210 94 q 286 71 244 78 q 476 3 419 51 q 532 -126 532 -44 m 357 -160 q 236 -90 357 -103 q 194 -128 207 -107 q 181 -169 181 -149 q 203 -216 181 -200 q 261 -232 225 -232 q 329 -213 301 -232 q 357 -160 357 -194 m 258 251 q 301 290 286 251 q 315 421 315 329 q 301 544 315 500 q 258 589 288 589 q 199 421 199 589 q 214 290 199 329 q 258 251 229 251 z "},"ĝ":{"ha":508,"x_min":10,"x_max":532,"o":"m 150 742 q 131 760 143 749 q 104 781 119 768 q 67 813 89 794 q 100 851 81 828 q 141 900 117 871 q 199 969 165 929 q 225 971 208 969 q 263 974 240 972 q 319 979 285 975 q 351 942 331 964 q 396 894 368 922 q 464 826 424 865 l 443 806 q 417 779 432 794 q 382 743 401 764 q 353 775 369 757 q 315 813 338 790 q 261 865 293 836 q 233 835 249 853 q 199 797 219 819 q 150 742 178 774 m 532 -126 q 509 -225 532 -183 q 447 -294 486 -267 q 359 -336 408 -322 q 256 -350 310 -350 q 76 -310 142 -350 q 10 -192 10 -269 q 42 -104 10 -143 q 131 -46 75 -65 q 81 -1 97 -28 q 65 56 65 25 q 138 163 65 115 q 17 429 17 225 q 31 540 17 488 q 76 631 46 592 q 152 694 107 671 q 260 717 197 717 q 365 694 321 717 q 439 632 410 671 q 482 541 468 593 q 496 429 496 489 q 478 297 496 353 q 431 206 461 242 q 358 152 400 169 q 269 135 317 135 q 246 135 257 135 q 224 138 235 135 q 210 110 210 124 q 227 86 210 94 q 286 71 244 78 q 476 3 419 51 q 532 -126 532 -44 m 357 -160 q 236 -90 357 -103 q 194 -128 207 -107 q 181 -169 181 -149 q 203 -216 181 -200 q 261 -232 225 -232 q 329 -213 301 -232 q 357 -160 357 -194 m 258 251 q 301 290 286 251 q 315 421 315 329 q 301 544 315 500 q 258 589 288 589 q 199 421 199 589 q 214 290 199 329 q 258 251 229 251 z "},"ģ":{"ha":508,"x_min":10,"x_max":532,"o":"m 176 840 q 208 933 176 889 q 296 1022 239 978 q 322 1001 310 1010 q 340 986 333 993 q 356 974 349 979 q 319 933 332 951 q 300 904 307 915 q 349 833 349 889 q 324 780 349 801 q 261 758 300 758 q 200 780 224 758 q 176 840 176 801 m 532 -126 q 509 -225 532 -183 q 447 -294 486 -267 q 359 -336 408 -322 q 256 -350 310 -350 q 76 -310 142 -350 q 10 -192 10 -269 q 42 -104 10 -143 q 131 -46 75 -65 q 81 -1 97 -28 q 65 56 65 25 q 138 163 65 115 q 17 429 17 225 q 31 540 17 488 q 76 631 46 592 q 152 694 107 671 q 260 717 197 717 q 365 694 321 717 q 439 632 410 671 q 482 541 468 593 q 496 429 496 489 q 478 297 496 353 q 431 206 461 242 q 358 152 400 169 q 269 135 317 135 q 246 135 257 135 q 224 138 235 135 q 210 110 210 124 q 227 86 210 94 q 286 71 244 78 q 476 3 419 51 q 532 -126 532 -44 m 357 -160 q 236 -90 357 -103 q 194 -128 207 -107 q 181 -169 181 -149 q 203 -216 181 -200 q 261 -232 225 -232 q 329 -213 301 -232 q 357 -160 357 -194 m 258 251 q 301 290 286 251 q 315 421 315 329 q 301 544 315 500 q 258 589 288 589 q 199 421 199 589 q 214 290 199 329 q 258 251 229 251 z "},"ĥ":{"ha":531,"x_min":-75,"x_max":504,"o":"m 36 22 q 38 290 36 144 q 38 581 38 415 q 36 940 39 747 l 81 940 q 136 940 103 940 q 215 942 169 940 q 213 844 214 899 q 210 737 211 799 q 211 601 210 675 q 272 677 235 649 q 363 704 310 706 q 465 651 432 704 q 500 507 497 599 q 503 330 503 422 q 504 158 504 238 q 503 -22 504 67 l 456 -22 q 397 -22 432 -22 q 318 -21 363 -21 q 319 140 319 57 q 319 297 319 211 q 318 467 319 383 q 308 521 317 506 q 278 536 300 536 q 238 510 254 536 q 222 433 222 483 q 221 285 221 358 q 221 153 221 211 l 221 24 l 175 24 q 117 24 151 24 q 36 22 83 24 m 8 960 q -11 978 1 967 q -37 999 -22 986 q -75 1031 -53 1013 q -42 1069 -61 1046 q -1 1118 -25 1089 q 57 1188 24 1147 q 83 1189 67 1188 q 121 1192 99 1190 q 178 1197 143 1193 q 210 1160 189 1182 q 254 1112 226 1140 q 322 1044 282 1083 l 301 1024 q 275 997 290 1013 q 240 961 260 982 q 211 993 228 975 q 174 1031 196 1008 q 119 1083 151 1054 q 92 1053 107 1071 q 57 1015 78 1038 q 8 960 36 992 z "},"ī":{"ha":263,"x_min":-25,"x_max":294,"o":"m -24 797 l -24 826 q -24 865 -24 842 q -25 919 -24 888 l 47 919 q 145 919 85 919 q 294 922 206 919 q 293 896 293 913 l 293 800 l 219 800 q 121 799 181 800 q -24 797 61 799 m 44 1 l 44 158 q 44 374 44 242 q 40 699 43 506 l 86 699 q 144 699 110 699 q 224 700 178 699 l 224 517 q 225 298 224 426 q 229 3 226 169 l 176 3 q 118 2 151 3 q 44 1 85 1 z "},"į":{"ha":263,"x_min":10,"x_max":246,"o":"m 133 767 q 47 798 75 767 q 18 886 18 829 q 49 968 18 939 q 135 997 79 997 q 217 965 189 997 q 246 885 246 933 q 218 801 246 835 q 133 767 190 767 m 44 1 l 44 158 q 44 374 44 242 q 40 699 43 506 l 86 699 q 144 699 110 699 q 224 700 178 699 l 224 517 q 225 298 224 426 q 229 3 226 169 l 183 3 q 118 -87 118 -42 q 140 -133 118 -117 q 211 -149 161 -150 q 208 -175 210 -160 q 206 -210 207 -189 q 203 -264 204 -232 q 61 -237 113 -272 q 10 -131 10 -203 q 92 1 10 -51 l 44 1 z "},"ĵ":{"ha":264,"x_min":-101,"x_max":333,"o":"m -101 -304 q -99 -258 -100 -285 q -97 -203 -97 -236 q -96 -131 -97 -171 q -78 -133 -86 -132 q -61 -133 -69 -133 q 19 -104 -3 -133 q 43 -17 42 -75 q 45 87 44 31 q 46 203 46 143 q 45 322 46 263 q 44 438 44 382 q 42 699 43 567 l 175 699 q 221 700 201 699 q 225 489 222 606 q 228 253 226 389 q 226 -43 229 117 q 210 -152 225 -104 q 164 -234 196 -200 q 81 -287 132 -268 q -46 -306 29 -306 q -72 -306 -58 -306 q -101 -304 -86 -306 m 19 744 q 0 763 13 751 q -26 784 -11 771 q -64 815 -42 797 q -31 854 -50 831 q 10 903 -14 874 q 68 972 35 932 q 94 974 78 972 q 132 976 110 975 q 189 982 154 978 q 221 944 200 967 q 265 897 238 925 q 333 829 293 868 l 313 808 q 286 782 301 797 q 251 746 271 767 q 222 778 239 760 q 185 816 207 793 q 131 868 163 839 q 103 838 118 856 q 68 799 89 822 q 19 744 47 776 z "},"ķ":{"ha":544,"x_min":35,"x_max":540,"o":"m 342 -28 q 299 135 318 68 q 269 247 281 203 q 235 182 249 210 q 221 156 228 167 q 222 94 221 119 q 222 51 222 68 q 224 18 222 32 q 142 19 176 19 q 83 19 107 19 l 36 19 q 37 427 38 254 q 36 715 36 600 q 35 944 35 850 q 118 942 83 942 q 176 942 153 942 q 221 943 203 942 q 219 624 219 758 q 221 386 219 490 q 270 522 249 463 q 307 622 292 581 q 336 707 324 669 q 416 702 379 704 q 481 699 453 700 q 539 696 513 697 q 453 519 486 592 q 400 407 419 447 q 457 227 432 307 q 501 92 482 147 q 540 -22 524 26 q 390 -26 442 -24 q 342 -28 361 -28 m 372 -126 q 341 -219 372 -175 q 253 -308 310 -264 q 208 -272 225 -286 q 193 -260 200 -265 q 229 -219 217 -237 q 249 -190 242 -201 q 200 -119 200 -175 q 224 -66 200 -87 q 288 -44 249 -44 q 349 -66 325 -44 q 372 -126 372 -87 z "},"ĺ":{"ha":260,"x_min":38,"x_max":307,"o":"m 222 18 q 142 20 176 19 q 85 21 108 21 l 38 21 q 40 424 40 253 q 40 713 40 596 q 39 943 40 849 q 176 939 131 939 l 224 939 q 221 497 221 674 q 221 214 221 319 q 222 18 221 89 m 149 972 q 109 1003 125 990 q 82 1022 93 1015 q 60 1036 68 1031 q 160 1190 126 1136 q 193 1244 179 1221 q 245 1206 224 1221 q 281 1179 267 1190 q 307 1160 296 1167 q 233 1074 263 1110 q 183 1015 203 1039 q 149 972 161 989 z "},"ľ":{"ha":260,"x_min":38,"x_max":444,"o":"m 222 18 q 142 20 176 19 q 85 21 108 21 l 38 21 q 40 424 40 253 q 40 713 40 596 q 39 943 40 849 q 176 939 131 939 l 224 939 q 221 497 221 674 q 221 214 221 319 q 222 18 221 89 m 444 861 q 413 768 444 813 q 325 679 382 724 q 281 715 297 701 q 265 728 272 722 q 301 768 289 750 q 321 797 314 786 q 272 868 272 813 q 297 922 272 900 q 360 943 321 943 q 421 922 397 943 q 444 861 444 900 z "},"ļ":{"ha":260,"x_min":38,"x_max":224,"o":"m 222 18 q 142 20 176 19 q 85 21 108 21 l 38 21 q 40 424 40 253 q 40 713 40 596 q 39 943 40 849 q 176 939 131 939 l 224 939 q 221 497 221 674 q 221 214 221 319 q 222 18 221 89 m 217 -119 q 185 -212 217 -168 q 97 -301 154 -257 q 53 -265 69 -279 q 38 -253 44 -258 q 74 -212 61 -231 q 93 -183 86 -194 q 44 -112 44 -168 q 69 -59 44 -81 q 132 -37 93 -37 q 193 -59 169 -37 q 217 -119 217 -81 z "},"ń":{"ha":529,"x_min":35,"x_max":501,"o":"m 315 -25 l 315 139 q 316 298 315 211 q 317 468 317 385 q 308 519 317 503 q 279 536 300 536 q 237 508 251 536 q 222 439 222 481 q 221 329 221 399 q 221 190 221 260 l 221 19 l 165 19 l 35 19 q 38 201 36 100 q 39 410 39 289 q 38 679 39 531 q 79 678 56 678 q 125 678 99 678 q 183 681 151 678 q 182 647 182 664 q 181 613 182 632 q 182 576 181 594 q 249 667 204 631 q 353 703 294 703 q 460 653 425 703 q 499 513 496 604 q 499 468 499 499 q 501 397 500 438 q 501 310 501 357 q 501 217 501 264 l 501 -24 q 444 -24 476 -24 q 383 -25 411 -25 l 315 -25 m 289 732 q 249 763 265 750 q 222 782 233 775 q 200 796 208 790 q 300 950 267 896 q 333 1004 319 981 q 385 965 364 981 q 421 939 407 950 q 447 919 436 926 q 373 834 403 869 q 324 775 343 799 q 289 732 301 749 z "},"ň":{"ha":529,"x_min":35,"x_max":501,"o":"m 315 -25 l 315 139 q 316 298 315 211 q 317 468 317 385 q 308 519 317 503 q 279 536 300 536 q 237 508 251 536 q 222 439 222 481 q 221 329 221 399 q 221 190 221 260 l 221 19 l 165 19 l 35 19 q 38 201 36 100 q 39 410 39 289 q 38 679 39 531 q 79 678 56 678 q 125 678 99 678 q 183 681 151 678 q 182 647 182 664 q 181 613 182 632 q 182 576 181 594 q 249 667 204 631 q 353 703 294 703 q 460 653 425 703 q 499 513 496 604 q 499 468 499 499 q 501 397 500 438 q 501 310 501 357 q 501 217 501 264 l 501 -24 q 444 -24 476 -24 q 383 -25 411 -25 l 315 -25 m 222 735 l 189 772 q 144 820 171 792 q 78 889 118 849 q 99 908 86 896 q 125 934 110 919 q 160 971 140 949 q 189 939 172 957 q 226 901 204 924 q 281 850 249 878 q 308 879 293 861 q 343 917 322 894 q 392 972 364 940 q 411 954 399 964 q 437 933 422 946 q 475 903 451 919 q 442 864 461 888 q 400 815 425 844 q 343 744 375 785 q 317 743 333 744 q 278 740 301 742 q 222 735 256 739 z "},"ņ":{"ha":529,"x_min":35,"x_max":501,"o":"m 315 -25 l 315 139 q 316 298 315 211 q 317 468 317 385 q 308 519 317 503 q 279 536 300 536 q 237 508 251 536 q 222 439 222 481 q 221 329 221 399 q 221 190 221 260 l 221 19 l 165 19 l 35 19 q 38 201 36 100 q 39 410 39 289 q 38 679 39 531 q 79 678 56 678 q 125 678 99 678 q 183 681 151 678 q 182 647 182 664 q 181 613 182 632 q 182 576 181 594 q 249 667 204 631 q 353 703 294 703 q 460 653 425 703 q 499 513 496 604 q 499 468 499 499 q 501 397 500 438 q 501 310 501 357 q 501 217 501 264 l 501 -24 q 444 -24 476 -24 q 383 -25 411 -25 l 315 -25 m 363 -128 q 331 -221 363 -176 q 243 -310 300 -265 q 199 -274 215 -287 q 183 -261 190 -267 q 219 -221 207 -239 q 239 -192 232 -203 q 190 -121 190 -176 q 215 -67 190 -89 q 278 -46 239 -46 q 339 -67 315 -46 q 363 -128 363 -89 z "}}}
